<mxfile host="app.diagrams.net" modified="2023-09-11T13:53:21.198Z" agent="Mozilla/5.0 (Windows NT 10.0; Win64; x64) AppleWebKit/537.36 (KHTML, like Gecko) Chrome/116.0.0.0 Safari/537.36 Edg/116.0.1938.69" etag="uKbg92RVRPbRSaN45aID" version="21.7.2" type="github">
  <diagram name="Page-1" id="UBqKU2ZODt-f7sgFLUB-">
    <mxGraphModel dx="825" dy="403" grid="1" gridSize="10" guides="1" tooltips="1" connect="1" arrows="1" fold="1" page="1" pageScale="1" pageWidth="850" pageHeight="1100" math="0" shadow="0">
      <root>
        <mxCell id="0" />
        <mxCell id="1" parent="0" />
        <mxCell id="O9bGArhLgDMVCxNtZsvs-1" value="USE [master]&#xa;GO&#xa;/****** Object:  Database [GDFHRMSV3]    Script Date: 31/08/2023 8:59:03 AM ******/&#xa;CREATE DATABASE [GDFHRMSV3]&#xa; CONTAINMENT = NONE&#xa; ON  PRIMARY &#xa;( NAME = N&#39;GDFHRMSV3&#39;, FILENAME = N&#39;C:\Program Files\Microsoft SQL Server\MSSQL15.SQLEXPRESS\MSSQL\DATA\GDFHRMSV3.mdf&#39; , SIZE = 73728KB , MAXSIZE = UNLIMITED, FILEGROWTH = 65536KB )&#xa; LOG ON &#xa;( NAME = N&#39;GDFHRMSV3_log&#39;, FILENAME = N&#39;C:\Program Files\Microsoft SQL Server\MSSQL15.SQLEXPRESS\MSSQL\DATA\GDFHRMSV3_log.ldf&#39; , SIZE = 8192KB , MAXSIZE = 2048GB , FILEGROWTH = 65536KB )&#xa; WITH CATALOG_COLLATION = DATABASE_DEFAULT&#xa;GO&#xa;ALTER DATABASE [GDFHRMSV3] SET COMPATIBILITY_LEVEL = 150&#xa;GO&#xa;IF (1 = FULLTEXTSERVICEPROPERTY(&#39;IsFullTextInstalled&#39;))&#xa;begin&#xa;EXEC [GDFHRMSV3].[dbo].[sp_fulltext_database] @action = &#39;enable&#39;&#xa;end&#xa;GO&#xa;ALTER DATABASE [GDFHRMSV3] SET ANSI_NULL_DEFAULT OFF &#xa;GO&#xa;ALTER DATABASE [GDFHRMSV3] SET ANSI_NULLS OFF &#xa;GO&#xa;ALTER DATABASE [GDFHRMSV3] SET ANSI_PADDING OFF &#xa;GO&#xa;ALTER DATABASE [GDFHRMSV3] SET ANSI_WARNINGS OFF &#xa;GO&#xa;ALTER DATABASE [GDFHRMSV3] SET ARITHABORT OFF &#xa;GO&#xa;ALTER DATABASE [GDFHRMSV3] SET AUTO_CLOSE ON &#xa;GO&#xa;ALTER DATABASE [GDFHRMSV3] SET AUTO_SHRINK OFF &#xa;GO&#xa;ALTER DATABASE [GDFHRMSV3] SET AUTO_UPDATE_STATISTICS ON &#xa;GO&#xa;ALTER DATABASE [GDFHRMSV3] SET CURSOR_CLOSE_ON_COMMIT OFF &#xa;GO&#xa;ALTER DATABASE [GDFHRMSV3] SET CURSOR_DEFAULT  GLOBAL &#xa;GO&#xa;ALTER DATABASE [GDFHRMSV3] SET CONCAT_NULL_YIELDS_NULL OFF &#xa;GO&#xa;ALTER DATABASE [GDFHRMSV3] SET NUMERIC_ROUNDABORT OFF &#xa;GO&#xa;ALTER DATABASE [GDFHRMSV3] SET QUOTED_IDENTIFIER OFF &#xa;GO&#xa;ALTER DATABASE [GDFHRMSV3] SET RECURSIVE_TRIGGERS OFF &#xa;GO&#xa;ALTER DATABASE [GDFHRMSV3] SET  ENABLE_BROKER &#xa;GO&#xa;ALTER DATABASE [GDFHRMSV3] SET AUTO_UPDATE_STATISTICS_ASYNC OFF &#xa;GO&#xa;ALTER DATABASE [GDFHRMSV3] SET DATE_CORRELATION_OPTIMIZATION OFF &#xa;GO&#xa;ALTER DATABASE [GDFHRMSV3] SET TRUSTWORTHY OFF &#xa;GO&#xa;ALTER DATABASE [GDFHRMSV3] SET ALLOW_SNAPSHOT_ISOLATION OFF &#xa;GO&#xa;ALTER DATABASE [GDFHRMSV3] SET PARAMETERIZATION SIMPLE &#xa;GO&#xa;ALTER DATABASE [GDFHRMSV3] SET READ_COMMITTED_SNAPSHOT ON &#xa;GO&#xa;ALTER DATABASE [GDFHRMSV3] SET HONOR_BROKER_PRIORITY OFF &#xa;GO&#xa;ALTER DATABASE [GDFHRMSV3] SET RECOVERY SIMPLE &#xa;GO&#xa;ALTER DATABASE [GDFHRMSV3] SET  MULTI_USER &#xa;GO&#xa;ALTER DATABASE [GDFHRMSV3] SET PAGE_VERIFY CHECKSUM  &#xa;GO&#xa;ALTER DATABASE [GDFHRMSV3] SET DB_CHAINING OFF &#xa;GO&#xa;ALTER DATABASE [GDFHRMSV3] SET FILESTREAM( NON_TRANSACTED_ACCESS = OFF ) &#xa;GO&#xa;ALTER DATABASE [GDFHRMSV3] SET TARGET_RECOVERY_TIME = 60 SECONDS &#xa;GO&#xa;ALTER DATABASE [GDFHRMSV3] SET DELAYED_DURABILITY = DISABLED &#xa;GO&#xa;ALTER DATABASE [GDFHRMSV3] SET ACCELERATED_DATABASE_RECOVERY = OFF  &#xa;GO&#xa;ALTER DATABASE [GDFHRMSV3] SET QUERY_STORE = OFF&#xa;GO&#xa;USE [GDFHRMSV3]&#xa;GO&#xa;/****** Object:  Table [dbo].[__EFMigrationsHistory]    Script Date: 31/08/2023 8:59:05 AM ******/&#xa;SET ANSI_NULLS ON&#xa;GO&#xa;SET QUOTED_IDENTIFIER ON&#xa;GO&#xa;CREATE TABLE [dbo].[__EFMigrationsHistory](&#xa;&#x9;[MigrationId] [nvarchar](150) NOT NULL,&#xa;&#x9;[ProductVersion] [nvarchar](32) NOT NULL,&#xa; CONSTRAINT [PK___EFMigrationsHistory] PRIMARY KEY CLUSTERED &#xa;(&#xa;&#x9;[MigrationId] ASC&#xa;)WITH (PAD_INDEX = OFF, STATISTICS_NORECOMPUTE = OFF, IGNORE_DUP_KEY = OFF, ALLOW_ROW_LOCKS = ON, ALLOW_PAGE_LOCKS = ON, OPTIMIZE_FOR_SEQUENTIAL_KEY = OFF) ON [PRIMARY]&#xa;) ON [PRIMARY]&#xa;GO&#xa;/****** Object:  Table [dbo].[AppointmentStatuses]    Script Date: 31/08/2023 8:59:05 AM ******/&#xa;SET ANSI_NULLS ON&#xa;GO&#xa;SET QUOTED_IDENTIFIER ON&#xa;GO&#xa;CREATE TABLE [dbo].[AppointmentStatuses](&#xa;&#x9;[Id] [uniqueidentifier] NOT NULL,&#xa;&#x9;[Status] [nvarchar](200) NOT NULL,&#xa;&#x9;[StatusName] [nvarchar](200) NOT NULL,&#xa;&#x9;[Created] [datetime2](7) NOT NULL,&#xa;&#x9;[CreatedBy] [nvarchar](250) NOT NULL,&#xa;&#x9;[LastModified] [datetime2](7) NOT NULL,&#xa;&#x9;[LastModifiedBy] [nvarchar](250) NOT NULL,&#xa; CONSTRAINT [PK_AppointmentStatuses] PRIMARY KEY CLUSTERED &#xa;(&#xa;&#x9;[Id] ASC&#xa;)WITH (PAD_INDEX = OFF, STATISTICS_NORECOMPUTE = OFF, IGNORE_DUP_KEY = OFF, ALLOW_ROW_LOCKS = ON, ALLOW_PAGE_LOCKS = ON, OPTIMIZE_FOR_SEQUENTIAL_KEY = OFF) ON [PRIMARY]&#xa;) ON [PRIMARY]&#xa;GO&#xa;/****** Object:  Table [dbo].[AspNetRoleClaims]    Script Date: 31/08/2023 8:59:05 AM ******/&#xa;SET ANSI_NULLS ON&#xa;GO&#xa;SET QUOTED_IDENTIFIER ON&#xa;GO&#xa;CREATE TABLE [dbo].[AspNetRoleClaims](&#xa;&#x9;[Id] [int] IDENTITY(1,1) NOT NULL,&#xa;&#x9;[RoleId] [nvarchar](450) NOT NULL,&#xa;&#x9;[ClaimType] [nvarchar](max) NULL,&#xa;&#x9;[ClaimValue] [nvarchar](max) NULL,&#xa; CONSTRAINT [PK_AspNetRoleClaims] PRIMARY KEY CLUSTERED &#xa;(&#xa;&#x9;[Id] ASC&#xa;)WITH (PAD_INDEX = OFF, STATISTICS_NORECOMPUTE = OFF, IGNORE_DUP_KEY = OFF, ALLOW_ROW_LOCKS = ON, ALLOW_PAGE_LOCKS = ON, OPTIMIZE_FOR_SEQUENTIAL_KEY = OFF) ON [PRIMARY]&#xa;) ON [PRIMARY] TEXTIMAGE_ON [PRIMARY]&#xa;GO&#xa;/****** Object:  Table [dbo].[AspNetRoles]    Script Date: 31/08/2023 8:59:05 AM ******/&#xa;SET ANSI_NULLS ON&#xa;GO&#xa;SET QUOTED_IDENTIFIER ON&#xa;GO&#xa;CREATE TABLE [dbo].[AspNetRoles](&#xa;&#x9;[Id] [nvarchar](450) NOT NULL,&#xa;&#x9;[Name] [nvarchar](256) NULL,&#xa;&#x9;[NormalizedName] [nvarchar](256) NULL,&#xa;&#x9;[ConcurrencyStamp] [nvarchar](max) NULL,&#xa; CONSTRAINT [PK_AspNetRoles] PRIMARY KEY CLUSTERED &#xa;(&#xa;&#x9;[Id] ASC&#xa;)WITH (PAD_INDEX = OFF, STATISTICS_NORECOMPUTE = OFF, IGNORE_DUP_KEY = OFF, ALLOW_ROW_LOCKS = ON, ALLOW_PAGE_LOCKS = ON, OPTIMIZE_FOR_SEQUENTIAL_KEY = OFF) ON [PRIMARY]&#xa;) ON [PRIMARY] TEXTIMAGE_ON [PRIMARY]&#xa;GO&#xa;/****** Object:  Table [dbo].[AspNetUserClaims]    Script Date: 31/08/2023 8:59:05 AM ******/&#xa;SET ANSI_NULLS ON&#xa;GO&#xa;SET QUOTED_IDENTIFIER ON&#xa;GO&#xa;CREATE TABLE [dbo].[AspNetUserClaims](&#xa;&#x9;[Id] [int] IDENTITY(1,1) NOT NULL,&#xa;&#x9;[UserId] [nvarchar](450) NOT NULL,&#xa;&#x9;[ClaimType] [nvarchar](max) NULL,&#xa;&#x9;[ClaimValue] [nvarchar](max) NULL,&#xa; CONSTRAINT [PK_AspNetUserClaims] PRIMARY KEY CLUSTERED &#xa;(&#xa;&#x9;[Id] ASC&#xa;)WITH (PAD_INDEX = OFF, STATISTICS_NORECOMPUTE = OFF, IGNORE_DUP_KEY = OFF, ALLOW_ROW_LOCKS = ON, ALLOW_PAGE_LOCKS = ON, OPTIMIZE_FOR_SEQUENTIAL_KEY = OFF) ON [PRIMARY]&#xa;) ON [PRIMARY] TEXTIMAGE_ON [PRIMARY]&#xa;GO&#xa;/****** Object:  Table [dbo].[AspNetUserLogins]    Script Date: 31/08/2023 8:59:05 AM ******/&#xa;SET ANSI_NULLS ON&#xa;GO&#xa;SET QUOTED_IDENTIFIER ON&#xa;GO&#xa;CREATE TABLE [dbo].[AspNetUserLogins](&#xa;&#x9;[LoginProvider] [nvarchar](128) NOT NULL,&#xa;&#x9;[ProviderKey] [nvarchar](128) NOT NULL,&#xa;&#x9;[ProviderDisplayName] [nvarchar](max) NULL,&#xa;&#x9;[UserId] [nvarchar](450) NOT NULL,&#xa; CONSTRAINT [PK_AspNetUserLogins] PRIMARY KEY CLUSTERED &#xa;(&#xa;&#x9;[LoginProvider] ASC,&#xa;&#x9;[ProviderKey] ASC&#xa;)WITH (PAD_INDEX = OFF, STATISTICS_NORECOMPUTE = OFF, IGNORE_DUP_KEY = OFF, ALLOW_ROW_LOCKS = ON, ALLOW_PAGE_LOCKS = ON, OPTIMIZE_FOR_SEQUENTIAL_KEY = OFF) ON [PRIMARY]&#xa;) ON [PRIMARY] TEXTIMAGE_ON [PRIMARY]&#xa;GO&#xa;/****** Object:  Table [dbo].[AspNetUserRoles]    Script Date: 31/08/2023 8:59:05 AM ******/&#xa;SET ANSI_NULLS ON&#xa;GO&#xa;SET QUOTED_IDENTIFIER ON&#xa;GO&#xa;CREATE TABLE [dbo].[AspNetUserRoles](&#xa;&#x9;[UserId] [nvarchar](450) NOT NULL,&#xa;&#x9;[RoleId] [nvarchar](450) NOT NULL,&#xa; CONSTRAINT [PK_AspNetUserRoles] PRIMARY KEY CLUSTERED &#xa;(&#xa;&#x9;[UserId] ASC,&#xa;&#x9;[RoleId] ASC&#xa;)WITH (PAD_INDEX = OFF, STATISTICS_NORECOMPUTE = OFF, IGNORE_DUP_KEY = OFF, ALLOW_ROW_LOCKS = ON, ALLOW_PAGE_LOCKS = ON, OPTIMIZE_FOR_SEQUENTIAL_KEY = OFF) ON [PRIMARY]&#xa;) ON [PRIMARY]&#xa;GO&#xa;/****** Object:  Table [dbo].[AspNetUsers]    Script Date: 31/08/2023 8:59:05 AM ******/&#xa;SET ANSI_NULLS ON&#xa;GO&#xa;SET QUOTED_IDENTIFIER ON&#xa;GO&#xa;CREATE TABLE [dbo].[AspNetUsers](&#xa;&#x9;[Id] [nvarchar](450) NOT NULL,&#xa;&#x9;[UserName] [nvarchar](256) NULL,&#xa;&#x9;[NormalizedUserName] [nvarchar](256) NULL,&#xa;&#x9;[Email] [nvarchar](256) NULL,&#xa;&#x9;[NormalizedEmail] [nvarchar](256) NULL,&#xa;&#x9;[EmailConfirmed] [bit] NOT NULL,&#xa;&#x9;[PasswordHash] [nvarchar](max) NULL,&#xa;&#x9;[SecurityStamp] [nvarchar](max) NULL,&#xa;&#x9;[ConcurrencyStamp] [nvarchar](max) NULL,&#xa;&#x9;[PhoneNumber] [nvarchar](max) NULL,&#xa;&#x9;[PhoneNumberConfirmed] [bit] NOT NULL,&#xa;&#x9;[TwoFactorEnabled] [bit] NOT NULL,&#xa;&#x9;[LockoutEnd] [datetimeoffset](7) NULL,&#xa;&#x9;[LockoutEnabled] [bit] NOT NULL,&#xa;&#x9;[AccessFailedCount] [int] NOT NULL,&#xa; CONSTRAINT [PK_AspNetUsers] PRIMARY KEY CLUSTERED &#xa;(&#xa;&#x9;[Id] ASC&#xa;)WITH (PAD_INDEX = OFF, STATISTICS_NORECOMPUTE = OFF, IGNORE_DUP_KEY = OFF, ALLOW_ROW_LOCKS = ON, ALLOW_PAGE_LOCKS = ON, OPTIMIZE_FOR_SEQUENTIAL_KEY = OFF) ON [PRIMARY]&#xa;) ON [PRIMARY] TEXTIMAGE_ON [PRIMARY]&#xa;GO&#xa;/****** Object:  Table [dbo].[AspNetUserTokens]    Script Date: 31/08/2023 8:59:05 AM ******/&#xa;SET ANSI_NULLS ON&#xa;GO&#xa;SET QUOTED_IDENTIFIER ON&#xa;GO&#xa;CREATE TABLE [dbo].[AspNetUserTokens](&#xa;&#x9;[UserId] [nvarchar](450) NOT NULL,&#xa;&#x9;[LoginProvider] [nvarchar](128) NOT NULL,&#xa;&#x9;[Name] [nvarchar](128) NOT NULL,&#xa;&#x9;[Value] [nvarchar](max) NULL,&#xa; CONSTRAINT [PK_AspNetUserTokens] PRIMARY KEY CLUSTERED &#xa;(&#xa;&#x9;[UserId] ASC,&#xa;&#x9;[LoginProvider] ASC,&#xa;&#x9;[Name] ASC&#xa;)WITH (PAD_INDEX = OFF, STATISTICS_NORECOMPUTE = OFF, IGNORE_DUP_KEY = OFF, ALLOW_ROW_LOCKS = ON, ALLOW_PAGE_LOCKS = ON, OPTIMIZE_FOR_SEQUENTIAL_KEY = OFF) ON [PRIMARY]&#xa;) ON [PRIMARY] TEXTIMAGE_ON [PRIMARY]&#xa;GO&#xa;/****** Object:  Table [dbo].[Counties]    Script Date: 31/08/2023 8:59:05 AM ******/&#xa;SET ANSI_NULLS ON&#xa;GO&#xa;SET QUOTED_IDENTIFIER ON&#xa;GO&#xa;CREATE TABLE [dbo].[Counties](&#xa;&#x9;[Id] [uniqueidentifier] NOT NULL,&#xa;&#x9;[CountyType] [nvarchar](250) NOT NULL,&#xa;&#x9;[Created] [datetime2](7) NOT NULL,&#xa;&#x9;[CreatedBy] [nvarchar](250) NOT NULL,&#xa;&#x9;[LastModified] [datetime2](7) NOT NULL,&#xa;&#x9;[LastModifiedBy] [nvarchar](250) NOT NULL,&#xa; CONSTRAINT [PK_Counties] PRIMARY KEY CLUSTERED &#xa;(&#xa;&#x9;[Id] ASC&#xa;)WITH (PAD_INDEX = OFF, STATISTICS_NORECOMPUTE = OFF, IGNORE_DUP_KEY = OFF, ALLOW_ROW_LOCKS = ON, ALLOW_PAGE_LOCKS = ON, OPTIMIZE_FOR_SEQUENTIAL_KEY = OFF) ON [PRIMARY]&#xa;) ON [PRIMARY]&#xa;GO&#xa;/****** Object:  Table [dbo].[Countries]    Script Date: 31/08/2023 8:59:05 AM ******/&#xa;SET ANSI_NULLS ON&#xa;GO&#xa;SET QUOTED_IDENTIFIER ON&#xa;GO&#xa;CREATE TABLE [dbo].[Countries](&#xa;&#x9;[Id] [uniqueidentifier] NOT NULL,&#xa;&#x9;[CountryType] [nvarchar](250) NOT NULL,&#xa;&#x9;[Created] [datetime2](7) NOT NULL,&#xa;&#x9;[CreatedBy] [nvarchar](250) NOT NULL,&#xa;&#x9;[LastModified] [datetime2](7) NOT NULL,&#xa;&#x9;[LastModifiedBy] [nvarchar](250) NOT NULL,&#xa; CONSTRAINT [PK_Countries] PRIMARY KEY CLUSTERED &#xa;(&#xa;&#x9;[Id] ASC&#xa;)WITH (PAD_INDEX = OFF, STATISTICS_NORECOMPUTE = OFF, IGNORE_DUP_KEY = OFF, ALLOW_ROW_LOCKS = ON, ALLOW_PAGE_LOCKS = ON, OPTIMIZE_FOR_SEQUENTIAL_KEY = OFF) ON [PRIMARY]&#xa;) ON [PRIMARY]&#xa;GO&#xa;/****** Object:  Table [dbo].[DeviceCodes]    Script Date: 31/08/2023 8:59:05 AM ******/&#xa;SET ANSI_NULLS ON&#xa;GO&#xa;SET QUOTED_IDENTIFIER ON&#xa;GO&#xa;CREATE TABLE [dbo].[DeviceCodes](&#xa;&#x9;[UserCode] [nvarchar](200) NOT NULL,&#xa;&#x9;[DeviceCode] [nvarchar](200) NOT NULL,&#xa;&#x9;[SubjectId] [nvarchar](200) NULL,&#xa;&#x9;[SessionId] [nvarchar](100) NULL,&#xa;&#x9;[ClientId] [nvarchar](200) NOT NULL,&#xa;&#x9;[Description] [nvarchar](200) NULL,&#xa;&#x9;[CreationTime] [datetime2](7) NOT NULL,&#xa;&#x9;[Expiration] [datetime2](7) NOT NULL,&#xa;&#x9;[Data] [nvarchar](max) NOT NULL,&#xa; CONSTRAINT [PK_DeviceCodes] PRIMARY KEY CLUSTERED &#xa;(&#xa;&#x9;[UserCode] ASC&#xa;)WITH (PAD_INDEX = OFF, STATISTICS_NORECOMPUTE = OFF, IGNORE_DUP_KEY = OFF, ALLOW_ROW_LOCKS = ON, ALLOW_PAGE_LOCKS = ON, OPTIMIZE_FOR_SEQUENTIAL_KEY = OFF) ON [PRIMARY]&#xa;) ON [PRIMARY] TEXTIMAGE_ON [PRIMARY]&#xa;GO&#xa;/****** Object:  Table [dbo].[EmployeeAddresses]    Script Date: 31/08/2023 8:59:05 AM ******/&#xa;SET ANSI_NULLS ON&#xa;GO&#xa;SET QUOTED_IDENTIFIER ON&#xa;GO&#xa;CREATE TABLE [dbo].[EmployeeAddresses](&#xa;&#x9;[Id] [uniqueidentifier] NOT NULL,&#xa;&#x9;[Lot] [nvarchar](250) NULL,&#xa;&#x9;[Street] [nvarchar](250) NULL,&#xa;&#x9;[Area] [nvarchar](250) NULL,&#xa;&#x9;[Town] [nvarchar](250) NULL,&#xa;&#x9;[CountryId] [uniqueidentifier] NULL,&#xa;&#x9;[RegionId] [uniqueidentifier] NOT NULL,&#xa;&#x9;[EmployeeId] [uniqueidentifier] NOT NULL,&#xa;&#x9;[Created] [datetime2](7) NOT NULL,&#xa;&#x9;[CreatedBy] [nvarchar](250) NOT NULL,&#xa;&#x9;[LastModified] [datetime2](7) NOT NULL,&#xa;&#x9;[LastModifiedBy] [nvarchar](250) NOT NULL,&#xa;&#x9;[CountyId] [uniqueidentifier] NOT NULL,&#xa; CONSTRAINT [PK_EmployeeAddresses] PRIMARY KEY CLUSTERED &#xa;(&#xa;&#x9;[Id] ASC&#xa;)WITH (PAD_INDEX = OFF, STATISTICS_NORECOMPUTE = OFF, IGNORE_DUP_KEY = OFF, ALLOW_ROW_LOCKS = ON, ALLOW_PAGE_LOCKS = ON, OPTIMIZE_FOR_SEQUENTIAL_KEY = OFF) ON [PRIMARY]&#xa;) ON [PRIMARY]&#xa;GO&#xa;/****** Object:  Table [dbo].[Employees]    Script Date: 31/08/2023 8:59:05 AM ******/&#xa;SET ANSI_NULLS ON&#xa;GO&#xa;SET QUOTED_IDENTIFIER ON&#xa;GO&#xa;CREATE TABLE [dbo].[Employees](&#xa;&#x9;[Id] [uniqueidentifier] NOT NULL,&#xa;&#x9;[TitleId] [uniqueidentifier] NULL,&#xa;&#x9;[FirstName] [nvarchar](max) NULL,&#xa;&#x9;[LastName] [nvarchar](max) NULL,&#xa;&#x9;[DateOfBirth] [datetime2](7) NULL,&#xa;&#x9;[MaritalStatusTypeId] [uniqueidentifier] NULL,&#xa;&#x9;[ReligionId] [uniqueidentifier] NULL,&#xa;&#x9;[NationalityId] [uniqueidentifier] NULL,&#xa;&#x9;[SexId] [uniqueidentifier] NULL,&#xa;&#x9;[RaceId] [uniqueidentifier] NULL,&#xa;&#x9;[HomeNumber] [nvarchar](max) NULL,&#xa;&#x9;[CellNumber] [nvarchar](max) NULL,&#xa;&#x9;[WorkNumber] [nvarchar](max) NULL,&#xa;&#x9;[EmailAddress] [nvarchar](max) NULL,&#xa;&#x9;[PassportNumber] [nvarchar](max) NULL,&#xa;&#x9;[PassportExpirationDate] [datetime2](7) NULL,&#xa;&#x9;[IdentificationCardNumber] [nvarchar](200) NOT NULL,&#xa;&#x9;[TaxPayerIdentificationNumber] [nvarchar](200) NOT NULL,&#xa;&#x9;[NationalInsuranceSchemeNumber] [nvarchar](200) NOT NULL,&#xa;&#x9;[Photograph] [varbinary](max) NULL,&#xa;&#x9;[Created] [datetime2](7) NOT NULL,&#xa;&#x9;[CreatedBy] [nvarchar](250) NOT NULL,&#xa;&#x9;[LastModified] [datetime2](7) NOT NULL,&#xa;&#x9;[LastModifiedBy] [nvarchar](250) NOT NULL,&#xa; CONSTRAINT [PK_Employees] PRIMARY KEY CLUSTERED &#xa;(&#xa;&#x9;[Id] ASC&#xa;)WITH (PAD_INDEX = OFF, STATISTICS_NORECOMPUTE = OFF, IGNORE_DUP_KEY = OFF, ALLOW_ROW_LOCKS = ON, ALLOW_PAGE_LOCKS = ON, OPTIMIZE_FOR_SEQUENTIAL_KEY = OFF) ON [PRIMARY]&#xa;) ON [PRIMARY] TEXTIMAGE_ON [PRIMARY]&#xa;GO&#xa;/****** Object:  Table [dbo].[Families]    Script Date: 31/08/2023 8:59:05 AM ******/&#xa;SET ANSI_NULLS ON&#xa;GO&#xa;SET QUOTED_IDENTIFIER ON&#xa;GO&#xa;CREATE TABLE [dbo].[Families](&#xa;&#x9;[Id] [uniqueidentifier] NOT NULL,&#xa;&#x9;[NextOfKin] [bit] NOT NULL,&#xa;&#x9;[MilitaryParamilitary] [bit] NOT NULL,&#xa;&#x9;[MilitaryParamilitaryOrganizationId] [uniqueidentifier] NULL,&#xa;&#x9;[FirstName] [nvarchar](250) NOT NULL,&#xa;&#x9;[LastName] [nvarchar](250) NOT NULL,&#xa;&#x9;[DateOfBirth] [datetime2](7) NULL,&#xa;&#x9;[SexId] [uniqueidentifier] NOT NULL,&#xa;&#x9;[HomeNumber] [nvarchar](max) NULL,&#xa;&#x9;[CellNumber] [nvarchar](max) NULL,&#xa;&#x9;[WorkNumber] [nvarchar](max) NULL,&#xa;&#x9;[Email] [nvarchar](max) NULL,&#xa;&#x9;[RelationshipId] [uniqueidentifier] NOT NULL,&#xa;&#x9;[IdentificationNumber] [nvarchar](max) NULL,&#xa;&#x9;[PassportNumber] [nvarchar](max) NULL,&#xa;&#x9;[EmployeeId] [uniqueidentifier] NOT NULL,&#xa;&#x9;[Created] [datetime2](7) NOT NULL,&#xa;&#x9;[CreatedBy] [nvarchar](250) NOT NULL,&#xa;&#x9;[LastModified] [datetime2](7) NOT NULL,&#xa;&#x9;[LastModifiedBy] [nvarchar](250) NOT NULL,&#xa; CONSTRAINT [PK_Families] PRIMARY KEY CLUSTERED &#xa;(&#xa;&#x9;[Id] ASC&#xa;)WITH (PAD_INDEX = OFF, STATISTICS_NORECOMPUTE = OFF, IGNORE_DUP_KEY = OFF, ALLOW_ROW_LOCKS = ON, ALLOW_PAGE_LOCKS = ON, OPTIMIZE_FOR_SEQUENTIAL_KEY = OFF) ON [PRIMARY]&#xa;) ON [PRIMARY] TEXTIMAGE_ON [PRIMARY]&#xa;GO&#xa;/****** Object:  Table [dbo].[FamilyAddresses]    Script Date: 31/08/2023 8:59:05 AM ******/&#xa;SET ANSI_NULLS ON&#xa;GO&#xa;SET QUOTED_IDENTIFIER ON&#xa;GO&#xa;CREATE TABLE [dbo].[FamilyAddresses](&#xa;&#x9;[Id] [uniqueidentifier] NOT NULL,&#xa;&#x9;[Lot] [nvarchar](250) NULL,&#xa;&#x9;[Street] [nvarchar](250) NOT NULL,&#xa;&#x9;[Area] [nvarchar](250) NOT NULL,&#xa;&#x9;[Town] [nvarchar](250) NULL,&#xa;&#x9;[CountyId] [uniqueidentifier] NOT NULL,&#xa;&#x9;[RegionId] [uniqueidentifier] NOT NULL,&#xa;&#x9;[FamilyId] [uniqueidentifier] NOT NULL,&#xa;&#x9;[Created] [datetime2](7) NOT NULL,&#xa;&#x9;[CreatedBy] [nvarchar](250) NOT NULL,&#xa;&#x9;[LastModified] [datetime2](7) NOT NULL,&#xa;&#x9;[LastModifiedBy] [nvarchar](250) NOT NULL,&#xa; CONSTRAINT [PK_FamilyAddresses] PRIMARY KEY CLUSTERED &#xa;(&#xa;&#x9;[Id] ASC&#xa;)WITH (PAD_INDEX = OFF, STATISTICS_NORECOMPUTE = OFF, IGNORE_DUP_KEY = OFF, ALLOW_ROW_LOCKS = ON, ALLOW_PAGE_LOCKS = ON, OPTIMIZE_FOR_SEQUENTIAL_KEY = OFF) ON [PRIMARY]&#xa;) ON [PRIMARY]&#xa;GO&#xa;/****** Object:  Table [dbo].[ForceOrders]    Script Date: 31/08/2023 8:59:05 AM ******/&#xa;SET ANSI_NULLS ON&#xa;GO&#xa;SET QUOTED_IDENTIFIER ON&#xa;GO&#xa;CREATE TABLE [dbo].[ForceOrders](&#xa;&#x9;[Id] [uniqueidentifier] NOT NULL,&#xa;&#x9;[ForceOrderTypeId] [uniqueidentifier] NOT NULL,&#xa;&#x9;[ForceOrderDate] [datetime2](7) NOT NULL,&#xa;&#x9;[ForceOrderSerialNumber] [nvarchar](200) NOT NULL,&#xa;&#x9;[ForceOrderParagraphNumber] [nvarchar](200) NOT NULL,&#xa;&#x9;[Created] [datetime2](7) NOT NULL,&#xa;&#x9;[CreatedBy] [nvarchar](250) NOT NULL,&#xa;&#x9;[LastModified] [datetime2](7) NOT NULL,&#xa;&#x9;[LastModifiedBy] [nvarchar](250) NOT NULL,&#xa; CONSTRAINT [PK_ForceOrders] PRIMARY KEY CLUSTERED &#xa;(&#xa;&#x9;[Id] ASC&#xa;)WITH (PAD_INDEX = OFF, STATISTICS_NORECOMPUTE = OFF, IGNORE_DUP_KEY = OFF, ALLOW_ROW_LOCKS = ON, ALLOW_PAGE_LOCKS = ON, OPTIMIZE_FOR_SEQUENTIAL_KEY = OFF) ON [PRIMARY]&#xa;) ON [PRIMARY]&#xa;GO&#xa;/****** Object:  Table [dbo].[ForceOrderTypes]    Script Date: 31/08/2023 8:59:05 AM ******/&#xa;SET ANSI_NULLS ON&#xa;GO&#xa;SET QUOTED_IDENTIFIER ON&#xa;GO&#xa;CREATE TABLE [dbo].[ForceOrderTypes](&#xa;&#x9;[Id] [uniqueidentifier] NOT NULL,&#xa;&#x9;[OrderType] [nvarchar](250) NOT NULL,&#xa;&#x9;[Created] [datetime2](7) NOT NULL,&#xa;&#x9;[CreatedBy] [nvarchar](250) NOT NULL,&#xa;&#x9;[LastModified] [datetime2](7) NOT NULL,&#xa;&#x9;[LastModifiedBy] [nvarchar](250) NOT NULL,&#xa; CONSTRAINT [PK_ForceOrderTypes] PRIMARY KEY CLUSTERED &#xa;(&#xa;&#x9;[Id] ASC&#xa;)WITH (PAD_INDEX = OFF, STATISTICS_NORECOMPUTE = OFF, IGNORE_DUP_KEY = OFF, ALLOW_ROW_LOCKS = ON, ALLOW_PAGE_LOCKS = ON, OPTIMIZE_FOR_SEQUENTIAL_KEY = OFF) ON [PRIMARY]&#xa;) ON [PRIMARY]&#xa;GO&#xa;/****** Object:  Table [dbo].[Keys]    Script Date: 31/08/2023 8:59:05 AM ******/&#xa;SET ANSI_NULLS ON&#xa;GO&#xa;SET QUOTED_IDENTIFIER ON&#xa;GO&#xa;CREATE TABLE [dbo].[Keys](&#xa;&#x9;[Id] [nvarchar](450) NOT NULL,&#xa;&#x9;[Version] [int] NOT NULL,&#xa;&#x9;[Created] [datetime2](7) NOT NULL,&#xa;&#x9;[Use] [nvarchar](450) NULL,&#xa;&#x9;[Algorithm] [nvarchar](100) NOT NULL,&#xa;&#x9;[IsX509Certificate] [bit] NOT NULL,&#xa;&#x9;[DataProtected] [bit] NOT NULL,&#xa;&#x9;[Data] [nvarchar](max) NOT NULL,&#xa; CONSTRAINT [PK_Keys] PRIMARY KEY CLUSTERED &#xa;(&#xa;&#x9;[Id] ASC&#xa;)WITH (PAD_INDEX = OFF, STATISTICS_NORECOMPUTE = OFF, IGNORE_DUP_KEY = OFF, ALLOW_ROW_LOCKS = ON, ALLOW_PAGE_LOCKS = ON, OPTIMIZE_FOR_SEQUENTIAL_KEY = OFF) ON [PRIMARY]&#xa;) ON [PRIMARY] TEXTIMAGE_ON [PRIMARY]&#xa;GO&#xa;/****** Object:  Table [dbo].[MaritalStatusTypes]    Script Date: 31/08/2023 8:59:05 AM ******/&#xa;SET ANSI_NULLS ON&#xa;GO&#xa;SET QUOTED_IDENTIFIER ON&#xa;GO&#xa;CREATE TABLE [dbo].[MaritalStatusTypes](&#xa;&#x9;[Id] [uniqueidentifier] NOT NULL,&#xa;&#x9;[MaritalStatus] [nvarchar](250) NOT NULL,&#xa;&#x9;[Created] [datetime2](7) NOT NULL,&#xa;&#x9;[CreatedBy] [nvarchar](250) NOT NULL,&#xa;&#x9;[LastModified] [datetime2](7) NOT NULL,&#xa;&#x9;[LastModifiedBy] [nvarchar](250) NOT NULL,&#xa; CONSTRAINT [PK_MaritalStatusTypes] PRIMARY KEY CLUSTERED &#xa;(&#xa;&#x9;[Id] ASC&#xa;)WITH (PAD_INDEX = OFF, STATISTICS_NORECOMPUTE = OFF, IGNORE_DUP_KEY = OFF, ALLOW_ROW_LOCKS = ON, ALLOW_PAGE_LOCKS = ON, OPTIMIZE_FOR_SEQUENTIAL_KEY = OFF) ON [PRIMARY]&#xa;) ON [PRIMARY]&#xa;GO&#xa;/****** Object:  Table [dbo].[MilitaryParamilitaryOrganizations]    Script Date: 31/08/2023 8:59:05 AM ******/&#xa;SET ANSI_NULLS ON&#xa;GO&#xa;SET QUOTED_IDENTIFIER ON&#xa;GO&#xa;CREATE TABLE [dbo].[MilitaryParamilitaryOrganizations](&#xa;&#x9;[Id] [uniqueidentifier] NOT NULL,&#xa;&#x9;[OrganizationName] [nvarchar](250) NOT NULL,&#xa;&#x9;[Created] [datetime2](7) NOT NULL,&#xa;&#x9;[CreatedBy] [nvarchar](250) NOT NULL,&#xa;&#x9;[LastModified] [datetime2](7) NOT NULL,&#xa;&#x9;[LastModifiedBy] [nvarchar](250) NOT NULL,&#xa; CONSTRAINT [PK_MilitaryParamilitaryOrganizations] PRIMARY KEY CLUSTERED &#xa;(&#xa;&#x9;[Id] ASC&#xa;)WITH (PAD_INDEX = OFF, STATISTICS_NORECOMPUTE = OFF, IGNORE_DUP_KEY = OFF, ALLOW_ROW_LOCKS = ON, ALLOW_PAGE_LOCKS = ON, OPTIMIZE_FOR_SEQUENTIAL_KEY = OFF) ON [PRIMARY]&#xa;) ON [PRIMARY]&#xa;GO&#xa;/****** Object:  Table [dbo].[Nationalities]    Script Date: 31/08/2023 8:59:05 AM ******/&#xa;SET ANSI_NULLS ON&#xa;GO&#xa;SET QUOTED_IDENTIFIER ON&#xa;GO&#xa;CREATE TABLE [dbo].[Nationalities](&#xa;&#x9;[Id] [uniqueidentifier] NOT NULL,&#xa;&#x9;[NationalityType] [nvarchar](250) NOT NULL,&#xa;&#x9;[Created] [datetime2](7) NOT NULL,&#xa;&#x9;[CreatedBy] [nvarchar](250) NOT NULL,&#xa;&#x9;[LastModified] [datetime2](7) NOT NULL,&#xa;&#x9;[LastModifiedBy] [nvarchar](250) NOT NULL,&#xa; CONSTRAINT [PK_Nationalities] PRIMARY KEY CLUSTERED &#xa;(&#xa;&#x9;[Id] ASC&#xa;)WITH (PAD_INDEX = OFF, STATISTICS_NORECOMPUTE = OFF, IGNORE_DUP_KEY = OFF, ALLOW_ROW_LOCKS = ON, ALLOW_PAGE_LOCKS = ON, OPTIMIZE_FOR_SEQUENTIAL_KEY = OFF) ON [PRIMARY]&#xa;) ON [PRIMARY]&#xa;GO&#xa;/****** Object:  Table [dbo].[OtherNames]    Script Date: 31/08/2023 8:59:05 AM ******/&#xa;SET ANSI_NULLS ON&#xa;GO&#xa;SET QUOTED_IDENTIFIER ON&#xa;GO&#xa;CREATE TABLE [dbo].[OtherNames](&#xa;&#x9;[Id] [uniqueidentifier] NOT NULL,&#xa;&#x9;[otherName] [nvarchar](max) NULL,&#xa;&#x9;[EmployeeId] [uniqueidentifier] NULL,&#xa;&#x9;[Created] [datetime2](7) NOT NULL,&#xa;&#x9;[CreatedBy] [nvarchar](max) NULL,&#xa;&#x9;[LastModified] [datetime2](7) NULL,&#xa;&#x9;[LastModifiedBy] [nvarchar](max) NULL,&#xa; CONSTRAINT [PK_OtherNames] PRIMARY KEY CLUSTERED &#xa;(&#xa;&#x9;[Id] ASC&#xa;)WITH (PAD_INDEX = OFF, STATISTICS_NORECOMPUTE = OFF, IGNORE_DUP_KEY = OFF, ALLOW_ROW_LOCKS = ON, ALLOW_PAGE_LOCKS = ON, OPTIMIZE_FOR_SEQUENTIAL_KEY = OFF) ON [PRIMARY]&#xa;) ON [PRIMARY] TEXTIMAGE_ON [PRIMARY]&#xa;GO&#xa;/****** Object:  Table [dbo].[PersistedGrants]    Script Date: 31/08/2023 8:59:05 AM ******/&#xa;SET ANSI_NULLS ON&#xa;GO&#xa;SET QUOTED_IDENTIFIER ON&#xa;GO&#xa;CREATE TABLE [dbo].[PersistedGrants](&#xa;&#x9;[Key] [nvarchar](200) NOT NULL,&#xa;&#x9;[Type] [nvarchar](50) NOT NULL,&#xa;&#x9;[SubjectId] [nvarchar](200) NULL,&#xa;&#x9;[SessionId] [nvarchar](100) NULL,&#xa;&#x9;[ClientId] [nvarchar](200) NOT NULL,&#xa;&#x9;[Description] [nvarchar](200) NULL,&#xa;&#x9;[CreationTime] [datetime2](7) NOT NULL,&#xa;&#x9;[Expiration] [datetime2](7) NULL,&#xa;&#x9;[ConsumedTime] [datetime2](7) NULL,&#xa;&#x9;[Data] [nvarchar](max) NOT NULL,&#xa; CONSTRAINT [PK_PersistedGrants] PRIMARY KEY CLUSTERED &#xa;(&#xa;&#x9;[Key] ASC&#xa;)WITH (PAD_INDEX = OFF, STATISTICS_NORECOMPUTE = OFF, IGNORE_DUP_KEY = OFF, ALLOW_ROW_LOCKS = ON, ALLOW_PAGE_LOCKS = ON, OPTIMIZE_FOR_SEQUENTIAL_KEY = OFF) ON [PRIMARY]&#xa;) ON [PRIMARY] TEXTIMAGE_ON [PRIMARY]&#xa;GO&#xa;/****** Object:  Table [dbo].[PromotionHistories]    Script Date: 31/08/2023 8:59:05 AM ******/&#xa;SET ANSI_NULLS ON&#xa;GO&#xa;SET QUOTED_IDENTIFIER ON&#xa;GO&#xa;CREATE TABLE [dbo].[PromotionHistories](&#xa;&#x9;[Id] [uniqueidentifier] NOT NULL,&#xa;&#x9;[PromotionHistoryDate] [datetime2](7) NOT NULL,&#xa;&#x9;[Remarks] [nvarchar](max) NULL,&#xa;&#x9;[PromotedToRankId] [uniqueidentifier] NOT NULL,&#xa;&#x9;[PromotedToRankStatusId] [uniqueidentifier] NOT NULL,&#xa;&#x9;[ForceOrderId] [uniqueidentifier] NULL,&#xa;&#x9;[EmployeeId] [uniqueidentifier] NOT NULL,&#xa;&#x9;[Created] [datetime2](7) NOT NULL,&#xa;&#x9;[CreatedBy] [nvarchar](250) NOT NULL,&#xa;&#x9;[LastModified] [datetime2](7) NOT NULL,&#xa;&#x9;[LastModifiedBy] [nvarchar](250) NOT NULL,&#xa; CONSTRAINT [PK_PromotionHistories] PRIMARY KEY CLUSTERED &#xa;(&#xa;&#x9;[Id] ASC&#xa;)WITH (PAD_INDEX = OFF, STATISTICS_NORECOMPUTE = OFF, IGNORE_DUP_KEY = OFF, ALLOW_ROW_LOCKS = ON, ALLOW_PAGE_LOCKS = ON, OPTIMIZE_FOR_SEQUENTIAL_KEY = OFF) ON [PRIMARY]&#xa;) ON [PRIMARY] TEXTIMAGE_ON [PRIMARY]&#xa;GO&#xa;/****** Object:  Table [dbo].[Races]    Script Date: 31/08/2023 8:59:05 AM ******/&#xa;SET ANSI_NULLS ON&#xa;GO&#xa;SET QUOTED_IDENTIFIER ON&#xa;GO&#xa;CREATE TABLE [dbo].[Races](&#xa;&#x9;[Id] [uniqueidentifier] NOT NULL,&#xa;&#x9;[RaceType] [nvarchar](250) NOT NULL,&#xa;&#x9;[Created] [datetime2](7) NOT NULL,&#xa;&#x9;[CreatedBy] [nvarchar](250) NOT NULL,&#xa;&#x9;[LastModified] [datetime2](7) NOT NULL,&#xa;&#x9;[LastModifiedBy] [nvarchar](250) NOT NULL,&#xa; CONSTRAINT [PK_Races] PRIMARY KEY CLUSTERED &#xa;(&#xa;&#x9;[Id] ASC&#xa;)WITH (PAD_INDEX = OFF, STATISTICS_NORECOMPUTE = OFF, IGNORE_DUP_KEY = OFF, ALLOW_ROW_LOCKS = ON, ALLOW_PAGE_LOCKS = ON, OPTIMIZE_FOR_SEQUENTIAL_KEY = OFF) ON [PRIMARY]&#xa;) ON [PRIMARY]&#xa;GO&#xa;/****** Object:  Table [dbo].[Ranks]    Script Date: 31/08/2023 8:59:05 AM ******/&#xa;SET ANSI_NULLS ON&#xa;GO&#xa;SET QUOTED_IDENTIFIER ON&#xa;GO&#xa;CREATE TABLE [dbo].[Ranks](&#xa;&#x9;[Id] [uniqueidentifier] NOT NULL,&#xa;&#x9;[RankName] [nvarchar](200) NOT NULL,&#xa;&#x9;[RankFullName] [nvarchar](200) NOT NULL,&#xa;&#x9;[RankOrder] [int] NOT NULL,&#xa;&#x9;[RetirementAge] [int] NOT NULL,&#xa;&#x9;[Created] [datetime2](7) NOT NULL,&#xa;&#x9;[CreatedBy] [nvarchar](250) NOT NULL,&#xa;&#x9;[LastModified] [datetime2](7) NOT NULL,&#xa;&#x9;[LastModifiedBy] [nvarchar](250) NOT NULL,&#xa; CONSTRAINT [PK_Ranks] PRIMARY KEY CLUSTERED &#xa;(&#xa;&#x9;[Id] ASC&#xa;)WITH (PAD_INDEX = OFF, STATISTICS_NORECOMPUTE = OFF, IGNORE_DUP_KEY = OFF, ALLOW_ROW_LOCKS = ON, ALLOW_PAGE_LOCKS = ON, OPTIMIZE_FOR_SEQUENTIAL_KEY = OFF) ON [PRIMARY]&#xa;) ON [PRIMARY]&#xa;GO&#xa;/****** Object:  Table [dbo].[RankStatuses]    Script Date: 31/08/2023 8:59:05 AM ******/&#xa;SET ANSI_NULLS ON&#xa;GO&#xa;SET QUOTED_IDENTIFIER ON&#xa;GO&#xa;CREATE TABLE [dbo].[RankStatuses](&#xa;&#x9;[Id] [uniqueidentifier] NOT NULL,&#xa;&#x9;[Status] [nvarchar](200) NOT NULL,&#xa;&#x9;[StatusName] [nvarchar](200) NOT NULL,&#xa;&#x9;[RankStatusOrder] [int] NOT NULL,&#xa;&#x9;[Created] [datetime2](7) NOT NULL,&#xa;&#x9;[CreatedBy] [nvarchar](250) NOT NULL,&#xa;&#x9;[LastModified] [datetime2](7) NOT NULL,&#xa;&#x9;[LastModifiedBy] [nvarchar](250) NOT NULL,&#xa; CONSTRAINT [PK_RankStatuses] PRIMARY KEY CLUSTERED &#xa;(&#xa;&#x9;[Id] ASC&#xa;)WITH (PAD_INDEX = OFF, STATISTICS_NORECOMPUTE = OFF, IGNORE_DUP_KEY = OFF, ALLOW_ROW_LOCKS = ON, ALLOW_PAGE_LOCKS = ON, OPTIMIZE_FOR_SEQUENTIAL_KEY = OFF) ON [PRIMARY]&#xa;) ON [PRIMARY]&#xa;GO&#xa;/****** Object:  Table [dbo].[RegimentalNumbers]    Script Date: 31/08/2023 8:59:05 AM ******/&#xa;SET ANSI_NULLS ON&#xa;GO&#xa;SET QUOTED_IDENTIFIER ON&#xa;GO&#xa;CREATE TABLE [dbo].[RegimentalNumbers](&#xa;&#x9;[Id] [uniqueidentifier] NOT NULL,&#xa;&#x9;[EmpRegimentalNumber] [nvarchar](250) NOT NULL,&#xa;&#x9;[DateIssued] [datetime2](7) NULL,&#xa;&#x9;[IsActive] [bit] NULL,&#xa;&#x9;[EmployeeId] [uniqueidentifier] NOT NULL,&#xa;&#x9;[Created] [datetime2](7) NOT NULL,&#xa;&#x9;[CreatedBy] [nvarchar](250) NOT NULL,&#xa;&#x9;[LastModified] [datetime2](7) NOT NULL,&#xa;&#x9;[LastModifiedBy] [nvarchar](250) NOT NULL,&#xa; CONSTRAINT [PK_RegimentalNumbers] PRIMARY KEY CLUSTERED &#xa;(&#xa;&#x9;[Id] ASC&#xa;)WITH (PAD_INDEX = OFF, STATISTICS_NORECOMPUTE = OFF, IGNORE_DUP_KEY = OFF, ALLOW_ROW_LOCKS = ON, ALLOW_PAGE_LOCKS = ON, OPTIMIZE_FOR_SEQUENTIAL_KEY = OFF) ON [PRIMARY]&#xa;) ON [PRIMARY]&#xa;GO&#xa;/****** Object:  Table [dbo].[Regions]    Script Date: 31/08/2023 8:59:05 AM ******/&#xa;SET ANSI_NULLS ON&#xa;GO&#xa;SET QUOTED_IDENTIFIER ON&#xa;GO&#xa;CREATE TABLE [dbo].[Regions](&#xa;&#x9;[Id] [uniqueidentifier] NOT NULL,&#xa;&#x9;[RegionType] [nvarchar](250) NOT NULL,&#xa;&#x9;[RegionNumber] [int] NOT NULL,&#xa;&#x9;[Created] [datetime2](7) NOT NULL,&#xa;&#x9;[CreatedBy] [nvarchar](250) NOT NULL,&#xa;&#x9;[LastModified] [datetime2](7) NOT NULL,&#xa;&#x9;[LastModifiedBy] [nvarchar](250) NOT NULL,&#xa; CONSTRAINT [PK_Regions] PRIMARY KEY CLUSTERED &#xa;(&#xa;&#x9;[Id] ASC&#xa;)WITH (PAD_INDEX = OFF, STATISTICS_NORECOMPUTE = OFF, IGNORE_DUP_KEY = OFF, ALLOW_ROW_LOCKS = ON, ALLOW_PAGE_LOCKS = ON, OPTIMIZE_FOR_SEQUENTIAL_KEY = OFF) ON [PRIMARY]&#xa;) ON [PRIMARY]&#xa;GO&#xa;/****** Object:  Table [dbo].[Relationships]    Script Date: 31/08/2023 8:59:05 AM ******/&#xa;SET ANSI_NULLS ON&#xa;GO&#xa;SET QUOTED_IDENTIFIER ON&#xa;GO&#xa;CREATE TABLE [dbo].[Relationships](&#xa;&#x9;[Id] [uniqueidentifier] NOT NULL,&#xa;&#x9;[RelationshipType] [nvarchar](250) NOT NULL,&#xa;&#x9;[Created] [datetime2](7) NOT NULL,&#xa;&#x9;[CreatedBy] [nvarchar](250) NOT NULL,&#xa;&#x9;[LastModified] [datetime2](7) NOT NULL,&#xa;&#x9;[LastModifiedBy] [nvarchar](250) NOT NULL,&#xa; CONSTRAINT [PK_Relationships] PRIMARY KEY CLUSTERED &#xa;(&#xa;&#x9;[Id] ASC&#xa;)WITH (PAD_INDEX = OFF, STATISTICS_NORECOMPUTE = OFF, IGNORE_DUP_KEY = OFF, ALLOW_ROW_LOCKS = ON, ALLOW_PAGE_LOCKS = ON, OPTIMIZE_FOR_SEQUENTIAL_KEY = OFF) ON [PRIMARY]&#xa;) ON [PRIMARY]&#xa;GO&#xa;/****** Object:  Table [dbo].[Religions]    Script Date: 31/08/2023 8:59:05 AM ******/&#xa;SET ANSI_NULLS ON&#xa;GO&#xa;SET QUOTED_IDENTIFIER ON&#xa;GO&#xa;CREATE TABLE [dbo].[Religions](&#xa;&#x9;[Id] [uniqueidentifier] NOT NULL,&#xa;&#x9;[ReligionType] [nvarchar](250) NOT NULL,&#xa;&#x9;[Created] [datetime2](7) NOT NULL,&#xa;&#x9;[CreatedBy] [nvarchar](250) NOT NULL,&#xa;&#x9;[LastModified] [datetime2](7) NOT NULL,&#xa;&#x9;[LastModifiedBy] [nvarchar](250) NOT NULL,&#xa; CONSTRAINT [PK_Religions] PRIMARY KEY CLUSTERED &#xa;(&#xa;&#x9;[Id] ASC&#xa;)WITH (PAD_INDEX = OFF, STATISTICS_NORECOMPUTE = OFF, IGNORE_DUP_KEY = OFF, ALLOW_ROW_LOCKS = ON, ALLOW_PAGE_LOCKS = ON, OPTIMIZE_FOR_SEQUENTIAL_KEY = OFF) ON [PRIMARY]&#xa;) ON [PRIMARY]&#xa;GO&#xa;/****** Object:  Table [dbo].[Sexes]    Script Date: 31/08/2023 8:59:05 AM ******/&#xa;SET ANSI_NULLS ON&#xa;GO&#xa;SET QUOTED_IDENTIFIER ON&#xa;GO&#xa;CREATE TABLE [dbo].[Sexes](&#xa;&#x9;[Id] [uniqueidentifier] NOT NULL,&#xa;&#x9;[SexType] [nvarchar](250) NOT NULL,&#xa;&#x9;[Created] [datetime2](7) NOT NULL,&#xa;&#x9;[CreatedBy] [nvarchar](250) NOT NULL,&#xa;&#x9;[LastModified] [datetime2](7) NOT NULL,&#xa;&#x9;[LastModifiedBy] [nvarchar](250) NOT NULL,&#xa; CONSTRAINT [PK_Sexes] PRIMARY KEY CLUSTERED &#xa;(&#xa;&#x9;[Id] ASC&#xa;)WITH (PAD_INDEX = OFF, STATISTICS_NORECOMPUTE = OFF, IGNORE_DUP_KEY = OFF, ALLOW_ROW_LOCKS = ON, ALLOW_PAGE_LOCKS = ON, OPTIMIZE_FOR_SEQUENTIAL_KEY = OFF) ON [PRIMARY]&#xa;) ON [PRIMARY]&#xa;GO&#xa;/****** Object:  Table [dbo].[Titles]    Script Date: 31/08/2023 8:59:05 AM ******/&#xa;SET ANSI_NULLS ON&#xa;GO&#xa;SET QUOTED_IDENTIFIER ON&#xa;GO&#xa;CREATE TABLE [dbo].[Titles](&#xa;&#x9;[Id] [uniqueidentifier] NOT NULL,&#xa;&#x9;[TitleType] [nvarchar](250) NOT NULL,&#xa;&#x9;[Created] [datetime2](7) NOT NULL,&#xa;&#x9;[CreatedBy] [nvarchar](250) NOT NULL,&#xa;&#x9;[LastModified] [datetime2](7) NOT NULL,&#xa;&#x9;[LastModifiedBy] [nvarchar](250) NOT NULL,&#xa; CONSTRAINT [PK_Titles] PRIMARY KEY CLUSTERED &#xa;(&#xa;&#x9;[Id] ASC&#xa;)WITH (PAD_INDEX = OFF, STATISTICS_NORECOMPUTE = OFF, IGNORE_DUP_KEY = OFF, ALLOW_ROW_LOCKS = ON, ALLOW_PAGE_LOCKS = ON, OPTIMIZE_FOR_SEQUENTIAL_KEY = OFF) ON [PRIMARY]&#xa;) ON [PRIMARY]&#xa;GO&#xa;/****** Object:  Table [dbo].[Units]    Script Date: 31/08/2023 8:59:05 AM ******/&#xa;SET ANSI_NULLS ON&#xa;GO&#xa;SET QUOTED_IDENTIFIER ON&#xa;GO&#xa;CREATE TABLE [dbo].[Units](&#xa;&#x9;[Id] [uniqueidentifier] NOT NULL,&#xa;&#x9;[UnitName] [nvarchar](200) NOT NULL,&#xa;&#x9;[UnitAbbreviation] [nvarchar](200) NOT NULL,&#xa;&#x9;[Created] [datetime2](7) NOT NULL,&#xa;&#x9;[CreatedBy] [nvarchar](250) NOT NULL,&#xa;&#x9;[LastModified] [datetime2](7) NOT NULL,&#xa;&#x9;[LastModifiedBy] [nvarchar](250) NOT NULL,&#xa; CONSTRAINT [PK_Units] PRIMARY KEY CLUSTERED &#xa;(&#xa;&#x9;[Id] ASC&#xa;)WITH (PAD_INDEX = OFF, STATISTICS_NORECOMPUTE = OFF, IGNORE_DUP_KEY = OFF, ALLOW_ROW_LOCKS = ON, ALLOW_PAGE_LOCKS = ON, OPTIMIZE_FOR_SEQUENTIAL_KEY = OFF) ON [PRIMARY]&#xa;) ON [PRIMARY]&#xa;GO&#xa;INSERT [dbo].[__EFMigrationsHistory] ([MigrationId], [ProductVersion]) VALUES (N&#39;20230615135500_firstdb5&#39;, N&#39;6.0.8&#39;)&#xa;INSERT [dbo].[__EFMigrationsHistory] ([MigrationId], [ProductVersion]) VALUES (N&#39;20230623020916_testaddress&#39;, N&#39;6.0.8&#39;)&#xa;INSERT [dbo].[__EFMigrationsHistory] ([MigrationId], [ProductVersion]) VALUES (N&#39;20230623180652_Hemstuff&#39;, N&#39;6.0.8&#39;)&#xa;INSERT [dbo].[__EFMigrationsHistory] ([MigrationId], [ProductVersion]) VALUES (N&#39;20230627164819_shomari&#39;, N&#39;6.0.8&#39;)&#xa;INSERT [dbo].[__EFMigrationsHistory] ([MigrationId], [ProductVersion]) VALUES (N&#39;20230703201959_test&#39;, N&#39;6.0.8&#39;)&#xa;INSERT [dbo].[__EFMigrationsHistory] ([MigrationId], [ProductVersion]) VALUES (N&#39;20230704025433_addCounty&#39;, N&#39;6.0.8&#39;)&#xa;INSERT [dbo].[__EFMigrationsHistory] ([MigrationId], [ProductVersion]) VALUES (N&#39;20230704152036_shomaripush&#39;, N&#39;6.0.8&#39;)&#xa;INSERT [dbo].[__EFMigrationsHistory] ([MigrationId], [ProductVersion]) VALUES (N&#39;20230704201012_hemroyStuff&#39;, N&#39;6.0.8&#39;)&#xa;INSERT [dbo].[__EFMigrationsHistory] ([MigrationId], [ProductVersion]) VALUES (N&#39;20230705200434_hemroy&#39;, N&#39;6.0.8&#39;)&#xa;INSERT [dbo].[__EFMigrationsHistory] ([MigrationId], [ProductVersion]) VALUES (N&#39;20230705210248_newDbMigration&#39;, N&#39;6.0.8&#39;)&#xa;INSERT [dbo].[__EFMigrationsHistory] ([MigrationId], [ProductVersion]) VALUES (N&#39;20230705210846_newDbMigrationV3&#39;, N&#39;6.0.8&#39;)&#xa;INSERT [dbo].[__EFMigrationsHistory] ([MigrationId], [ProductVersion]) VALUES (N&#39;20230705213602_newDbMigration&#39;, N&#39;6.0.8&#39;)&#xa;INSERT [dbo].[__EFMigrationsHistory] ([MigrationId], [ProductVersion]) VALUES (N&#39;20230706113559_shomaripush3&#39;, N&#39;6.0.8&#39;)&#xa;INSERT [dbo].[__EFMigrationsHistory] ([MigrationId], [ProductVersion]) VALUES (N&#39;20230711150224_unittable&#39;, N&#39;6.0.8&#39;)&#xa;INSERT [dbo].[__EFMigrationsHistory] ([MigrationId], [ProductVersion]) VALUES (N&#39;20230714155738_shomariagain&#39;, N&#39;6.0.8&#39;)&#xa;INSERT [dbo].[__EFMigrationsHistory] ([MigrationId], [ProductVersion]) VALUES (N&#39;20230719221543_fourTables&#39;, N&#39;6.0.8&#39;)&#xa;INSERT [dbo].[__EFMigrationsHistory] ([MigrationId], [ProductVersion]) VALUES (N&#39;20230720020444_fourTableUpdate&#39;, N&#39;6.0.8&#39;)&#xa;INSERT [dbo].[__EFMigrationsHistory] ([MigrationId], [ProductVersion]) VALUES (N&#39;20230725151130_PH&#39;, N&#39;6.0.8&#39;)&#xa;INSERT [dbo].[__EFMigrationsHistory] ([MigrationId], [ProductVersion]) VALUES (N&#39;20230730200940_promotionfix&#39;, N&#39;6.0.8&#39;)&#xa;INSERT [dbo].[__EFMigrationsHistory] ([MigrationId], [ProductVersion]) VALUES (N&#39;20230730205306_jasonHelped&#39;, N&#39;6.0.8&#39;)&#xa;INSERT [dbo].[__EFMigrationsHistory] ([MigrationId], [ProductVersion]) VALUES (N&#39;20230731141252_new-migration-july&#39;, N&#39;6.0.8&#39;)&#xa;INSERT [dbo].[__EFMigrationsHistory] ([MigrationId], [ProductVersion]) VALUES (N&#39;20230731141949_new-migration-31-07-23&#39;, N&#39;6.0.8&#39;)&#xa;INSERT [dbo].[__EFMigrationsHistory] ([MigrationId], [ProductVersion]) VALUES (N&#39;20230808125455_reltable&#39;, N&#39;6.0.8&#39;)&#xa;INSERT [dbo].[__EFMigrationsHistory] ([MigrationId], [ProductVersion]) VALUES (N&#39;20230808132001_milParamilOrg&#39;, N&#39;6.0.8&#39;)&#xa;INSERT [dbo].[__EFMigrationsHistory] ([MigrationId], [ProductVersion]) VALUES (N&#39;20230808133406_new-migration-August-8&#39;, N&#39;6.0.8&#39;)&#xa;INSERT [dbo].[__EFMigrationsHistory] ([MigrationId], [ProductVersion]) VALUES (N&#39;20230808144822_family&#39;, N&#39;6.0.8&#39;)&#xa;INSERT [dbo].[__EFMigrationsHistory] ([MigrationId], [ProductVersion]) VALUES (N&#39;20230808145951_aug8&#39;, N&#39;6.0.8&#39;)&#xa;INSERT [dbo].[__EFMigrationsHistory] ([MigrationId], [ProductVersion]) VALUES (N&#39;20230808164847_famAddre&#39;, N&#39;6.0.8&#39;)&#xa;INSERT [dbo].[__EFMigrationsHistory] ([MigrationId], [ProductVersion]) VALUES (N&#39;20230808173024_aug8-familyaddress&#39;, N&#39;6.0.8&#39;)&#xa;GO&#xa;INSERT [dbo].[AppointmentStatuses] ([Id], [Status], [StatusName], [Created], [CreatedBy], [LastModified], [LastModifiedBy]) VALUES (N&#39;4bbf3d79-817c-4494-05d1-08db8d7cdca6&#39;, N&#39;Sub&#39;, N&#39;Substantive&#39;, CAST(N&#39;2023-07-25T22:06:02.5749090&#39; AS DateTime2), N&#39;Test user&#39;, CAST(N&#39;2023-07-25T22:06:02.5754608&#39; AS DateTime2), N&#39;Test user&#39;)&#xa;INSERT [dbo].[AppointmentStatuses] ([Id], [Status], [StatusName], [Created], [CreatedBy], [LastModified], [LastModifiedBy]) VALUES (N&#39;e8028424-3460-4b78-05d2-08db8d7cdca6&#39;, N&#39;Ag&#39;, N&#39;Acting&#39;, CAST(N&#39;2023-07-25T22:06:18.1663036&#39; AS DateTime2), N&#39;Test user&#39;, CAST(N&#39;2023-07-25T22:06:18.1663060&#39; AS DateTime2), N&#39;Test user&#39;)&#xa;GO&#xa;INSERT [dbo].[AspNetRoles] ([Id], [Name], [NormalizedName], [ConcurrencyStamp]) VALUES (N&#39;d9e073dd-7482-4f5a-a424-ba30bc2395c9&#39;, N&#39;Administrator&#39;, N&#39;ADMINISTRATOR&#39;, N&#39;61043a37-91f9-4494-bb8b-04c227af6a12&#39;)&#xa;GO&#xa;INSERT [dbo].[AspNetUserRoles] ([UserId], [RoleId]) VALUES (N&#39;77bd58be-1043-4be9-a21d-f6f7d17418b5&#39;, N&#39;d9e073dd-7482-4f5a-a424-ba30bc2395c9&#39;)&#xa;GO&#xa;INSERT [dbo].[AspNetUsers] ([Id], [UserName], [NormalizedUserName], [Email], [NormalizedEmail], [EmailConfirmed], [PasswordHash], [SecurityStamp], [ConcurrencyStamp], [PhoneNumber], [PhoneNumberConfirmed], [TwoFactorEnabled], [LockoutEnd], [LockoutEnabled], [AccessFailedCount]) VALUES (N&#39;77bd58be-1043-4be9-a21d-f6f7d17418b5&#39;, N&#39;administrator@localhost&#39;, N&#39;ADMINISTRATOR@LOCALHOST&#39;, N&#39;administrator@localhost&#39;, N&#39;ADMINISTRATOR@LOCALHOST&#39;, 0, N&#39;AQAAAAEAACcQAAAAENfOt2qOQLHvnI4JKCzGTBFIR/HtHMPyret7t5Vx2onAkHSmb3aGVjdemqi11gMz8A==&#39;, N&#39;QBEXPPDVPECYK2HHKDTYUD3GCYHC7Z6S&#39;, N&#39;1df0ae2a-7c88-4844-b3e7-dc844d5a0b07&#39;, NULL, 0, 0, NULL, 1, 0)&#xa;GO&#xa;INSERT [dbo].[Counties] ([Id], [CountyType], [Created], [CreatedBy], [LastModified], [LastModifiedBy]) VALUES (N&#39;00bd9bb0-0541-4adb-9cd2-08db7dab14fc&#39;, N&#39;Demerara&#39;, CAST(N&#39;2023-07-05T18:56:34.8855598&#39; AS DateTime2), N&#39;Test user&#39;, CAST(N&#39;2023-07-05T18:56:34.8855624&#39; AS DateTime2), N&#39;Test user&#39;)&#xa;INSERT [dbo].[Counties] ([Id], [CountyType], [Created], [CreatedBy], [LastModified], [LastModifiedBy]) VALUES (N&#39;4edfef84-bec6-48cc-9cd3-08db7dab14fc&#39;, N&#39;Essequibo&#39;, CAST(N&#39;2023-07-05T18:56:47.7939876&#39; AS DateTime2), N&#39;Test user&#39;, CAST(N&#39;2023-07-05T18:56:47.7939893&#39; AS DateTime2), N&#39;Test user&#39;)&#xa;INSERT [dbo].[Counties] ([Id], [CountyType], [Created], [CreatedBy], [LastModified], [LastModifiedBy]) VALUES (N&#39;8814f732-ae57-47f7-9cd4-08db7dab14fc&#39;, N&#39;Berbice&#39;, CAST(N&#39;2023-07-05T18:56:59.7793698&#39; AS DateTime2), N&#39;Test user&#39;, CAST(N&#39;2023-07-05T18:56:59.7793716&#39; AS DateTime2), N&#39;Test user&#39;)&#xa;GO&#xa;INSERT [dbo].[Countries] ([Id], [CountryType], [Created], [CreatedBy], [LastModified], [LastModifiedBy]) VALUES (N&#39;d24f6310-3395-4c74-8db5-08db7daa7080&#39;, N&#39;Guyana&#39;, CAST(N&#39;2023-07-05T18:51:58.9669686&#39; AS DateTime2), N&#39;Test user&#39;, CAST(N&#39;2023-07-05T18:51:58.9669709&#39; AS DateTime2), N&#39;Test user&#39;)&#xa;INSERT [dbo].[Countries] ([Id], [CountryType], [Created], [CreatedBy], [LastModified], [LastModifiedBy]) VALUES (N&#39;813e6bec-51dc-44f5-8db6-08db7daa7080&#39;, N&#39;Suriname&#39;, CAST(N&#39;2023-07-05T18:52:11.7442072&#39; AS DateTime2), N&#39;Test user&#39;, CAST(N&#39;2023-07-05T18:52:11.7442092&#39; AS DateTime2), N&#39;Test user&#39;)&#xa;INSERT [dbo].[Countries] ([Id], [CountryType], [Created], [CreatedBy], [LastModified], [LastModifiedBy]) VALUES (N&#39;aeb8c0af-f0e5-4244-8db7-08db7daa7080&#39;, N&#39;Trinidad &amp; Tobago&#39;, CAST(N&#39;2023-07-05T18:52:34.7559613&#39; AS DateTime2), N&#39;Test user&#39;, CAST(N&#39;2023-07-05T18:52:34.7559629&#39; AS DateTime2), N&#39;Test user&#39;)&#xa;INSERT [dbo].[Countries] ([Id], [CountryType], [Created], [CreatedBy], [LastModified], [LastModifiedBy]) VALUES (N&#39;14522ae7-5788-4451-8db8-08db7daa7080&#39;, N&#39;Barbados&#39;, CAST(N&#39;2023-07-05T18:52:51.6065708&#39; AS DateTime2), N&#39;Test user&#39;, CAST(N&#39;2023-07-05T18:52:51.6065723&#39; AS DateTime2), N&#39;Test user&#39;)&#xa;INSERT [dbo].[Countries] ([Id], [CountryType], [Created], [CreatedBy], [LastModified], [LastModifiedBy]) VALUES (N&#39;acd12161-5d3f-49df-8db9-08db7daa7080&#39;, N&#39;Jamaica&#39;, CAST(N&#39;2023-07-05T18:52:59.6620410&#39; AS DateTime2), N&#39;Test user&#39;, CAST(N&#39;2023-07-05T18:52:59.6620427&#39; AS DateTime2), N&#39;Test user&#39;)&#xa;INSERT [dbo].[Countries] ([Id], [CountryType], [Created], [CreatedBy], [LastModified], [LastModifiedBy]) VALUES (N&#39;5aa30534-0fc7-482b-8dba-08db7daa7080&#39;, N&#39;Brazil&#39;, CAST(N&#39;2023-07-05T18:53:06.8999299&#39; AS DateTime2), N&#39;Test user&#39;, CAST(N&#39;2023-07-05T18:53:06.8999429&#39; AS DateTime2), N&#39;Test user&#39;)&#xa;GO&#xa;INSERT [dbo].[EmployeeAddresses] ([Id], [Lot], [Street], [Area], [Town], [CountryId], [RegionId], [EmployeeId], [Created], [CreatedBy], [LastModified], [LastModifiedBy], [CountyId]) VALUES (N&#39;dc7544ab-9e73-4144-6c6d-08db7db1b0ed&#39;, N&#39;237&#39;, N&#39;Danrade&#39;, N&#39;Newtown Kitty&#39;, N&#39;Georgetown&#39;, N&#39;d24f6310-3395-4c74-8db5-08db7daa7080&#39;, N&#39;3d5fdde0-3c29-47b3-d337-08db7dbb02f3&#39;, N&#39;69bfec09-e4de-46f1-0f02-08db7dadc954&#39;, CAST(N&#39;2023-07-05T19:43:53.8165821&#39; AS DateTime2), N&#39;Test user&#39;, CAST(N&#39;2023-07-05T19:43:53.8165856&#39; AS DateTime2), N&#39;Test user&#39;, N&#39;00bd9bb0-0541-4adb-9cd2-08db7dab14fc&#39;)&#xa;INSERT [dbo].[EmployeeAddresses] ([Id], [Lot], [Street], [Area], [Town], [CountryId], [RegionId], [EmployeeId], [Created], [CreatedBy], [LastModified], [LastModifiedBy], [CountyId]) VALUES (N&#39;3bb33679-37c1-43ff-6c6e-08db7db1b0ed&#39;, N&#39;157&#39;, N&#39;Sunflower Circle&#39;, N&#39;South Ruimveldt Park&#39;, N&#39;Georgetown&#39;, N&#39;d24f6310-3395-4c74-8db5-08db7daa7080&#39;, N&#39;3d5fdde0-3c29-47b3-d337-08db7dbb02f3&#39;, N&#39;e3bc802f-5f88-4bd3-0f03-08db7dadc954&#39;, CAST(N&#39;2023-07-05T19:45:56.6310912&#39; AS DateTime2), N&#39;Test user&#39;, CAST(N&#39;2023-07-05T19:45:56.6310935&#39; AS DateTime2), N&#39;Test user&#39;, N&#39;00bd9bb0-0541-4adb-9cd2-08db7dab14fc&#39;)&#xa;INSERT [dbo].[EmployeeAddresses] ([Id], [Lot], [Street], [Area], [Town], [CountryId], [RegionId], [EmployeeId], [Created], [CreatedBy], [LastModified], [LastModifiedBy], [CountyId]) VALUES (N&#39;154e0fb7-a1e3-4d97-6c6f-08db7db1b0ed&#39;, N&#39;348&#39;, N&#39;Cow Dam&#39;, N&#39;Unity&#39;, N&#39;Mahaica&#39;, N&#39;d24f6310-3395-4c74-8db5-08db7daa7080&#39;, N&#39;c565da81-3cd3-470c-d338-08db7dbb02f3&#39;, N&#39;e22f87de-1aab-4ca6-0f04-08db7dadc954&#39;, CAST(N&#39;2023-07-05T19:47:27.6408824&#39; AS DateTime2), N&#39;Test user&#39;, CAST(N&#39;2023-07-05T19:47:27.6408853&#39; AS DateTime2), N&#39;Test user&#39;, N&#39;8814f732-ae57-47f7-9cd4-08db7dab14fc&#39;)&#xa;INSERT [dbo].[EmployeeAddresses] ([Id], [Lot], [Street], [Area], [Town], [CountryId], [RegionId], [EmployeeId], [Created], [CreatedBy], [LastModified], [LastModifiedBy], [CountyId]) VALUES (N&#39;092bb9da-4f64-4acc-6c70-08db7db1b0ed&#39;, N&#39;572&#39;, N&#39;Hill Road&#39;, N&#39;Wismar&#39;, N&#39;Linden&#39;, N&#39;d24f6310-3395-4c74-8db5-08db7daa7080&#39;, N&#39;de3723af-753c-4e01-d33d-08db7dbb02f3&#39;, N&#39;280aa0c0-2151-49ae-0f05-08db7dadc954&#39;, CAST(N&#39;2023-07-05T19:48:53.4702241&#39; AS DateTime2), N&#39;Test user&#39;, CAST(N&#39;2023-07-05T19:48:53.4702265&#39; AS DateTime2), N&#39;Test user&#39;, N&#39;00bd9bb0-0541-4adb-9cd2-08db7dab14fc&#39;)&#xa;INSERT [dbo].[EmployeeAddresses] ([Id], [Lot], [Street], [Area], [Town], [CountryId], [RegionId], [EmployeeId], [Created], [CreatedBy], [LastModified], [LastModifiedBy], [CountyId]) VALUES (N&#39;7c2e8b29-ffee-4599-e92e-08db82d6e86c&#39;, N&#39;999&#39;, N&#39;calle&#39;, N&#39;Perimeter&#39;, N&#39;rtwaxc&#39;, N&#39;d24f6310-3395-4c74-8db5-08db7daa7080&#39;, N&#39;4f6690c8-4822-4ce9-d339-08db7dbb02f3&#39;, N&#39;280aa0c0-2151-49ae-0f05-08db7dadc954&#39;, CAST(N&#39;2023-07-12T08:59:42.2646224&#39; AS DateTime2), N&#39;Test user&#39;, CAST(N&#39;2023-07-13T10:03:01.5884807&#39; AS DateTime2), N&#39;Test user&#39;, N&#39;8814f732-ae57-47f7-9cd4-08db7dab14fc&#39;)&#xa;INSERT [dbo].[EmployeeAddresses] ([Id], [Lot], [Street], [Area], [Town], [CountryId], [RegionId], [EmployeeId], [Created], [CreatedBy], [LastModified], [LastModifiedBy], [CountyId]) VALUES (N&#39;6e82b28a-fa3c-404a-bc5e-08db839bfe67&#39;, N&#39;500&#39;, N&#39;ghj&#39;, N&#39;jgh&#39;, N&#39;fgh&#39;, N&#39;d24f6310-3395-4c74-8db5-08db7daa7080&#39;, N&#39;3d5fdde0-3c29-47b3-d337-08db7dbb02f3&#39;, N&#39;280aa0c0-2151-49ae-0f05-08db7dadc954&#39;, CAST(N&#39;2023-07-13T08:23:42.1235479&#39; AS DateTime2), N&#39;Test user&#39;, CAST(N&#39;2023-07-13T16:17:45.3564716&#39; AS DateTime2), N&#39;Test user&#39;, N&#39;00bd9bb0-0541-4adb-9cd2-08db7dab14fc&#39;)&#xa;INSERT [dbo].[EmployeeAddresses] ([Id], [Lot], [Street], [Area], [Town], [CountryId], [RegionId], [EmployeeId], [Created], [CreatedBy], [LastModified], [LastModifiedBy], [CountyId]) VALUES (N&#39;5faf969a-d094-433f-8fc5-08db83aa97ac&#39;, N&#39;555&#39;, N&#39;fgh&#39;, N&#39;fgh&#39;, N&#39;fgh&#39;, N&#39;d24f6310-3395-4c74-8db5-08db7daa7080&#39;, N&#39;c565da81-3cd3-470c-d338-08db7dbb02f3&#39;, N&#39;280aa0c0-2151-49ae-0f05-08db7dadc954&#39;, CAST(N&#39;2023-07-13T10:08:11.6855948&#39; AS DateTime2), N&#39;Test user&#39;, CAST(N&#39;2023-07-13T16:13:45.3348889&#39; AS DateTime2), N&#39;Test user&#39;, N&#39;8814f732-ae57-47f7-9cd4-08db7dab14fc&#39;)&#xa;INSERT [dbo].[EmployeeAddresses] ([Id], [Lot], [Street], [Area], [Town], [CountryId], [RegionId], [EmployeeId], [Created], [CreatedBy], [LastModified], [LastModifiedBy], [CountyId]) VALUES (N&#39;8b6f2544-80d9-4e95-92ce-08db97ac9866&#39;, N&#39;823&#39;, N&#39;street&#39;, N&#39;area&#39;, N&#39;town&#39;, N&#39;d24f6310-3395-4c74-8db5-08db7daa7080&#39;, N&#39;75f7920b-de11-4fcb-d336-08db7dbb02f3&#39;, N&#39;8c0a6177-9248-468c-9553-08db97a1403b&#39;, CAST(N&#39;2023-08-07T21:12:55.1113112&#39; AS DateTime2), N&#39;Test user&#39;, CAST(N&#39;2023-08-07T21:12:55.1113133&#39; AS DateTime2), N&#39;Test user&#39;, N&#39;4edfef84-bec6-48cc-9cd3-08db7dab14fc&#39;)&#xa;INSERT [dbo].[EmployeeAddresses] ([Id], [Lot], [Street], [Area], [Town], [CountryId], [RegionId], [EmployeeId], [Created], [CreatedBy], [LastModified], [LastModifiedBy], [CountyId]) VALUES (N&#39;beee3804-cd69-47ee-92cf-08db97ac9866&#39;, N&#39;100&#39;, N&#39;street&#39;, N&#39;area&#39;, N&#39;town&#39;, N&#39;d24f6310-3395-4c74-8db5-08db7daa7080&#39;, N&#39;4f6690c8-4822-4ce9-d339-08db7dbb02f3&#39;, N&#39;5278cb09-17e8-400b-9554-08db97a1403b&#39;, CAST(N&#39;2023-08-07T21:44:10.9780510&#39; AS DateTime2), N&#39;Test user&#39;, CAST(N&#39;2023-08-07T21:44:10.9780532&#39; AS DateTime2), N&#39;Test user&#39;, N&#39;8814f732-ae57-47f7-9cd4-08db7dab14fc&#39;)&#xa;INSERT [dbo].[EmployeeAddresses] ([Id], [Lot], [Street], [Area], [Town], [CountryId], [RegionId], [EmployeeId], [Created], [CreatedBy], [LastModified], [LastModifiedBy], [CountyId]) VALUES (N&#39;14252333-6d7e-4366-92d0-08db97ac9866&#39;, N&#39;489&#39;, N&#39;street&#39;, N&#39;area&#39;, N&#39;town&#39;, N&#39;d24f6310-3395-4c74-8db5-08db7daa7080&#39;, N&#39;3d5fdde0-3c29-47b3-d337-08db7dbb02f3&#39;, N&#39;123086f5-e5cd-4710-9555-08db97a1403b&#39;, CAST(N&#39;2023-08-07T22:00:42.4315144&#39; AS DateTime2), N&#39;Test user&#39;, CAST(N&#39;2023-08-07T22:00:42.4315163&#39; AS DateTime2), N&#39;Test user&#39;, N&#39;00bd9bb0-0541-4adb-9cd2-08db7dab14fc&#39;)&#xa;INSERT [dbo].[EmployeeAddresses] ([Id], [Lot], [Street], [Area], [Town], [CountryId], [RegionId], [EmployeeId], [Created], [CreatedBy], [LastModified], [LastModifiedBy], [CountyId]) VALUES (N&#39;d4c4e3a7-03ec-4efa-e2ea-08db9a883b76&#39;, N&#39;100&#39;, N&#39;street&#39;, N&#39;area&#39;, N&#39;town&#39;, N&#39;d24f6310-3395-4c74-8db5-08db7daa7080&#39;, N&#39;3d5fdde0-3c29-47b3-d337-08db7dbb02f3&#39;, N&#39;7db65d03-eb49-41e9-a8cd-08db9a8839d3&#39;, CAST(N&#39;2023-08-11T12:30:10.9612561&#39; AS DateTime2), N&#39;Test user&#39;, CAST(N&#39;2023-08-11T12:30:10.9612581&#39; AS DateTime2), N&#39;Test user&#39;, N&#39;00bd9bb0-0541-4adb-9cd2-08db7dab14fc&#39;)&#xa;INSERT [dbo].[EmployeeAddresses] ([Id], [Lot], [Street], [Area], [Town], [CountryId], [RegionId], [EmployeeId], [Created], [CreatedBy], [LastModified], [LastModifiedBy], [CountyId]) VALUES (N&#39;adbe57e4-03ec-4ba6-e2eb-08db9a883b76&#39;, N&#39;200&#39;, N&#39;street&#39;, N&#39;area&#39;, N&#39;town&#39;, N&#39;d24f6310-3395-4c74-8db5-08db7daa7080&#39;, N&#39;1c535b9d-5b78-4ce3-d33c-08db7dbb02f3&#39;, N&#39;331fee7c-5a82-44fe-a8ce-08db9a8839d3&#39;, CAST(N&#39;2023-08-11T12:43:45.3177883&#39; AS DateTime2), N&#39;Test user&#39;, CAST(N&#39;2023-08-11T12:43:45.3177907&#39; AS DateTime2), N&#39;Test user&#39;, N&#39;4edfef84-bec6-48cc-9cd3-08db7dab14fc&#39;)&#xa;INSERT [dbo].[EmployeeAddresses] ([Id], [Lot], [Street], [Area], [Town], [CountryId], [RegionId], [EmployeeId], [Created], [CreatedBy], [LastModified], [LastModifiedBy], [CountyId]) VALUES (N&#39;f67193b2-f893-49f5-2b67-08dba8d23b00&#39;, N&#39;777&#39;, N&#39;street&#39;, N&#39;area&#39;, N&#39;town&#39;, N&#39;d24f6310-3395-4c74-8db5-08db7daa7080&#39;, N&#39;3d5fdde0-3c29-47b3-d337-08db7dbb02f3&#39;, N&#39;cc8732f8-1290-4c8a-0bfb-08db8f6868fe&#39;, CAST(N&#39;2023-08-29T17:00:34.1412520&#39; AS DateTime2), N&#39;Test user&#39;, CAST(N&#39;2023-08-29T17:00:34.1412550&#39; AS DateTime2), N&#39;Test user&#39;, N&#39;00bd9bb0-0541-4adb-9cd2-08db7dab14fc&#39;)&#xa;INSERT [dbo].[EmployeeAddresses] ([Id], [Lot], [Street], [Area], [Town], [CountryId], [RegionId], [EmployeeId], [Created], [CreatedBy], [LastModified], [LastModifiedBy], [CountyId]) VALUES (N&#39;9fe8334d-798f-4bf1-51d8-08dba8df6501&#39;, N&#39;555&#39;, N&#39;street&#39;, N&#39;area&#39;, N&#39;town&#39;, N&#39;d24f6310-3395-4c74-8db5-08db7daa7080&#39;, N&#39;3d5fdde0-3c29-47b3-d337-08db7dbb02f3&#39;, N&#39;cc8732f8-1290-4c8a-0bfb-08db8f6868fe&#39;, CAST(N&#39;2023-08-29T21:20:16.2856031&#39; AS DateTime2), N&#39;Test user&#39;, CAST(N&#39;2023-08-29T21:20:16.2856057&#39; AS DateTime2), N&#39;Test user&#39;, N&#39;00bd9bb0-0541-4adb-9cd2-08db7dab14fc&#39;)&#xa;GO&#xa;INSERT [dbo].[Employees] ([Id], [TitleId], [FirstName], [LastName], [DateOfBirth], [MaritalStatusTypeId], [ReligionId], [NationalityId], [SexId], [RaceId], [HomeNumber], [CellNumber], [WorkNumber], [EmailAddress], [PassportNumber], [PassportExpirationDate], [IdentificationCardNumber], [TaxPayerIdentificationNumber], [NationalInsuranceSchemeNumber], [Photograph], [Created], [CreatedBy], [LastModified], [LastModifiedBy]) VALUES (N&#39;69bfec09-e4de-46f1-0f02-08db7dadc954&#39;, N&#39;f11f013f-3284-4105-d4fb-08db7dab5a0a&#39;, N&#39;John&#39;, N&#39;Smith&#39;, CAST(N&#39;2000-06-24T23:09:12.0670000&#39; AS DateTime2), N&#39;271a44b4-06be-4141-2bd2-08db7da6085b&#39;, N&#39;4fab1010-c160-411c-106a-08db7dab9e33&#39;, N&#39;bde1a6a1-e97c-4b9e-21a6-08db7dac6e6f&#39;, N&#39;7d58f398-3ac3-4948-6b90-08db7dab7ac4&#39;, N&#39;4d61a222-1d07-4753-d778-08db7dac382b&#39;, N&#39;2257536&#39;, N&#39;5247891&#39;, N&#39;2264856&#39;, N&#39;email@email.com&#39;, N&#39;R4598762&#39;, CAST(N&#39;2024-07-05T23:09:12.0670000&#39; AS DateTime2), N&#39;11365879&#39;, N&#39;12547896&#39;, N&#39;B2498765&#39;, 0x00, CAST(N&#39;2023-07-05T19:15:56.9860827&#39; AS DateTime2), N&#39;Test user&#39;, CAST(N&#39;2023-07-05T19:15:56.9860856&#39; AS DateTime2), N&#39;Test user&#39;)&#xa;INSERT [dbo].[Employees] ([Id], [TitleId], [FirstName], [LastName], [DateOfBirth], [MaritalStatusTypeId], [ReligionId], [NationalityId], [SexId], [RaceId], [HomeNumber], [CellNumber], [WorkNumber], [EmailAddress], [PassportNumber], [PassportExpirationDate], [IdentificationCardNumber], [TaxPayerIdentificationNumber], [NationalInsuranceSchemeNumber], [Photograph], [Created], [CreatedBy], [LastModified], [LastModifiedBy]) VALUES (N&#39;e3bc802f-5f88-4bd3-0f03-08db7dadc954&#39;, N&#39;44af5737-ec08-459a-d4fd-08db7dab5a0a&#39;, N&#39;Jane&#39;, N&#39;Smith&#39;, CAST(N&#39;1998-06-24T23:09:12.0670000&#39; AS DateTime2), N&#39;271a44b4-06be-4141-2bd2-08db7da6085b&#39;, N&#39;fafba033-ac28-4e0a-106b-08db7dab9e33&#39;, N&#39;bde1a6a1-e97c-4b9e-21a6-08db7dac6e6f&#39;, N&#39;30e974a4-4db4-4153-6b91-08db7dab7ac4&#39;, N&#39;8aff7254-5d41-43a4-d775-08db7dac382b&#39;, N&#39;2278456&#39;, N&#39;6187532&#39;, N&#39;2271485&#39;, N&#39;email@email.com&#39;, N&#39;R348756&#39;, CAST(N&#39;2023-12-05T23:09:12.0670000&#39; AS DateTime2), N&#39;15347952&#39;, N&#39;15637498&#39;, N&#39;B1654823&#39;, 0x00, CAST(N&#39;2023-07-05T19:24:55.3578047&#39; AS DateTime2), N&#39;Test user&#39;, CAST(N&#39;2023-07-05T19:24:55.3578075&#39; AS DateTime2), N&#39;Test user&#39;)&#xa;INSERT [dbo].[Employees] ([Id], [TitleId], [FirstName], [LastName], [DateOfBirth], [MaritalStatusTypeId], [ReligionId], [NationalityId], [SexId], [RaceId], [HomeNumber], [CellNumber], [WorkNumber], [EmailAddress], [PassportNumber], [PassportExpirationDate], [IdentificationCardNumber], [TaxPayerIdentificationNumber], [NationalInsuranceSchemeNumber], [Photograph], [Created], [CreatedBy], [LastModified], [LastModifiedBy]) VALUES (N&#39;e22f87de-1aab-4ca6-0f04-08db7dadc954&#39;, N&#39;f11f013f-3284-4105-d4fb-08db7dab5a0a&#39;, N&#39;John&#39;, N&#39;Doe&#39;, CAST(N&#39;1992-06-24T23:09:12.0670000&#39; AS DateTime2), N&#39;319fc84d-883f-4e9e-2bd3-08db7da6085b&#39;, N&#39;7ea54cfc-91d2-4b21-1069-08db7dab9e33&#39;, N&#39;bde1a6a1-e97c-4b9e-21a6-08db7dac6e6f&#39;, N&#39;7d58f398-3ac3-4948-6b90-08db7dab7ac4&#39;, N&#39;19c099ba-c7e1-41d0-d776-08db7dac382b&#39;, N&#39;2259813&#39;, N&#39;6724612&#39;, N&#39;2267549&#39;, N&#39;email@email.com&#39;, N&#39;R8746315&#39;, CAST(N&#39;2020-07-05T23:09:12.0670000&#39; AS DateTime2), N&#39;24693187&#39;, N&#39;25496318&#39;, N&#39;B2463289&#39;, 0x00, CAST(N&#39;2023-07-05T19:28:57.7237840&#39; AS DateTime2), N&#39;Test user&#39;, CAST(N&#39;2023-07-05T19:28:57.7237866&#39; AS DateTime2), N&#39;Test user&#39;)&#xa;INSERT [dbo].[Employees] ([Id], [TitleId], [FirstName], [LastName], [DateOfBirth], [MaritalStatusTypeId], [ReligionId], [NationalityId], [SexId], [RaceId], [HomeNumber], [CellNumber], [WorkNumber], [EmailAddress], [PassportNumber], [PassportExpirationDate], [IdentificationCardNumber], [TaxPayerIdentificationNumber], [NationalInsuranceSchemeNumber], [Photograph], [Created], [CreatedBy], [LastModified], [LastModifiedBy]) VALUES (N&#39;280aa0c0-2151-49ae-0f05-08db7dadc954&#39;, N&#39;44af5737-ec08-459a-d4fd-08db7dab5a0a&#39;, N&#39;Jane&#39;, N&#39;Doe&#39;, CAST(N&#39;2001-06-24T23:09:12.0670000&#39; AS DateTime2), N&#39;ced656f4-69ad-4539-2bd4-08db7da6085b&#39;, N&#39;4fab1010-c160-411c-106a-08db7dab9e33&#39;, N&#39;bde1a6a1-e97c-4b9e-21a6-08db7dac6e6f&#39;, N&#39;30e974a4-4db4-4153-6b91-08db7dab7ac4&#39;, N&#39;8c778092-5532-439e-d777-08db7dac382b&#39;, N&#39;2261498&#39;, N&#39;6548279&#39;, N&#39;2275417&#39;, N&#39;email@email.com&#39;, N&#39;R2976341&#39;, CAST(N&#39;2026-07-05T23:09:12.0670000&#39; AS DateTime2), N&#39;14963578&#39;, N&#39;32587461&#39;, N&#39;B3189456&#39;, 0x00, CAST(N&#39;2023-07-05T19:32:24.3000252&#39; AS DateTime2), N&#39;Test user&#39;, CAST(N&#39;2023-07-05T19:32:24.3000267&#39; AS DateTime2), N&#39;Test user&#39;)&#xa;INSERT [dbo].[Employees] ([Id], [TitleId], [FirstName], [LastName], [DateOfBirth], [MaritalStatusTypeId], [ReligionId], [NationalityId], [SexId], [RaceId], [HomeNumber], [CellNumber], [WorkNumber], [EmailAddress], [PassportNumber], [PassportExpirationDate], [IdentificationCardNumber], [TaxPayerIdentificationNumber], [NationalInsuranceSchemeNumber], [Photograph], [Created], [CreatedBy], [LastModified], [LastModifiedBy]) VALUES (N&#39;67dd26b7-5d92-4078-d4b1-08db8dec5f96&#39;, N&#39;f11f013f-3284-4105-d4fb-08db7dab5a0a&#39;, N&#39;f&#39;, N&#39;d&#39;, CAST(N&#39;2020-07-26T15:18:33.3780000&#39; AS DateTime2), N&#39;2437adb9-c110-42a8-2bd1-08db7da6085b&#39;, N&#39;7ea54cfc-91d2-4b21-1069-08db7dab9e33&#39;, N&#39;bde1a6a1-e97c-4b9e-21a6-08db7dac6e6f&#39;, N&#39;7d58f398-3ac3-4948-6b90-08db7dab7ac4&#39;, N&#39;d90c8d5b-22f0-4695-d774-08db7dac382b&#39;, N&#39;5&#39;, N&#39;8&#39;, N&#39;5&#39;, N&#39;email@email.com&#39;, N&#39;4569&#39;, CAST(N&#39;2024-07-26T15:18:33.3780000&#39; AS DateTime2), N&#39;678&#39;, N&#39;234&#39;, N&#39;786&#39;, NULL, CAST(N&#39;2023-07-26T11:24:17.1493722&#39; AS DateTime2), N&#39;Test user&#39;, CAST(N&#39;2023-07-26T11:24:17.1498427&#39; AS DateTime2), N&#39;Test user&#39;)&#xa;INSERT [dbo].[Employees] ([Id], [TitleId], [FirstName], [LastName], [DateOfBirth], [MaritalStatusTypeId], [ReligionId], [NationalityId], [SexId], [RaceId], [HomeNumber], [CellNumber], [WorkNumber], [EmailAddress], [PassportNumber], [PassportExpirationDate], [IdentificationCardNumber], [TaxPayerIdentificationNumber], [NationalInsuranceSchemeNumber], [Photograph], [Created], [CreatedBy], [LastModified], [LastModifiedBy]) VALUES (N&#39;a367f122-b654-46ac-d4b2-08db8dec5f96&#39;, N&#39;f11f013f-3284-4105-d4fb-08db7dab5a0a&#39;, N&#39;mk&#39;, N&#39;sx&#39;, CAST(N&#39;2023-06-26T00:00:00.0000000&#39; AS DateTime2), N&#39;2437adb9-c110-42a8-2bd1-08db7da6085b&#39;, N&#39;7ea54cfc-91d2-4b21-1069-08db7dab9e33&#39;, N&#39;bde1a6a1-e97c-4b9e-21a6-08db7dac6e6f&#39;, N&#39;7d58f398-3ac3-4948-6b90-08db7dab7ac4&#39;, N&#39;d90c8d5b-22f0-4695-d774-08db7dac382b&#39;, N&#39;67&#39;, N&#39;23&#39;, N&#39;12&#39;, N&#39;email@email.com&#39;, N&#39;12&#39;, CAST(N&#39;2023-08-06T00:00:00.0000000&#39; AS DateTime2), N&#39;456&#39;, N&#39;435&#39;, N&#39;678&#39;, NULL, CAST(N&#39;2023-07-26T11:29:29.4685272&#39; AS DateTime2), N&#39;Test user&#39;, CAST(N&#39;2023-07-26T11:29:29.4685313&#39; AS DateTime2), N&#39;Test user&#39;)&#xa;INSERT [dbo].[Employees] ([Id], [TitleId], [FirstName], [LastName], [DateOfBirth], [MaritalStatusTypeId], [ReligionId], [NationalityId], [SexId], [RaceId], [HomeNumber], [CellNumber], [WorkNumber], [EmailAddress], [PassportNumber], [PassportExpirationDate], [IdentificationCardNumber], [TaxPayerIdentificationNumber], [NationalInsuranceSchemeNumber], [Photograph], [Created], [CreatedBy], [LastModified], [LastModifiedBy]) VALUES (N&#39;30fd2b2a-30e2-4332-efc4-08db8ea82de0&#39;, N&#39;f11f013f-3284-4105-d4fb-08db7dab5a0a&#39;, N&#39;r&#39;, N&#39;m&#39;, CAST(N&#39;2023-06-26T00:00:00.0000000&#39; AS DateTime2), N&#39;2437adb9-c110-42a8-2bd1-08db7da6085b&#39;, N&#39;7ea54cfc-91d2-4b21-1069-08db7dab9e33&#39;, N&#39;bde1a6a1-e97c-4b9e-21a6-08db7dac6e6f&#39;, N&#39;7d58f398-3ac3-4948-6b90-08db7dab7ac4&#39;, N&#39;d90c8d5b-22f0-4695-d774-08db7dac382b&#39;, N&#39;65&#39;, N&#39;12&#39;, N&#39;45&#39;, N&#39;email@email.com&#39;, N&#39;23&#39;, CAST(N&#39;2023-08-06T00:00:00.0000000&#39; AS DateTime2), N&#39;56&#39;, N&#39;56&#39;, N&#39;45&#39;, NULL, CAST(N&#39;2023-07-27T09:48:38.3474091&#39; AS DateTime2), N&#39;Test user&#39;, CAST(N&#39;2023-07-27T09:48:38.3477687&#39; AS DateTime2), N&#39;Test user&#39;)&#xa;INSERT [dbo].[Employees] ([Id], [TitleId], [FirstName], [LastName], [DateOfBirth], [MaritalStatusTypeId], [ReligionId], [NationalityId], [SexId], [RaceId], [HomeNumber], [CellNumber], [WorkNumber], [EmailAddress], [PassportNumber], [PassportExpirationDate], [IdentificationCardNumber], [TaxPayerIdentificationNumber], [NationalInsuranceSchemeNumber], [Photograph], [Created], [CreatedBy], [LastModified], [LastModifiedBy]) VALUES (N&#39;4ecf759e-9539-4365-efc7-08db8ea82de0&#39;, N&#39;44af5737-ec08-459a-d4fd-08db7dab5a0a&#39;, N&#39;cds&#39;, N&#39;bnh&#39;, CAST(N&#39;2023-06-26T00:00:00.0000000&#39; AS DateTime2), N&#39;271a44b4-06be-4141-2bd2-08db7da6085b&#39;, N&#39;7ea54cfc-91d2-4b21-1069-08db7dab9e33&#39;, N&#39;bde1a6a1-e97c-4b9e-21a6-08db7dac6e6f&#39;, N&#39;30e974a4-4db4-4153-6b91-08db7dab7ac4&#39;, N&#39;4d61a222-1d07-4753-d778-08db7dac382b&#39;, N&#39;45&#39;, N&#39;78&#39;, N&#39;12&#39;, N&#39;email@email.com&#39;, N&#39;45&#39;, CAST(N&#39;2023-08-06T00:00:00.0000000&#39; AS DateTime2), N&#39;678&#39;, N&#39;567&#39;, N&#39;678&#39;, NULL, CAST(N&#39;2023-07-27T10:01:58.7877224&#39; AS DateTime2), N&#39;Test user&#39;, CAST(N&#39;2023-07-27T10:01:58.7877256&#39; AS DateTime2), N&#39;Test user&#39;)&#xa;INSERT [dbo].[Employees] ([Id], [TitleId], [FirstName], [LastName], [DateOfBirth], [MaritalStatusTypeId], [ReligionId], [NationalityId], [SexId], [RaceId], [HomeNumber], [CellNumber], [WorkNumber], [EmailAddress], [PassportNumber], [PassportExpirationDate], [IdentificationCardNumber], [TaxPayerIdentificationNumber], [NationalInsuranceSchemeNumber], [Photograph], [Created], [CreatedBy], [LastModified], [LastModifiedBy]) VALUES (N&#39;178875c4-5e39-46c8-efc8-08db8ea82de0&#39;, N&#39;f11f013f-3284-4105-d4fb-08db7dab5a0a&#39;, N&#39;ty&#39;, N&#39;pl&#39;, CAST(N&#39;2023-06-26T00:00:00.0000000&#39; AS DateTime2), N&#39;319fc84d-883f-4e9e-2bd3-08db7da6085b&#39;, N&#39;4fab1010-c160-411c-106a-08db7dab9e33&#39;, N&#39;bde1a6a1-e97c-4b9e-21a6-08db7dac6e6f&#39;, N&#39;7d58f398-3ac3-4948-6b90-08db7dab7ac4&#39;, N&#39;4d61a222-1d07-4753-d778-08db7dac382b&#39;, N&#39;34&#39;, N&#39;78&#39;, N&#39;90&#39;, N&#39;email@email.com&#39;, N&#39;98&#39;, CAST(N&#39;2023-08-06T00:00:00.0000000&#39; AS DateTime2), N&#39;56&#39;, N&#39;76&#39;, N&#39;56&#39;, NULL, CAST(N&#39;2023-07-27T11:29:35.5762671&#39; AS DateTime2), N&#39;Test user&#39;, CAST(N&#39;2023-07-27T11:29:35.5762698&#39; AS DateTime2), N&#39;Test user&#39;)&#xa;INSERT [dbo].[Employees] ([Id], [TitleId], [FirstName], [LastName], [DateOfBirth], [MaritalStatusTypeId], [ReligionId], [NationalityId], [SexId], [RaceId], [HomeNumber], [CellNumber], [WorkNumber], [EmailAddress], [PassportNumber], [PassportExpirationDate], [IdentificationCardNumber], [TaxPayerIdentificationNumber], [NationalInsuranceSchemeNumber], [Photograph], [Created], [CreatedBy], [LastModified], [LastModifiedBy]) VALUES (N&#39;cc8732f8-1290-4c8a-0bfb-08db8f6868fe&#39;, N&#39;f11f013f-3284-4105-d4fb-08db7dab5a0a&#39;, N&#39;John&#39;, N&#39;Wick&#39;, CAST(N&#39;1998-06-03T00:00:00.0000000&#39; AS DateTime2), N&#39;2437adb9-c110-42a8-2bd1-08db7da6085b&#39;, N&#39;7ea54cfc-91d2-4b21-1069-08db7dab9e33&#39;, N&#39;bde1a6a1-e97c-4b9e-21a6-08db7dac6e6f&#39;, N&#39;7d58f398-3ac3-4948-6b90-08db7dab7ac4&#39;, N&#39;4d61a222-1d07-4753-d778-08db7dac382b&#39;, N&#39;2756483&#39;, N&#39;4586930&#39;, N&#39;2365891&#39;, N&#39;email@email.com&#39;, N&#39;6784532&#39;, CAST(N&#39;2025-09-23T00:00:00.0000000&#39; AS DateTime2), N&#39;5643256&#39;, N&#39;6789456&#39;, N&#39;6543215&#39;, NULL, CAST(N&#39;2023-07-28T08:44:41.2327824&#39; AS DateTime2), N&#39;Test user&#39;, CAST(N&#39;2023-07-28T08:44:41.2335068&#39; AS DateTime2), N&#39;Test user&#39;)&#xa;INSERT [dbo].[Employees] ([Id], [TitleId], [FirstName], [LastName], [DateOfBirth], [MaritalStatusTypeId], [ReligionId], [NationalityId], [SexId], [RaceId], [HomeNumber], [CellNumber], [WorkNumber], [EmailAddress], [PassportNumber], [PassportExpirationDate], [IdentificationCardNumber], [TaxPayerIdentificationNumber], [NationalInsuranceSchemeNumber], [Photograph], [Created], [CreatedBy], [LastModified], [LastModifiedBy]) VALUES (N&#39;3d6654b2-f120-4dd1-eb62-08db8f8154c6&#39;, N&#39;6138332c-52fd-4ef5-d4fc-08db7dab5a0a&#39;, N&#39;Jane&#39;, N&#39;Austin&#39;, CAST(N&#39;1989-05-26T00:00:00.0000000&#39; AS DateTime2), N&#39;319fc84d-883f-4e9e-2bd3-08db7da6085b&#39;, N&#39;7ea54cfc-91d2-4b21-1069-08db7dab9e33&#39;, N&#39;bde1a6a1-e97c-4b9e-21a6-08db7dac6e6f&#39;, N&#39;30e974a4-4db4-4153-6b91-08db7dab7ac4&#39;, N&#39;8c778092-5532-439e-d777-08db7dac382b&#39;, N&#39;5821049&#39;, N&#39;3758192&#39;, N&#39;4738012&#39;, N&#39;email@email.com&#39;, N&#39;4728103&#39;, CAST(N&#39;2026-08-05T00:00:00.0000000&#39; AS DateTime2), N&#39;5968120&#39;, N&#39;5839271&#39;, N&#39;5612356&#39;, NULL, CAST(N&#39;2023-07-28T11:43:04.7082614&#39; AS DateTime2), N&#39;Test user&#39;, CAST(N&#39;2023-07-28T11:43:04.7085596&#39; AS DateTime2), N&#39;Test user&#39;)&#xa;INSERT [dbo].[Employees] ([Id], [TitleId], [FirstName], [LastName], [DateOfBirth], [MaritalStatusTypeId], [ReligionId], [NationalityId], [SexId], [RaceId], [HomeNumber], [CellNumber], [WorkNumber], [EmailAddress], [PassportNumber], [PassportExpirationDate], [IdentificationCardNumber], [TaxPayerIdentificationNumber], [NationalInsuranceSchemeNumber], [Photograph], [Created], [CreatedBy], [LastModified], [LastModifiedBy]) VALUES (N&#39;607e3d90-56f9-4260-eb64-08db8f8154c6&#39;, N&#39;f11f013f-3284-4105-d4fb-08db7dab5a0a&#39;, N&#39;Jesse&#39;, N&#39;James&#39;, CAST(N&#39;1992-02-18T00:00:00.0000000&#39; AS DateTime2), N&#39;2437adb9-c110-42a8-2bd1-08db7da6085b&#39;, N&#39;4fab1010-c160-411c-106a-08db7dab9e33&#39;, N&#39;bde1a6a1-e97c-4b9e-21a6-08db7dac6e6f&#39;, N&#39;7d58f398-3ac3-4948-6b90-08db7dab7ac4&#39;, N&#39;19c099ba-c7e1-41d0-d776-08db7dac382b&#39;, N&#39;4869201&#39;, N&#39;5869103&#39;, N&#39;9047582&#39;, N&#39;email@email.com&#39;, N&#39;4960125&#39;, CAST(N&#39;2025-09-03T00:00:00.0000000&#39; AS DateTime2), N&#39;8673621&#39;, N&#39;7586932&#39;, N&#39;6892375&#39;, NULL, CAST(N&#39;2023-07-28T11:54:20.8116746&#39; AS DateTime2), N&#39;Test user&#39;, CAST(N&#39;2023-07-28T11:54:20.8116789&#39; AS DateTime2), N&#39;Test user&#39;)&#xa;INSERT [dbo].[Employees] ([Id], [TitleId], [FirstName], [LastName], [DateOfBirth], [MaritalStatusTypeId], [ReligionId], [NationalityId], [SexId], [RaceId], [HomeNumber], [CellNumber], [WorkNumber], [EmailAddress], [PassportNumber], [PassportExpirationDate], [IdentificationCardNumber], [TaxPayerIdentificationNumber], [NationalInsuranceSchemeNumber], [Photograph], [Created], [CreatedBy], [LastModified], [LastModifiedBy]) VALUES (N&#39;30940a21-bdfc-4a57-275b-08db8f8dfa20&#39;, N&#39;f11f013f-3284-4105-d4fb-08db7dab5a0a&#39;, N&#39;John&#39;, N&#39;Nolan&#39;, CAST(N&#39;1986-09-03T00:00:00.0000000&#39; AS DateTime2), N&#39;ced656f4-69ad-4539-2bd4-08db7da6085b&#39;, N&#39;7ea54cfc-91d2-4b21-1069-08db7dab9e33&#39;, N&#39;bde1a6a1-e97c-4b9e-21a6-08db7dac6e6f&#39;, N&#39;7d58f398-3ac3-4948-6b90-08db7dab7ac4&#39;, N&#39;4d61a222-1d07-4753-d778-08db7dac382b&#39;, N&#39;6215890&#39;, N&#39;0937485&#39;, N&#39;2156789&#39;, N&#39;email@email.com&#39;, N&#39;72391567&#39;, CAST(N&#39;2027-09-02T00:00:00.0000000&#39; AS DateTime2), N&#39;61257890&#39;, N&#39;76236043&#39;, N&#39;67324560&#39;, NULL, CAST(N&#39;2023-07-28T13:13:35.8260889&#39; AS DateTime2), N&#39;Test user&#39;, CAST(N&#39;2023-07-28T13:13:35.8265296&#39; AS DateTime2), N&#39;Test user&#39;)&#xa;INSERT [dbo].[Employees] ([Id], [TitleId], [FirstName], [LastName], [DateOfBirth], [MaritalStatusTypeId], [ReligionId], [NationalityId], [SexId], [RaceId], [HomeNumber], [CellNumber], [WorkNumber], [EmailAddress], [PassportNumber], [PassportExpirationDate], [IdentificationCardNumber], [TaxPayerIdentificationNumber], [NationalInsuranceSchemeNumber], [Photograph], [Created], [CreatedBy], [LastModified], [LastModifiedBy]) VALUES (N&#39;a0525edd-0c5d-4fee-5aa3-08db95656cbe&#39;, N&#39;f11f013f-3284-4105-d4fb-08db7dab5a0a&#39;, N&#39;John&#39;, N&#39;Grisham&#39;, CAST(N&#39;2001-12-13T00:00:00.0000000&#39; AS DateTime2), N&#39;271a44b4-06be-4141-2bd2-08db7da6085b&#39;, N&#39;7ea54cfc-91d2-4b21-1069-08db7dab9e33&#39;, N&#39;bde1a6a1-e97c-4b9e-21a6-08db7dac6e6f&#39;, N&#39;7d58f398-3ac3-4948-6b90-08db7dab7ac4&#39;, N&#39;4d61a222-1d07-4753-d778-08db7dac382b&#39;, N&#39;4850124&#39;, N&#39;5981204&#39;, N&#39;6839120&#39;, N&#39;email@email.com&#39;, N&#39;59683723&#39;, CAST(N&#39;2023-08-10T00:00:00.0000000&#39; AS DateTime2), N&#39;4958123&#39;, N&#39;6094723&#39;, N&#39;6812045&#39;, NULL, CAST(N&#39;2023-08-04T23:38:26.2789215&#39; AS DateTime2), N&#39;Test user&#39;, CAST(N&#39;2023-08-04T23:38:26.2792404&#39; AS DateTime2), N&#39;Test user&#39;)&#xa;INSERT [dbo].[Employees] ([Id], [TitleId], [FirstName], [LastName], [DateOfBirth], [MaritalStatusTypeId], [ReligionId], [NationalityId], [SexId], [RaceId], [HomeNumber], [CellNumber], [WorkNumber], [EmailAddress], [PassportNumber], [PassportExpirationDate], [IdentificationCardNumber], [TaxPayerIdentificationNumber], [NationalInsuranceSchemeNumber], [Photograph], [Created], [CreatedBy], [LastModified], [LastModifiedBy]) VALUES (N&#39;86838b57-e716-41d1-9552-08db97a1403b&#39;, N&#39;f11f013f-3284-4105-d4fb-08db7dab5a0a&#39;, N&#39;John&#39;, N&#39;Burns&#39;, CAST(N&#39;1989-06-29T00:00:00.0000000&#39; AS DateTime2), N&#39;271a44b4-06be-4141-2bd2-08db7da6085b&#39;, N&#39;4fab1010-c160-411c-106a-08db7dab9e33&#39;, N&#39;bde1a6a1-e97c-4b9e-21a6-08db7dac6e6f&#39;, N&#39;7d58f398-3ac3-4948-6b90-08db7dab7ac4&#39;, N&#39;8c778092-5532-439e-d777-08db7dac382b&#39;, N&#39;7623450&#39;, N&#39;5481235&#39;, N&#39;4514890&#39;, N&#39;email@email.com&#39;, N&#39;57382049&#39;, CAST(N&#39;2027-10-20T00:00:00.0000000&#39; AS DateTime2), N&#39;678210475&#39;, N&#39;56372940&#39;, N&#39;58392014&#39;, NULL, CAST(N&#39;2023-08-07T19:51:43.5138561&#39; AS DateTime2), N&#39;Test user&#39;, CAST(N&#39;2023-08-07T19:51:43.5144517&#39; AS DateTime2), N&#39;Test user&#39;)&#xa;INSERT [dbo].[Employees] ([Id], [TitleId], [FirstName], [LastName], [DateOfBirth], [MaritalStatusTypeId], [ReligionId], [NationalityId], [SexId], [RaceId], [HomeNumber], [CellNumber], [WorkNumber], [EmailAddress], [PassportNumber], [PassportExpirationDate], [IdentificationCardNumber], [TaxPayerIdentificationNumber], [NationalInsuranceSchemeNumber], [Photograph], [Created], [CreatedBy], [LastModified], [LastModifiedBy]) VALUES (N&#39;8c0a6177-9248-468c-9553-08db97a1403b&#39;, N&#39;f11f013f-3284-4105-d4fb-08db7dab5a0a&#39;, N&#39;John&#39;, N&#39;John&#39;, CAST(N&#39;1995-02-08T00:00:00.0000000&#39; AS DateTime2), N&#39;2437adb9-c110-42a8-2bd1-08db7da6085b&#39;, N&#39;fafba033-ac28-4e0a-106b-08db7dab9e33&#39;, N&#39;bde1a6a1-e97c-4b9e-21a6-08db7dac6e6f&#39;, N&#39;7d58f398-3ac3-4948-6b90-08db7dab7ac4&#39;, N&#39;19c099ba-c7e1-41d0-d776-08db7dac382b&#39;, N&#39;5901237&#39;, N&#39;5903761&#39;, N&#39;5892034&#39;, N&#39;email@email.com&#39;, N&#39;47812043&#39;, CAST(N&#39;2026-06-04T00:00:00.0000000&#39; AS DateTime2), N&#39;83401284&#39;, N&#39;58732017&#39;, N&#39;50386126&#39;, NULL, CAST(N&#39;2023-08-07T21:12:53.1473020&#39; AS DateTime2), N&#39;Test user&#39;, CAST(N&#39;2023-08-07T21:12:53.1473049&#39; AS DateTime2), N&#39;Test user&#39;)&#xa;INSERT [dbo].[Employees] ([Id], [TitleId], [FirstName], [LastName], [DateOfBirth], [MaritalStatusTypeId], [ReligionId], [NationalityId], [SexId], [RaceId], [HomeNumber], [CellNumber], [WorkNumber], [EmailAddress], [PassportNumber], [PassportExpirationDate], [IdentificationCardNumber], [TaxPayerIdentificationNumber], [NationalInsuranceSchemeNumber], [Photograph], [Created], [CreatedBy], [LastModified], [LastModifiedBy]) VALUES (N&#39;5278cb09-17e8-400b-9554-08db97a1403b&#39;, N&#39;f11f013f-3284-4105-d4fb-08db7dab5a0a&#39;, N&#39;John&#39;, N&#39;Jones&#39;, CAST(N&#39;1998-10-21T00:00:00.0000000&#39; AS DateTime2), N&#39;319fc84d-883f-4e9e-2bd3-08db7da6085b&#39;, N&#39;7ea54cfc-91d2-4b21-1069-08db7dab9e33&#39;, N&#39;bde1a6a1-e97c-4b9e-21a6-08db7dac6e6f&#39;, N&#39;7d58f398-3ac3-4948-6b90-08db7dab7ac4&#39;, N&#39;8aff7254-5d41-43a4-d775-08db7dac382b&#39;, N&#39;5910238&#39;, N&#39;6738105&#39;, N&#39;6901273&#39;, N&#39;email@email.com&#39;, N&#39;48192536&#39;, CAST(N&#39;2028-07-18T00:00:00.0000000&#39; AS DateTime2), N&#39;40912738&#39;, N&#39;57129304&#39;, N&#39;59102374&#39;, NULL, CAST(N&#39;2023-08-07T21:44:09.4234315&#39; AS DateTime2), N&#39;Test user&#39;, CAST(N&#39;2023-08-07T21:44:09.4234344&#39; AS DateTime2), N&#39;Test user&#39;)&#xa;INSERT [dbo].[Employees] ([Id], [TitleId], [FirstName], [LastName], [DateOfBirth], [MaritalStatusTypeId], [ReligionId], [NationalityId], [SexId], [RaceId], [HomeNumber], [CellNumber], [WorkNumber], [EmailAddress], [PassportNumber], [PassportExpirationDate], [IdentificationCardNumber], [TaxPayerIdentificationNumber], [NationalInsuranceSchemeNumber], [Photograph], [Created], [CreatedBy], [LastModified], [LastModifiedBy]) VALUES (N&#39;123086f5-e5cd-4710-9555-08db97a1403b&#39;, N&#39;f11f013f-3284-4105-d4fb-08db7dab5a0a&#39;, N&#39;John&#39;, N&#39;Garner&#39;, CAST(N&#39;1998-03-04T00:00:00.0000000&#39; AS DateTime2), N&#39;271a44b4-06be-4141-2bd2-08db7da6085b&#39;, N&#39;7ea54cfc-91d2-4b21-1069-08db7dab9e33&#39;, N&#39;bde1a6a1-e97c-4b9e-21a6-08db7dac6e6f&#39;, N&#39;7d58f398-3ac3-4948-6b90-08db7dab7ac4&#39;, N&#39;4d61a222-1d07-4753-d778-08db7dac382b&#39;, N&#39;5920317&#39;, N&#39;4718294&#39;, N&#39;5901273&#39;, N&#39;email@email.com&#39;, N&#39;58921034&#39;, CAST(N&#39;2026-06-03T00:00:00.0000000&#39; AS DateTime2), N&#39;58912374&#39;, N&#39;58930213&#39;, N&#39;59081234&#39;, NULL, CAST(N&#39;2023-08-07T22:00:41.1799748&#39; AS DateTime2), N&#39;Test user&#39;, CAST(N&#39;2023-08-07T22:00:41.1799776&#39; AS DateTime2), N&#39;Test user&#39;)&#xa;INSERT [dbo].[Employees] ([Id], [TitleId], [FirstName], [LastName], [DateOfBirth], [MaritalStatusTypeId], [ReligionId], [NationalityId], [SexId], [RaceId], [HomeNumber], [CellNumber], [WorkNumber], [EmailAddress], [PassportNumber], [PassportExpirationDate], [IdentificationCardNumber], [TaxPayerIdentificationNumber], [NationalInsuranceSchemeNumber], [Photograph], [Created], [CreatedBy], [LastModified], [LastModifiedBy]) VALUES (N&#39;7db65d03-eb49-41e9-a8cd-08db9a8839d3&#39;, N&#39;f11f013f-3284-4105-d4fb-08db7dab5a0a&#39;, N&#39;John&#39;, N&#39;Deere&#39;, CAST(N&#39;1997-11-14T00:00:00.0000000&#39; AS DateTime2), N&#39;2437adb9-c110-42a8-2bd1-08db7da6085b&#39;, N&#39;4fab1010-c160-411c-106a-08db7dab9e33&#39;, N&#39;bde1a6a1-e97c-4b9e-21a6-08db7dac6e6f&#39;, N&#39;7d58f398-3ac3-4948-6b90-08db7dab7ac4&#39;, N&#39;8c778092-5532-439e-d777-08db7dac382b&#39;, N&#39;5693245&#39;, N&#39;7834190&#39;, N&#39;6734218&#39;, N&#39;email@email.com&#39;, N&#39;57394852&#39;, CAST(N&#39;2025-11-05T00:00:00.0000000&#39; AS DateTime2), N&#39;59671234&#39;, N&#39;59120345&#39;, N&#39;58210394&#39;, NULL, CAST(N&#39;2023-08-11T12:30:08.5043517&#39; AS DateTime2), N&#39;Test user&#39;, CAST(N&#39;2023-08-11T12:30:08.5046118&#39; AS DateTime2), N&#39;Test user&#39;)&#xa;INSERT [dbo].[Employees] ([Id], [TitleId], [FirstName], [LastName], [DateOfBirth], [MaritalStatusTypeId], [ReligionId], [NationalityId], [SexId], [RaceId], [HomeNumber], [CellNumber], [WorkNumber], [EmailAddress], [PassportNumber], [PassportExpirationDate], [IdentificationCardNumber], [TaxPayerIdentificationNumber], [NationalInsuranceSchemeNumber], [Photograph], [Created], [CreatedBy], [LastModified], [LastModifiedBy]) VALUES (N&#39;331fee7c-5a82-44fe-a8ce-08db9a8839d3&#39;, N&#39;f11f013f-3284-4105-d4fb-08db7dab5a0a&#39;, N&#39;John&#39;, N&#39;Greene&#39;, CAST(N&#39;1992-06-01T00:00:00.0000000&#39; AS DateTime2), N&#39;2437adb9-c110-42a8-2bd1-08db7da6085b&#39;, N&#39;fafba033-ac28-4e0a-106b-08db7dab9e33&#39;, N&#39;bde1a6a1-e97c-4b9e-21a6-08db7dac6e6f&#39;, N&#39;7d58f398-3ac3-4948-6b90-08db7dab7ac4&#39;, N&#39;8aff7254-5d41-43a4-d775-08db7dac382b&#39;, N&#39;4812934&#39;, N&#39;4952813&#39;, N&#39;4923104&#39;, N&#39;email@email.com&#39;, N&#39;47129304&#39;, CAST(N&#39;2025-04-30T00:00:00.0000000&#39; AS DateTime2), N&#39;39481204&#39;, N&#39;58124902&#39;, N&#39;59124304&#39;, NULL, CAST(N&#39;2023-08-11T12:43:44.6192897&#39; AS DateTime2), N&#39;Test user&#39;, CAST(N&#39;2023-08-11T12:43:44.6192928&#39; AS DateTime2), N&#39;Test user&#39;)&#xa;GO&#xa;INSERT [dbo].[Families] ([Id], [NextOfKin], [MilitaryParamilitary], [MilitaryParamilitaryOrganizationId], [FirstName], [LastName], [DateOfBirth], [SexId], [HomeNumber], [CellNumber], [WorkNumber], [Email], [RelationshipId], [IdentificationNumber], [PassportNumber], [EmployeeId], [Created], [CreatedBy], [LastModified], [LastModifiedBy]) VALUES (N&#39;556f2484-4230-47e5-3478-08db9822991a&#39;, 1, 1, N&#39;f322b80b-c3fa-48e2-816d-08db9821099f&#39;, N&#39;Joe&#39;, N&#39;Smith&#39;, CAST(N&#39;1995-08-08T15:12:00.3430000&#39; AS DateTime2), N&#39;7d58f398-3ac3-4948-6b90-08db7dab7ac4&#39;, N&#39;5690123&#39;, N&#39;4583945&#39;, N&#39;6940123&#39;, N&#39;email@email.com&#39;, N&#39;30914427-08c2-4213-208d-08db9815d8da&#39;, N&#39;68492034&#39;, N&#39;58239405&#39;, N&#39;69bfec09-e4de-46f1-0f02-08db7dadc954&#39;, CAST(N&#39;2023-08-08T11:17:37.3382861&#39; AS DateTime2), N&#39;Test user&#39;, CAST(N&#39;2023-08-08T11:17:37.3382891&#39; AS DateTime2), N&#39;Test user&#39;)&#xa;GO&#xa;INSERT [dbo].[FamilyAddresses] ([Id], [Lot], [Street], [Area], [Town], [CountyId], [RegionId], [FamilyId], [Created], [CreatedBy], [LastModified], [LastModifiedBy]) VALUES (N&#39;4c16ff50-2cb0-467f-10de-08db9835f41a&#39;, N&#39;567&#39;, N&#39;some street&#39;, N&#39;some area&#39;, N&#39;some town&#39;, N&#39;4edfef84-bec6-48cc-9cd3-08db7dab14fc&#39;, N&#39;a3719c25-9f1b-48c8-d335-08db7dbb02f3&#39;, N&#39;556f2484-4230-47e5-3478-08db9822991a&#39;, CAST(N&#39;2023-08-08T13:36:10.5665631&#39; AS DateTime2), N&#39;Test user&#39;, CAST(N&#39;2023-08-08T13:36:10.5668146&#39; AS DateTime2), N&#39;Test user&#39;)&#xa;GO&#xa;INSERT [dbo].[ForceOrders] ([Id], [ForceOrderTypeId], [ForceOrderDate], [ForceOrderSerialNumber], [ForceOrderParagraphNumber], [Created], [CreatedBy], [LastModified], [LastModifiedBy]) VALUES (N&#39;dc62a6b9-0291-47b1-8fb0-08db88c338a3&#39;, N&#39;a000909f-8e7e-4a3d-8411-08db88bb560a&#39;, CAST(N&#39;2012-12-17T00:52:47.8660000&#39; AS DateTime2), N&#39;127&#39;, N&#39;546&#39;, CAST(N&#39;2023-07-19T21:47:05.8955652&#39; AS DateTime2), N&#39;Test user&#39;, CAST(N&#39;2023-07-19T21:47:05.8955704&#39; AS DateTime2), N&#39;Test user&#39;)&#xa;INSERT [dbo].[ForceOrders] ([Id], [ForceOrderTypeId], [ForceOrderDate], [ForceOrderSerialNumber], [ForceOrderParagraphNumber], [Created], [CreatedBy], [LastModified], [LastModifiedBy]) VALUES (N&#39;544c941f-a155-4159-8fb1-08db88c338a3&#39;, N&#39;001b77b8-04e0-4b56-8412-08db88bb560a&#39;, CAST(N&#39;2007-10-31T00:52:47.8660000&#39; AS DateTime2), N&#39;44&#39;, N&#39;214&#39;, CAST(N&#39;2023-07-19T21:49:54.8890861&#39; AS DateTime2), N&#39;Test user&#39;, CAST(N&#39;2023-07-19T21:49:54.8890912&#39; AS DateTime2), N&#39;Test user&#39;)&#xa;INSERT [dbo].[ForceOrders] ([Id], [ForceOrderTypeId], [ForceOrderDate], [ForceOrderSerialNumber], [ForceOrderParagraphNumber], [Created], [CreatedBy], [LastModified], [LastModifiedBy]) VALUES (N&#39;99b794da-71c8-40c1-8fb2-08db88c338a3&#39;, N&#39;1ebc3f7b-ebb9-4588-8413-08db88bb560a&#39;, CAST(N&#39;2013-03-12T00:52:47.8660000&#39; AS DateTime2), N&#39;83&#39;, N&#39;389&#39;, CAST(N&#39;2023-07-19T21:51:19.3323258&#39; AS DateTime2), N&#39;Test user&#39;, CAST(N&#39;2023-07-19T21:51:19.3323289&#39; AS DateTime2), N&#39;Test user&#39;)&#xa;INSERT [dbo].[ForceOrders] ([Id], [ForceOrderTypeId], [ForceOrderDate], [ForceOrderSerialNumber], [ForceOrderParagraphNumber], [Created], [CreatedBy], [LastModified], [LastModifiedBy]) VALUES (N&#39;70c60977-d6a5-45e7-8fb3-08db88c338a3&#39;, N&#39;a000909f-8e7e-4a3d-8411-08db88bb560a&#39;, CAST(N&#39;2010-10-19T00:52:47.8660000&#39; AS DateTime2), N&#39;100&#39;, N&#39;422&#39;, CAST(N&#39;2023-07-19T21:52:36.9249067&#39; AS DateTime2), N&#39;Test user&#39;, CAST(N&#39;2023-07-19T21:52:36.9249091&#39; AS DateTime2), N&#39;Test user&#39;)&#xa;GO&#xa;INSERT [dbo].[ForceOrderTypes] ([Id], [OrderType], [Created], [CreatedBy], [LastModified], [LastModifiedBy]) VALUES (N&#39;a000909f-8e7e-4a3d-8411-08db88bb560a&#39;, N&#39;One&#39;, CAST(N&#39;2023-07-19T20:50:38.9008854&#39; AS DateTime2), N&#39;Test user&#39;, CAST(N&#39;2023-07-19T20:50:38.9008882&#39; AS DateTime2), N&#39;Test user&#39;)&#xa;INSERT [dbo].[ForceOrderTypes] ([Id], [OrderType], [Created], [CreatedBy], [LastModified], [LastModifiedBy]) VALUES (N&#39;001b77b8-04e0-4b56-8412-08db88bb560a&#39;, N&#39;Two&#39;, CAST(N&#39;2023-07-19T20:50:49.8746113&#39; AS DateTime2), N&#39;Test user&#39;, CAST(N&#39;2023-07-19T20:50:49.8746132&#39; AS DateTime2), N&#39;Test user&#39;)&#xa;INSERT [dbo].[ForceOrderTypes] ([Id], [OrderType], [Created], [CreatedBy], [LastModified], [LastModifiedBy]) VALUES (N&#39;1ebc3f7b-ebb9-4588-8413-08db88bb560a&#39;, N&#39;Special&#39;, CAST(N&#39;2023-07-19T20:51:12.7008634&#39; AS DateTime2), N&#39;Test user&#39;, CAST(N&#39;2023-07-19T20:51:12.7008658&#39; AS DateTime2), N&#39;Test user&#39;)&#xa;GO&#xa;INSERT [dbo].[MaritalStatusTypes] ([Id], [MaritalStatus], [Created], [CreatedBy], [LastModified], [LastModifiedBy]) VALUES (N&#39;2437adb9-c110-42a8-2bd1-08db7da6085b&#39;, N&#39;Single&#39;, CAST(N&#39;2023-07-05T19:07:44.0755070&#39; AS DateTime2), N&#39;Test user&#39;, CAST(N&#39;2023-07-05T19:07:44.0755088&#39; AS DateTime2), N&#39;Test user&#39;)&#xa;INSERT [dbo].[MaritalStatusTypes] ([Id], [MaritalStatus], [Created], [CreatedBy], [LastModified], [LastModifiedBy]) VALUES (N&#39;271a44b4-06be-4141-2bd2-08db7da6085b&#39;, N&#39;Married&#39;, CAST(N&#39;2023-07-05T19:07:54.9635316&#39; AS DateTime2), N&#39;Test user&#39;, CAST(N&#39;2023-07-05T19:07:54.9635335&#39; AS DateTime2), N&#39;Test user&#39;)&#xa;INSERT [dbo].[MaritalStatusTypes] ([Id], [MaritalStatus], [Created], [CreatedBy], [LastModified], [LastModifiedBy]) VALUES (N&#39;319fc84d-883f-4e9e-2bd3-08db7da6085b&#39;, N&#39;Divorced&#39;, CAST(N&#39;2023-07-05T19:08:07.0686503&#39; AS DateTime2), N&#39;Test user&#39;, CAST(N&#39;2023-07-05T19:08:07.0686518&#39; AS DateTime2), N&#39;Test user&#39;)&#xa;INSERT [dbo].[MaritalStatusTypes] ([Id], [MaritalStatus], [Created], [CreatedBy], [LastModified], [LastModifiedBy]) VALUES (N&#39;ced656f4-69ad-4539-2bd4-08db7da6085b&#39;, N&#39;Widow&#39;, CAST(N&#39;2023-07-05T19:08:19.5579358&#39; AS DateTime2), N&#39;Test user&#39;, CAST(N&#39;2023-07-05T19:08:19.5579375&#39; AS DateTime2), N&#39;Test user&#39;)&#xa;GO&#xa;INSERT [dbo].[MilitaryParamilitaryOrganizations] ([Id], [OrganizationName], [Created], [CreatedBy], [LastModified], [LastModifiedBy]) VALUES (N&#39;f322b80b-c3fa-48e2-816d-08db9821099f&#39;, N&#39;Guyana Police Force&#39;, CAST(N&#39;2023-08-08T11:06:27.4481666&#39; AS DateTime2), N&#39;Test user&#39;, CAST(N&#39;2023-08-08T11:06:27.4644908&#39; AS DateTime2), N&#39;Test user&#39;)&#xa;INSERT [dbo].[MilitaryParamilitaryOrganizations] ([Id], [OrganizationName], [Created], [CreatedBy], [LastModified], [LastModifiedBy]) VALUES (N&#39;186c7be4-d949-4c94-816e-08db9821099f&#39;, N&#39;Guyana Defence Force&#39;, CAST(N&#39;2023-08-08T11:06:42.6436972&#39; AS DateTime2), N&#39;Test user&#39;, CAST(N&#39;2023-08-08T11:06:42.6437005&#39; AS DateTime2), N&#39;Test user&#39;)&#xa;INSERT [dbo].[MilitaryParamilitaryOrganizations] ([Id], [OrganizationName], [Created], [CreatedBy], [LastModified], [LastModifiedBy]) VALUES (N&#39;4adc73d6-c693-4351-816f-08db9821099f&#39;, N&#39;Guyana Fire Service&#39;, CAST(N&#39;2023-08-08T11:06:55.3538613&#39; AS DateTime2), N&#39;Test user&#39;, CAST(N&#39;2023-08-08T11:06:55.3538640&#39; AS DateTime2), N&#39;Test user&#39;)&#xa;INSERT [dbo].[MilitaryParamilitaryOrganizations] ([Id], [OrganizationName], [Created], [CreatedBy], [LastModified], [LastModifiedBy]) VALUES (N&#39;a7a8233b-cc41-4eb0-8170-08db9821099f&#39;, N&#39;Guyana Prison Service&#39;, CAST(N&#39;2023-08-08T11:07:06.9843588&#39; AS DateTime2), N&#39;Test user&#39;, CAST(N&#39;2023-08-08T11:07:06.9843614&#39; AS DateTime2), N&#39;Test user&#39;)&#xa;INSERT [dbo].[MilitaryParamilitaryOrganizations] ([Id], [OrganizationName], [Created], [CreatedBy], [LastModified], [LastModifiedBy]) VALUES (N&#39;4c1b023e-7284-40c1-8171-08db9821099f&#39;, N&#39;Guyana National Cadet Corps&#39;, CAST(N&#39;2023-08-08T11:07:47.4889497&#39; AS DateTime2), N&#39;Test user&#39;, CAST(N&#39;2023-08-08T11:07:47.4889517&#39; AS DateTime2), N&#39;Test user&#39;)&#xa;GO&#xa;INSERT [dbo].[Nationalities] ([Id], [NationalityType], [Created], [CreatedBy], [LastModified], [LastModifiedBy]) VALUES (N&#39;bde1a6a1-e97c-4b9e-21a6-08db7dac6e6f&#39;, N&#39;Guyanese&#39;, CAST(N&#39;2023-07-05T19:06:14.4978357&#39; AS DateTime2), N&#39;Test user&#39;, CAST(N&#39;2023-07-05T19:06:14.4978378&#39; AS DateTime2), N&#39;Test user&#39;)&#xa;INSERT [dbo].[Nationalities] ([Id], [NationalityType], [Created], [CreatedBy], [LastModified], [LastModifiedBy]) VALUES (N&#39;2405ea92-9b28-4ac1-21a7-08db7dac6e6f&#39;, N&#39;Surinamese&#39;, CAST(N&#39;2023-07-05T19:06:25.6605105&#39; AS DateTime2), N&#39;Test user&#39;, CAST(N&#39;2023-07-05T19:06:25.6605120&#39; AS DateTime2), N&#39;Test user&#39;)&#xa;INSERT [dbo].[Nationalities] ([Id], [NationalityType], [Created], [CreatedBy], [LastModified], [LastModifiedBy]) VALUES (N&#39;9bc993e8-4e0b-44d7-21a8-08db7dac6e6f&#39;, N&#39;Trinidadian&#39;, CAST(N&#39;2023-07-05T19:06:39.9752070&#39; AS DateTime2), N&#39;Test user&#39;, CAST(N&#39;2023-07-05T19:06:39.9752085&#39; AS DateTime2), N&#39;Test user&#39;)&#xa;INSERT [dbo].[Nationalities] ([Id], [NationalityType], [Created], [CreatedBy], [LastModified], [LastModifiedBy]) VALUES (N&#39;7a2760f0-88cb-415b-21a9-08db7dac6e6f&#39;, N&#39;Jamaican&#39;, CAST(N&#39;2023-07-05T19:06:48.4378227&#39; AS DateTime2), N&#39;Test user&#39;, CAST(N&#39;2023-07-05T19:06:48.4378245&#39; AS DateTime2), N&#39;Test user&#39;)&#xa;INSERT [dbo].[Nationalities] ([Id], [NationalityType], [Created], [CreatedBy], [LastModified], [LastModifiedBy]) VALUES (N&#39;4c493b77-68c1-4b47-21aa-08db7dac6e6f&#39;, N&#39;Bajan&#39;, CAST(N&#39;2023-07-05T19:07:07.8545351&#39; AS DateTime2), N&#39;Test user&#39;, CAST(N&#39;2023-07-05T19:07:07.8545368&#39; AS DateTime2), N&#39;Test user&#39;)&#xa;INSERT [dbo].[Nationalities] ([Id], [NationalityType], [Created], [CreatedBy], [LastModified], [LastModifiedBy]) VALUES (N&#39;5f8b487a-6b20-427c-21ab-08db7dac6e6f&#39;, N&#39;Brazilian&#39;, CAST(N&#39;2023-07-05T19:07:16.9549830&#39; AS DateTime2), N&#39;Test user&#39;, CAST(N&#39;2023-07-05T19:07:16.9549846&#39; AS DateTime2), N&#39;Test user&#39;)&#xa;GO&#xa;INSERT [dbo].[OtherNames] ([Id], [otherName], [EmployeeId], [Created], [CreatedBy], [LastModified], [LastModifiedBy]) VALUES (N&#39;918b8b6c-f278-426b-a195-08db8486a0d3&#39;, N&#39;Shomari&#39;, N&#39;69bfec09-e4de-46f1-0f02-08db7dadc954&#39;, CAST(N&#39;2023-07-14T12:23:16.2846837&#39; AS DateTime2), N&#39;Test user&#39;, CAST(N&#39;2023-07-14T12:23:16.2846855&#39; AS DateTime2), N&#39;Test user&#39;)&#xa;INSERT [dbo].[OtherNames] ([Id], [otherName], [EmployeeId], [Created], [CreatedBy], [LastModified], [LastModifiedBy]) VALUES (N&#39;b2a5af63-f55a-4fe5-85b7-08db88baa4b2&#39;, N&#39;Anne&#39;, N&#39;e3bc802f-5f88-4bd3-0f03-08db7dadc954&#39;, CAST(N&#39;2023-07-19T20:45:41.3579326&#39; AS DateTime2), N&#39;Test user&#39;, CAST(N&#39;2023-07-19T20:45:41.3579356&#39; AS DateTime2), N&#39;Test user&#39;)&#xa;INSERT [dbo].[OtherNames] ([Id], [otherName], [EmployeeId], [Created], [CreatedBy], [LastModified], [LastModifiedBy]) VALUES (N&#39;dc124d0a-dfae-42ad-85b8-08db88baa4b2&#39;, N&#39;Michael&#39;, N&#39;e22f87de-1aab-4ca6-0f04-08db7dadc954&#39;, CAST(N&#39;2023-07-19T20:46:06.8958910&#39; AS DateTime2), N&#39;Test user&#39;, CAST(N&#39;2023-07-19T20:46:06.8958940&#39; AS DateTime2), N&#39;Test user&#39;)&#xa;INSERT [dbo].[OtherNames] ([Id], [otherName], [EmployeeId], [Created], [CreatedBy], [LastModified], [LastModifiedBy]) VALUES (N&#39;705d0864-eaa8-4706-85b9-08db88baa4b2&#39;, N&#39;Mary&#39;, N&#39;280aa0c0-2151-49ae-0f05-08db7dadc954&#39;, CAST(N&#39;2023-07-19T20:46:48.6772925&#39; AS DateTime2), N&#39;Test user&#39;, CAST(N&#39;2023-07-19T20:46:48.6772948&#39; AS DateTime2), N&#39;Test user&#39;)&#xa;INSERT [dbo].[OtherNames] ([Id], [otherName], [EmployeeId], [Created], [CreatedBy], [LastModified], [LastModifiedBy]) VALUES (N&#39;a179b0ca-5ea7-467c-716b-08db9a8a2235&#39;, N&#39;Nathaniel&#39;, N&#39;331fee7c-5a82-44fe-a8ce-08db9a8839d3&#39;, CAST(N&#39;2023-08-11T12:43:47.3724653&#39; AS DateTime2), N&#39;Test user&#39;, CAST(N&#39;2023-08-11T12:43:47.3724673&#39; AS DateTime2), N&#39;Test user&#39;)&#xa;INSERT [dbo].[OtherNames] ([Id], [otherName], [EmployeeId], [Created], [CreatedBy], [LastModified], [LastModifiedBy]) VALUES (N&#39;863b5426-be43-4d9d-716c-08db9a8a2235&#39;, N&#39;Michael&#39;, N&#39;331fee7c-5a82-44fe-a8ce-08db9a8839d3&#39;, CAST(N&#39;2023-08-11T12:43:47.3725167&#39; AS DateTime2), N&#39;Test user&#39;, CAST(N&#39;2023-08-11T12:43:47.3725173&#39; AS DateTime2), N&#39;Test user&#39;)&#xa;INSERT [dbo].[OtherNames] ([Id], [otherName], [EmployeeId], [Created], [CreatedBy], [LastModified], [LastModifiedBy]) VALUES (N&#39;fc98a126-4665-4551-b61b-08dbaa1e6b76&#39;, N&#39;Nathaniel&#39;, N&#39;69bfec09-e4de-46f1-0f02-08db7dadc954&#39;, CAST(N&#39;2023-08-31T08:33:03.9584438&#39; AS DateTime2), N&#39;Test user&#39;, CAST(N&#39;2023-08-31T08:33:03.9588360&#39; AS DateTime2), N&#39;Test user&#39;)&#xa;INSERT [dbo].[OtherNames] ([Id], [otherName], [EmployeeId], [Created], [CreatedBy], [LastModified], [LastModifiedBy]) VALUES (N&#39;f556865a-95dd-441a-b61c-08dbaa1e6b76&#39;, N&#39;Critchlow&#39;, N&#39;69bfec09-e4de-46f1-0f02-08db7dadc954&#39;, CAST(N&#39;2023-08-31T08:33:23.5946837&#39; AS DateTime2), N&#39;Test user&#39;, CAST(N&#39;2023-08-31T08:33:23.5946856&#39; AS DateTime2), N&#39;Test user&#39;)&#xa;GO&#xa;INSERT [dbo].[PromotionHistories] ([Id], [PromotionHistoryDate], [Remarks], [PromotedToRankId], [PromotedToRankStatusId], [ForceOrderId], [EmployeeId], [Created], [CreatedBy], [LastModified], [LastModifiedBy]) VALUES (N&#39;d326f8a1-bcf0-4e31-d431-08db8d7eef83&#39;, CAST(N&#39;2021-07-26T02:18:07.6660000&#39; AS DateTime2), N&#39;Good job&#39;, N&#39;ac46b0d5-673f-413c-dad2-08db88b278dd&#39;, N&#39;db0236bc-445e-4bb5-a42b-08db88b9b764&#39;, N&#39;dc62a6b9-0291-47b1-8fb0-08db88c338a3&#39;, N&#39;69bfec09-e4de-46f1-0f02-08db7dadc954&#39;, CAST(N&#39;2023-07-25T22:20:53.0187143&#39; AS DateTime2), N&#39;Test user&#39;, CAST(N&#39;2023-07-25T22:20:53.0187162&#39; AS DateTime2), N&#39;Test user&#39;)&#xa;INSERT [dbo].[PromotionHistories] ([Id], [PromotionHistoryDate], [Remarks], [PromotedToRankId], [PromotedToRankStatusId], [ForceOrderId], [EmployeeId], [Created], [CreatedBy], [LastModified], [LastModifiedBy]) VALUES (N&#39;c7cafc88-2a21-46ca-d432-08db8d7eef83&#39;, CAST(N&#39;2022-07-26T02:18:07.6660000&#39; AS DateTime2), N&#39;Well done&#39;, N&#39;924e9cec-4b62-4cd0-dad6-08db88b278dd&#39;, N&#39;18be7cac-73ad-4e77-a42c-08db88b9b764&#39;, N&#39;544c941f-a155-4159-8fb1-08db88c338a3&#39;, N&#39;e3bc802f-5f88-4bd3-0f03-08db7dadc954&#39;, CAST(N&#39;2023-07-25T22:22:41.1828141&#39; AS DateTime2), N&#39;Test user&#39;, CAST(N&#39;2023-07-25T22:22:41.1828167&#39; AS DateTime2), N&#39;Test user&#39;)&#xa;INSERT [dbo].[PromotionHistories] ([Id], [PromotionHistoryDate], [Remarks], [PromotedToRankId], [PromotedToRankStatusId], [ForceOrderId], [EmployeeId], [Created], [CreatedBy], [LastModified], [LastModifiedBy]) VALUES (N&#39;ad0bfe92-cc52-434b-d433-08db8d7eef83&#39;, CAST(N&#39;2023-04-26T02:18:07.6660000&#39; AS DateTime2), N&#39;Nice job&#39;, N&#39;e163bfff-63e0-4968-dad5-08db88b278dd&#39;, N&#39;90dbda52-a582-463d-a42e-08db88b9b764&#39;, N&#39;99b794da-71c8-40c1-8fb2-08db88c338a3&#39;, N&#39;e22f87de-1aab-4ca6-0f04-08db7dadc954&#39;, CAST(N&#39;2023-07-25T22:24:42.9776222&#39; AS DateTime2), N&#39;Test user&#39;, CAST(N&#39;2023-07-25T22:24:42.9776240&#39; AS DateTime2), N&#39;Test user&#39;)&#xa;INSERT [dbo].[PromotionHistories] ([Id], [PromotionHistoryDate], [Remarks], [PromotedToRankId], [PromotedToRankStatusId], [ForceOrderId], [EmployeeId], [Created], [CreatedBy], [LastModified], [LastModifiedBy]) VALUES (N&#39;e844d568-ab54-4fdc-d434-08db8d7eef83&#39;, CAST(N&#39;2023-04-26T02:18:07.6660000&#39; AS DateTime2), N&#39;Awesome&#39;, N&#39;379f9f48-e889-4437-dadf-08db88b278dd&#39;, N&#39;db0236bc-445e-4bb5-a42b-08db88b9b764&#39;, N&#39;70c60977-d6a5-45e7-8fb3-08db88c338a3&#39;, N&#39;280aa0c0-2151-49ae-0f05-08db7dadc954&#39;, CAST(N&#39;2023-07-25T22:26:30.1411174&#39; AS DateTime2), N&#39;Test user&#39;, CAST(N&#39;2023-07-25T22:26:30.1411198&#39; AS DateTime2), N&#39;Test user&#39;)&#xa;INSERT [dbo].[PromotionHistories] ([Id], [PromotionHistoryDate], [Remarks], [PromotedToRankId], [PromotedToRankStatusId], [ForceOrderId], [EmployeeId], [Created], [CreatedBy], [LastModified], [LastModifiedBy]) VALUES (N&#39;3510dcf5-11ba-4f3b-fdd6-08db9861c1cf&#39;, CAST(N&#39;2022-08-08T22:46:38.2790000&#39; AS DateTime2), N&#39;Nice&#39;, N&#39;70933b97-9e78-4e08-dae3-08db88b278dd&#39;, N&#39;db0236bc-445e-4bb5-a42b-08db88b9b764&#39;, N&#39;dc62a6b9-0291-47b1-8fb0-08db88c338a3&#39;, N&#39;67dd26b7-5d92-4078-d4b1-08db8dec5f96&#39;, CAST(N&#39;2023-08-08T18:49:44.4895036&#39; AS DateTime2), N&#39;Test user&#39;, CAST(N&#39;2023-08-08T18:49:44.4897950&#39; AS DateTime2), N&#39;Test user&#39;)&#xa;INSERT [dbo].[PromotionHistories] ([Id], [PromotionHistoryDate], [Remarks], [PromotedToRankId], [PromotedToRankStatusId], [ForceOrderId], [EmployeeId], [Created], [CreatedBy], [LastModified], [LastModifiedBy]) VALUES (N&#39;42c86252-6250-4056-fdd7-08db9861c1cf&#39;, CAST(N&#39;2022-08-08T22:46:38.2790000&#39; AS DateTime2), N&#39;Nice&#39;, N&#39;70933b97-9e78-4e08-dae3-08db88b278dd&#39;, N&#39;db0236bc-445e-4bb5-a42b-08db88b9b764&#39;, N&#39;dc62a6b9-0291-47b1-8fb0-08db88c338a3&#39;, N&#39;a367f122-b654-46ac-d4b2-08db8dec5f96&#39;, CAST(N&#39;2023-08-08T18:50:20.6150599&#39; AS DateTime2), N&#39;Test user&#39;, CAST(N&#39;2023-08-08T18:50:20.6150625&#39; AS DateTime2), N&#39;Test user&#39;)&#xa;INSERT [dbo].[PromotionHistories] ([Id], [PromotionHistoryDate], [Remarks], [PromotedToRankId], [PromotedToRankStatusId], [ForceOrderId], [EmployeeId], [Created], [CreatedBy], [LastModified], [LastModifiedBy]) VALUES (N&#39;fbc035cb-4783-4309-fdd8-08db9861c1cf&#39;, CAST(N&#39;2022-08-08T22:46:38.2790000&#39; AS DateTime2), N&#39;Nice&#39;, N&#39;9f68fc69-59f6-4d5a-dad4-08db88b278dd&#39;, N&#39;db0236bc-445e-4bb5-a42b-08db88b9b764&#39;, N&#39;dc62a6b9-0291-47b1-8fb0-08db88c338a3&#39;, N&#39;30fd2b2a-30e2-4332-efc4-08db8ea82de0&#39;, CAST(N&#39;2023-08-08T18:51:24.1880598&#39; AS DateTime2), N&#39;Test user&#39;, CAST(N&#39;2023-08-08T18:51:24.1880630&#39; AS DateTime2), N&#39;Test user&#39;)&#xa;INSERT [dbo].[PromotionHistories] ([Id], [PromotionHistoryDate], [Remarks], [PromotedToRankId], [PromotedToRankStatusId], [ForceOrderId], [EmployeeId], [Created], [CreatedBy], [LastModified], [LastModifiedBy]) VALUES (N&#39;02bf4ea1-acd4-46e7-fdd9-08db9861c1cf&#39;, CAST(N&#39;2022-08-08T22:46:38.2790000&#39; AS DateTime2), N&#39;Nice&#39;, N&#39;9f68fc69-59f6-4d5a-dad4-08db88b278dd&#39;, N&#39;db0236bc-445e-4bb5-a42b-08db88b9b764&#39;, N&#39;dc62a6b9-0291-47b1-8fb0-08db88c338a3&#39;, N&#39;4ecf759e-9539-4365-efc7-08db8ea82de0&#39;, CAST(N&#39;2023-08-08T18:51:46.3898636&#39; AS DateTime2), N&#39;Test user&#39;, CAST(N&#39;2023-08-08T18:51:46.3898659&#39; AS DateTime2), N&#39;Test user&#39;)&#xa;INSERT [dbo].[PromotionHistories] ([Id], [PromotionHistoryDate], [Remarks], [PromotedToRankId], [PromotedToRankStatusId], [ForceOrderId], [EmployeeId], [Created], [CreatedBy], [LastModified], [LastModifiedBy]) VALUES (N&#39;d43955a5-d9d3-4b54-fdda-08db9861c1cf&#39;, CAST(N&#39;2022-08-08T22:46:38.2790000&#39; AS DateTime2), N&#39;Nice&#39;, N&#39;ac46b0d5-673f-413c-dad2-08db88b278dd&#39;, N&#39;db0236bc-445e-4bb5-a42b-08db88b9b764&#39;, N&#39;dc62a6b9-0291-47b1-8fb0-08db88c338a3&#39;, N&#39;178875c4-5e39-46c8-efc8-08db8ea82de0&#39;, CAST(N&#39;2023-08-08T18:52:28.8976203&#39; AS DateTime2), N&#39;Test user&#39;, CAST(N&#39;2023-08-08T18:52:28.8976232&#39; AS DateTime2), N&#39;Test user&#39;)&#xa;INSERT [dbo].[PromotionHistories] ([Id], [PromotionHistoryDate], [Remarks], [PromotedToRankId], [PromotedToRankStatusId], [ForceOrderId], [EmployeeId], [Created], [CreatedBy], [LastModified], [LastModifiedBy]) VALUES (N&#39;5c83bbbe-a91e-4af0-fddb-08db9861c1cf&#39;, CAST(N&#39;2022-08-08T22:46:38.2790000&#39; AS DateTime2), N&#39;Nice&#39;, N&#39;ac46b0d5-673f-413c-dad2-08db88b278dd&#39;, N&#39;db0236bc-445e-4bb5-a42b-08db88b9b764&#39;, N&#39;dc62a6b9-0291-47b1-8fb0-08db88c338a3&#39;, N&#39;cc8732f8-1290-4c8a-0bfb-08db8f6868fe&#39;, CAST(N&#39;2023-08-08T18:52:47.0829634&#39; AS DateTime2), N&#39;Test user&#39;, CAST(N&#39;2023-08-08T18:52:47.0829655&#39; AS DateTime2), N&#39;Test user&#39;)&#xa;INSERT [dbo].[PromotionHistories] ([Id], [PromotionHistoryDate], [Remarks], [PromotedToRankId], [PromotedToRankStatusId], [ForceOrderId], [EmployeeId], [Created], [CreatedBy], [LastModified], [LastModifiedBy]) VALUES (N&#39;c3fe6d70-d44e-454f-fddc-08db9861c1cf&#39;, CAST(N&#39;2022-08-08T22:46:38.2790000&#39; AS DateTime2), N&#39;Nice&#39;, N&#39;8dd9405d-98c4-4636-dae5-08db88b278dd&#39;, N&#39;db0236bc-445e-4bb5-a42b-08db88b9b764&#39;, N&#39;dc62a6b9-0291-47b1-8fb0-08db88c338a3&#39;, N&#39;3d6654b2-f120-4dd1-eb62-08db8f8154c6&#39;, CAST(N&#39;2023-08-08T18:53:40.5711983&#39; AS DateTime2), N&#39;Test user&#39;, CAST(N&#39;2023-08-08T18:53:40.5712006&#39; AS DateTime2), N&#39;Test user&#39;)&#xa;INSERT [dbo].[PromotionHistories] ([Id], [PromotionHistoryDate], [Remarks], [PromotedToRankId], [PromotedToRankStatusId], [ForceOrderId], [EmployeeId], [Created], [CreatedBy], [LastModified], [LastModifiedBy]) VALUES (N&#39;ca1f4a7a-7b21-4b93-fddd-08db9861c1cf&#39;, CAST(N&#39;2022-08-08T22:46:38.2790000&#39; AS DateTime2), N&#39;Nice&#39;, N&#39;8dd9405d-98c4-4636-dae5-08db88b278dd&#39;, N&#39;db0236bc-445e-4bb5-a42b-08db88b9b764&#39;, N&#39;dc62a6b9-0291-47b1-8fb0-08db88c338a3&#39;, N&#39;607e3d90-56f9-4260-eb64-08db8f8154c6&#39;, CAST(N&#39;2023-08-08T18:53:58.9448895&#39; AS DateTime2), N&#39;Test user&#39;, CAST(N&#39;2023-08-08T18:53:58.9448921&#39; AS DateTime2), N&#39;Test user&#39;)&#xa;INSERT [dbo].[PromotionHistories] ([Id], [PromotionHistoryDate], [Remarks], [PromotedToRankId], [PromotedToRankStatusId], [ForceOrderId], [EmployeeId], [Created], [CreatedBy], [LastModified], [LastModifiedBy]) VALUES (N&#39;18360342-ef3a-424e-fdde-08db9861c1cf&#39;, CAST(N&#39;2022-08-08T22:46:38.2790000&#39; AS DateTime2), N&#39;Nice&#39;, N&#39;52c98719-e1be-4613-dae1-08db88b278dd&#39;, N&#39;db0236bc-445e-4bb5-a42b-08db88b9b764&#39;, N&#39;dc62a6b9-0291-47b1-8fb0-08db88c338a3&#39;, N&#39;30940a21-bdfc-4a57-275b-08db8f8dfa20&#39;, CAST(N&#39;2023-08-08T18:54:55.5370763&#39; AS DateTime2), N&#39;Test user&#39;, CAST(N&#39;2023-08-08T18:54:55.5370798&#39; AS DateTime2), N&#39;Test user&#39;)&#xa;INSERT [dbo].[PromotionHistories] ([Id], [PromotionHistoryDate], [Remarks], [PromotedToRankId], [PromotedToRankStatusId], [ForceOrderId], [EmployeeId], [Created], [CreatedBy], [LastModified], [LastModifiedBy]) VALUES (N&#39;3e43ba51-c998-4e12-fddf-08db9861c1cf&#39;, CAST(N&#39;2022-08-08T22:46:38.2790000&#39; AS DateTime2), N&#39;Nice&#39;, N&#39;52c98719-e1be-4613-dae1-08db88b278dd&#39;, N&#39;db0236bc-445e-4bb5-a42b-08db88b9b764&#39;, N&#39;dc62a6b9-0291-47b1-8fb0-08db88c338a3&#39;, N&#39;a0525edd-0c5d-4fee-5aa3-08db95656cbe&#39;, CAST(N&#39;2023-08-08T18:55:09.3568425&#39; AS DateTime2), N&#39;Test user&#39;, CAST(N&#39;2023-08-08T18:55:09.3568450&#39; AS DateTime2), N&#39;Test user&#39;)&#xa;INSERT [dbo].[PromotionHistories] ([Id], [PromotionHistoryDate], [Remarks], [PromotedToRankId], [PromotedToRankStatusId], [ForceOrderId], [EmployeeId], [Created], [CreatedBy], [LastModified], [LastModifiedBy]) VALUES (N&#39;f9223a56-9339-4929-fde0-08db9861c1cf&#39;, CAST(N&#39;2022-08-08T22:46:38.2790000&#39; AS DateTime2), N&#39;Nice&#39;, N&#39;924e9cec-4b62-4cd0-dad6-08db88b278dd&#39;, N&#39;db0236bc-445e-4bb5-a42b-08db88b9b764&#39;, N&#39;dc62a6b9-0291-47b1-8fb0-08db88c338a3&#39;, N&#39;86838b57-e716-41d1-9552-08db97a1403b&#39;, CAST(N&#39;2023-08-08T18:55:48.3892833&#39; AS DateTime2), N&#39;Test user&#39;, CAST(N&#39;2023-08-08T18:55:48.3892853&#39; AS DateTime2), N&#39;Test user&#39;)&#xa;INSERT [dbo].[PromotionHistories] ([Id], [PromotionHistoryDate], [Remarks], [PromotedToRankId], [PromotedToRankStatusId], [ForceOrderId], [EmployeeId], [Created], [CreatedBy], [LastModified], [LastModifiedBy]) VALUES (N&#39;9aa24251-301f-4d44-fde1-08db9861c1cf&#39;, CAST(N&#39;2022-08-08T22:46:38.2790000&#39; AS DateTime2), N&#39;Nice&#39;, N&#39;924e9cec-4b62-4cd0-dad6-08db88b278dd&#39;, N&#39;db0236bc-445e-4bb5-a42b-08db88b9b764&#39;, N&#39;dc62a6b9-0291-47b1-8fb0-08db88c338a3&#39;, N&#39;8c0a6177-9248-468c-9553-08db97a1403b&#39;, CAST(N&#39;2023-08-08T18:56:05.1341992&#39; AS DateTime2), N&#39;Test user&#39;, CAST(N&#39;2023-08-08T18:56:05.1342016&#39; AS DateTime2), N&#39;Test user&#39;)&#xa;INSERT [dbo].[PromotionHistories] ([Id], [PromotionHistoryDate], [Remarks], [PromotedToRankId], [PromotedToRankStatusId], [ForceOrderId], [EmployeeId], [Created], [CreatedBy], [LastModified], [LastModifiedBy]) VALUES (N&#39;ad5a13db-275a-4ff0-fde2-08db9861c1cf&#39;, CAST(N&#39;2022-08-08T22:46:38.2790000&#39; AS DateTime2), N&#39;Nice&#39;, N&#39;ddb868e1-4503-4d84-dae7-08db88b278dd&#39;, N&#39;db0236bc-445e-4bb5-a42b-08db88b9b764&#39;, N&#39;dc62a6b9-0291-47b1-8fb0-08db88c338a3&#39;, N&#39;5278cb09-17e8-400b-9554-08db97a1403b&#39;, CAST(N&#39;2023-08-08T18:57:02.1579791&#39; AS DateTime2), N&#39;Test user&#39;, CAST(N&#39;2023-08-08T18:57:02.1579813&#39; AS DateTime2), N&#39;Test user&#39;)&#xa;INSERT [dbo].[PromotionHistories] ([Id], [PromotionHistoryDate], [Remarks], [PromotedToRankId], [PromotedToRankStatusId], [ForceOrderId], [EmployeeId], [Created], [CreatedBy], [LastModified], [LastModifiedBy]) VALUES (N&#39;9868e5c8-69dd-48ce-fde3-08db9861c1cf&#39;, CAST(N&#39;2022-08-08T22:46:38.2790000&#39; AS DateTime2), N&#39;Nice&#39;, N&#39;ddb868e1-4503-4d84-dae7-08db88b278dd&#39;, N&#39;db0236bc-445e-4bb5-a42b-08db88b9b764&#39;, N&#39;dc62a6b9-0291-47b1-8fb0-08db88c338a3&#39;, N&#39;123086f5-e5cd-4710-9555-08db97a1403b&#39;, CAST(N&#39;2023-08-08T18:57:20.1932213&#39; AS DateTime2), N&#39;Test user&#39;, CAST(N&#39;2023-08-08T18:57:20.1932234&#39; AS DateTime2), N&#39;Test user&#39;)&#xa;GO&#xa;INSERT [dbo].[Races] ([Id], [RaceType], [Created], [CreatedBy], [LastModified], [LastModifiedBy]) VALUES (N&#39;d90c8d5b-22f0-4695-d774-08db7dac382b&#39;, N&#39;African&#39;, CAST(N&#39;2023-07-05T19:04:43.4691128&#39; AS DateTime2), N&#39;Test user&#39;, CAST(N&#39;2023-07-05T19:04:43.4691143&#39; AS DateTime2), N&#39;Test user&#39;)&#xa;INSERT [dbo].[Races] ([Id], [RaceType], [Created], [CreatedBy], [LastModified], [LastModifiedBy]) VALUES (N&#39;8aff7254-5d41-43a4-d775-08db7dac382b&#39;, N&#39;Indian&#39;, CAST(N&#39;2023-07-05T19:04:51.7596204&#39; AS DateTime2), N&#39;Test user&#39;, CAST(N&#39;2023-07-05T19:04:51.7596219&#39; AS DateTime2), N&#39;Test user&#39;)&#xa;INSERT [dbo].[Races] ([Id], [RaceType], [Created], [CreatedBy], [LastModified], [LastModifiedBy]) VALUES (N&#39;19c099ba-c7e1-41d0-d776-08db7dac382b&#39;, N&#39;Amerindian&#39;, CAST(N&#39;2023-07-05T19:05:03.3663705&#39; AS DateTime2), N&#39;Test user&#39;, CAST(N&#39;2023-07-05T19:05:03.3663720&#39; AS DateTime2), N&#39;Test user&#39;)&#xa;INSERT [dbo].[Races] ([Id], [RaceType], [Created], [CreatedBy], [LastModified], [LastModifiedBy]) VALUES (N&#39;8c778092-5532-439e-d777-08db7dac382b&#39;, N&#39;Chinese&#39;, CAST(N&#39;2023-07-05T19:05:16.7698199&#39; AS DateTime2), N&#39;Test user&#39;, CAST(N&#39;2023-07-05T19:05:16.7698221&#39; AS DateTime2), N&#39;Test user&#39;)&#xa;INSERT [dbo].[Races] ([Id], [RaceType], [Created], [CreatedBy], [LastModified], [LastModifiedBy]) VALUES (N&#39;4d61a222-1d07-4753-d778-08db7dac382b&#39;, N&#39;Mixed&#39;, CAST(N&#39;2023-07-05T19:05:26.0941825&#39; AS DateTime2), N&#39;Test user&#39;, CAST(N&#39;2023-07-05T19:05:26.0941840&#39; AS DateTime2), N&#39;Test user&#39;)&#xa;GO&#xa;INSERT [dbo].[Ranks] ([Id], [RankName], [RankFullName], [RankOrder], [RetirementAge], [Created], [CreatedBy], [LastModified], [LastModifiedBy]) VALUES (N&#39;dfc1f2d1-e3db-4178-dacb-08db88b278dd&#39;, N&#39;CIV&#39;, N&#39;Civilian&#39;, 17, 55, CAST(N&#39;2023-07-19T19:47:12.3483575&#39; AS DateTime2), N&#39;Test user&#39;, CAST(N&#39;2023-07-19T19:47:12.3485945&#39; AS DateTime2), N&#39;Test user&#39;)&#xa;INSERT [dbo].[Ranks] ([Id], [RankName], [RankFullName], [RankOrder], [RetirementAge], [Created], [CreatedBy], [LastModified], [LastModifiedBy]) VALUES (N&#39;56bec77a-5861-477d-dacc-08db88b278dd&#39;, N&#39;Aspt&#39;, N&#39;Aspirant&#39;, 17, 40, CAST(N&#39;2023-07-19T20:06:50.5060569&#39; AS DateTime2), N&#39;Test user&#39;, CAST(N&#39;2023-07-19T20:06:50.5060599&#39; AS DateTime2), N&#39;Test user&#39;)&#xa;INSERT [dbo].[Ranks] ([Id], [RankName], [RankFullName], [RankOrder], [RetirementAge], [Created], [CreatedBy], [LastModified], [LastModifiedBy]) VALUES (N&#39;2b2bae00-e9ef-4f1a-dacd-08db88b278dd&#39;, N&#39;RCT&#39;, N&#39;Recruit&#39;, 17, 40, CAST(N&#39;2023-07-19T20:07:15.8751053&#39; AS DateTime2), N&#39;Test user&#39;, CAST(N&#39;2023-07-19T20:07:15.8751077&#39; AS DateTime2), N&#39;Test user&#39;)&#xa;INSERT [dbo].[Ranks] ([Id], [RankName], [RankFullName], [RankOrder], [RetirementAge], [Created], [CreatedBy], [LastModified], [LastModifiedBy]) VALUES (N&#39;5a254827-be41-4b7e-dace-08db88b278dd&#39;, N&#39;OR&#39;, N&#39;Ordinary Rating&#39;, 16, 40, CAST(N&#39;2023-07-19T20:08:34.8812995&#39; AS DateTime2), N&#39;Test user&#39;, CAST(N&#39;2023-07-19T20:08:34.8813019&#39; AS DateTime2), N&#39;Test user&#39;)&#xa;INSERT [dbo].[Ranks] ([Id], [RankName], [RankFullName], [RankOrder], [RetirementAge], [Created], [CreatedBy], [LastModified], [LastModifiedBy]) VALUES (N&#39;5d3c65df-ec72-4906-dacf-08db88b278dd&#39;, N&#39;PTE&#39;, N&#39;Private&#39;, 16, 40, CAST(N&#39;2023-07-19T20:09:10.6951314&#39; AS DateTime2), N&#39;Test user&#39;, CAST(N&#39;2023-07-19T20:09:10.6951389&#39; AS DateTime2), N&#39;Test user&#39;)&#xa;INSERT [dbo].[Ranks] ([Id], [RankName], [RankFullName], [RankOrder], [RetirementAge], [Created], [CreatedBy], [LastModified], [LastModifiedBy]) VALUES (N&#39;04230de3-c203-4f0d-dad0-08db88b278dd&#39;, N&#39;LCPL&#39;, N&#39;Lance Corporal&#39;, 15, 40, CAST(N&#39;2023-07-19T20:10:14.7614967&#39; AS DateTime2), N&#39;Test user&#39;, CAST(N&#39;2023-07-19T20:10:14.7614992&#39; AS DateTime2), N&#39;Test user&#39;)&#xa;INSERT [dbo].[Ranks] ([Id], [RankName], [RankFullName], [RankOrder], [RetirementAge], [Created], [CreatedBy], [LastModified], [LastModifiedBy]) VALUES (N&#39;f15c1202-1515-4921-dad1-08db88b278dd&#39;, N&#39;AR&#39;, N&#39;Able Rating&#39;, 15, 40, CAST(N&#39;2023-07-19T20:10:42.5002726&#39; AS DateTime2), N&#39;Test user&#39;, CAST(N&#39;2023-07-19T20:10:42.5002745&#39; AS DateTime2), N&#39;Test user&#39;)&#xa;INSERT [dbo].[Ranks] ([Id], [RankName], [RankFullName], [RankOrder], [RetirementAge], [Created], [CreatedBy], [LastModified], [LastModifiedBy]) VALUES (N&#39;ac46b0d5-673f-413c-dad2-08db88b278dd&#39;, N&#39;CPL&#39;, N&#39;Corporal&#39;, 14, 40, CAST(N&#39;2023-07-19T20:11:36.2485025&#39; AS DateTime2), N&#39;Test user&#39;, CAST(N&#39;2023-07-19T20:11:36.2485047&#39; AS DateTime2), N&#39;Test user&#39;)&#xa;INSERT [dbo].[Ranks] ([Id], [RankName], [RankFullName], [RankOrder], [RetirementAge], [Created], [CreatedBy], [LastModified], [LastModifiedBy]) VALUES (N&#39;1294c4c9-e130-452b-dad3-08db88b278dd&#39;, N&#39;LR&#39;, N&#39;Leading Rating&#39;, 14, 40, CAST(N&#39;2023-07-19T20:11:58.6930938&#39; AS DateTime2), N&#39;Test user&#39;, CAST(N&#39;2023-07-19T20:11:58.6930959&#39; AS DateTime2), N&#39;Test user&#39;)&#xa;INSERT [dbo].[Ranks] ([Id], [RankName], [RankFullName], [RankOrder], [RetirementAge], [Created], [CreatedBy], [LastModified], [LastModifiedBy]) VALUES (N&#39;9f68fc69-59f6-4d5a-dad4-08db88b278dd&#39;, N&#39;SGT&#39;, N&#39;Sergeant&#39;, 13, 40, CAST(N&#39;2023-07-19T20:13:05.4459049&#39; AS DateTime2), N&#39;Test user&#39;, CAST(N&#39;2023-07-19T20:13:05.4459071&#39; AS DateTime2), N&#39;Test user&#39;)&#xa;INSERT [dbo].[Ranks] ([Id], [RankName], [RankFullName], [RankOrder], [RetirementAge], [Created], [CreatedBy], [LastModified], [LastModifiedBy]) VALUES (N&#39;e163bfff-63e0-4968-dad5-08db88b278dd&#39;, N&#39;PO&#39;, N&#39;Petty Officer&#39;, 13, 40, CAST(N&#39;2023-07-19T20:13:39.2630019&#39; AS DateTime2), N&#39;Test user&#39;, CAST(N&#39;2023-07-19T20:13:39.2630043&#39; AS DateTime2), N&#39;Test user&#39;)&#xa;INSERT [dbo].[Ranks] ([Id], [RankName], [RankFullName], [RankOrder], [RetirementAge], [Created], [CreatedBy], [LastModified], [LastModifiedBy]) VALUES (N&#39;924e9cec-4b62-4cd0-dad6-08db88b278dd&#39;, N&#39;SSGT&#39;, N&#39;Staff Sergeant&#39;, 12, 40, CAST(N&#39;2023-07-19T20:14:26.1294360&#39; AS DateTime2), N&#39;Test user&#39;, CAST(N&#39;2023-07-19T20:14:26.1294385&#39; AS DateTime2), N&#39;Test user&#39;)&#xa;INSERT [dbo].[Ranks] ([Id], [RankName], [RankFullName], [RankOrder], [RetirementAge], [Created], [CreatedBy], [LastModified], [LastModifiedBy]) VALUES (N&#39;e357e5a1-7927-4bb8-dad7-08db88b278dd&#39;, N&#39;SPO&#39;, N&#39;Senior Petty Officer&#39;, 12, 40, CAST(N&#39;2023-07-19T20:14:56.0406379&#39; AS DateTime2), N&#39;Test user&#39;, CAST(N&#39;2023-07-19T20:14:56.0406407&#39; AS DateTime2), N&#39;Test user&#39;)&#xa;INSERT [dbo].[Ranks] ([Id], [RankName], [RankFullName], [RankOrder], [RetirementAge], [Created], [CreatedBy], [LastModified], [LastModifiedBy]) VALUES (N&#39;1f9590d0-a92b-4316-dad8-08db88b278dd&#39;, N&#39;WO2&#39;, N&#39;Warrant Officer Class 2&#39;, 11, 45, CAST(N&#39;2023-07-19T20:16:55.4198814&#39; AS DateTime2), N&#39;Test user&#39;, CAST(N&#39;2023-07-19T20:16:55.4198844&#39; AS DateTime2), N&#39;Test user&#39;)&#xa;INSERT [dbo].[Ranks] ([Id], [RankName], [RankFullName], [RankOrder], [RetirementAge], [Created], [CreatedBy], [LastModified], [LastModifiedBy]) VALUES (N&#39;97df24bd-ab64-4015-dad9-08db88b278dd&#39;, N&#39;CPO&#39;, N&#39;Chief Petty Officer&#39;, 11, 45, CAST(N&#39;2023-07-19T20:17:26.0821933&#39; AS DateTime2), N&#39;Test user&#39;, CAST(N&#39;2023-07-19T20:17:26.0821957&#39; AS DateTime2), N&#39;Test user&#39;)&#xa;INSERT [dbo].[Ranks] ([Id], [RankName], [RankFullName], [RankOrder], [RetirementAge], [Created], [CreatedBy], [LastModified], [LastModifiedBy]) VALUES (N&#39;1abfb7de-9eca-4230-dada-08db88b278dd&#39;, N&#39;WO1&#39;, N&#39;Warrant Officer Class 1&#39;, 10, 45, CAST(N&#39;2023-07-19T20:18:09.1619950&#39; AS DateTime2), N&#39;Test user&#39;, CAST(N&#39;2023-07-19T20:18:09.1619979&#39; AS DateTime2), N&#39;Test user&#39;)&#xa;INSERT [dbo].[Ranks] ([Id], [RankName], [RankFullName], [RankOrder], [RetirementAge], [Created], [CreatedBy], [LastModified], [LastModifiedBy]) VALUES (N&#39;d3ccb77b-c831-4e03-dadb-08db88b278dd&#39;, N&#39;FCPO&#39;, N&#39;Fleet Chief Petty Officer&#39;, 10, 45, CAST(N&#39;2023-07-19T20:18:44.0485793&#39; AS DateTime2), N&#39;Test user&#39;, CAST(N&#39;2023-07-19T20:18:44.0485814&#39; AS DateTime2), N&#39;Test user&#39;)&#xa;INSERT [dbo].[Ranks] ([Id], [RankName], [RankFullName], [RankOrder], [RetirementAge], [Created], [CreatedBy], [LastModified], [LastModifiedBy]) VALUES (N&#39;9e92957d-93ef-48c1-dadc-08db88b278dd&#39;, N&#39;TWO&#39;, N&#39;Technical Warrant Officer&#39;, 11, 45, CAST(N&#39;2023-07-19T20:19:50.5253745&#39; AS DateTime2), N&#39;Test user&#39;, CAST(N&#39;2023-07-19T20:19:50.5253765&#39; AS DateTime2), N&#39;Test user&#39;)&#xa;INSERT [dbo].[Ranks] ([Id], [RankName], [RankFullName], [RankOrder], [RetirementAge], [Created], [CreatedBy], [LastModified], [LastModifiedBy]) VALUES (N&#39;915b4a97-7b4b-4373-dadd-08db88b278dd&#39;, N&#39;Ocdt&#39;, N&#39;Officer Cadet&#39;, 9, 40, CAST(N&#39;2023-07-19T20:21:00.5035562&#39; AS DateTime2), N&#39;Test user&#39;, CAST(N&#39;2023-07-19T20:21:00.5035580&#39; AS DateTime2), N&#39;Test user&#39;)&#xa;INSERT [dbo].[Ranks] ([Id], [RankName], [RankFullName], [RankOrder], [RetirementAge], [Created], [CreatedBy], [LastModified], [LastModifiedBy]) VALUES (N&#39;e037df02-3516-4a93-dade-08db88b278dd&#39;, N&#39;Esn&#39;, N&#39;Ensign&#39;, 9, 40, CAST(N&#39;2023-07-19T20:21:29.8792349&#39; AS DateTime2), N&#39;Test user&#39;, CAST(N&#39;2023-07-19T20:21:29.8792374&#39; AS DateTime2), N&#39;Test user&#39;)&#xa;INSERT [dbo].[Ranks] ([Id], [RankName], [RankFullName], [RankOrder], [RetirementAge], [Created], [CreatedBy], [LastModified], [LastModifiedBy]) VALUES (N&#39;379f9f48-e889-4437-dadf-08db88b278dd&#39;, N&#39;2Lt&#39;, N&#39;Second Lieutenant&#39;, 8, 50, CAST(N&#39;2023-07-19T20:22:14.3014016&#39; AS DateTime2), N&#39;Test user&#39;, CAST(N&#39;2023-07-19T20:22:14.3014041&#39; AS DateTime2), N&#39;Test user&#39;)&#xa;INSERT [dbo].[Ranks] ([Id], [RankName], [RankFullName], [RankOrder], [RetirementAge], [Created], [CreatedBy], [LastModified], [LastModifiedBy]) VALUES (N&#39;9dfcd29e-08df-4735-dae0-08db88b278dd&#39;, N&#39;Mid&#39;, N&#39;Midshipman&#39;, 8, 50, CAST(N&#39;2023-07-19T20:22:37.2457133&#39; AS DateTime2), N&#39;Test user&#39;, CAST(N&#39;2023-07-19T20:22:37.2457150&#39; AS DateTime2), N&#39;Test user&#39;)&#xa;INSERT [dbo].[Ranks] ([Id], [RankName], [RankFullName], [RankOrder], [RetirementAge], [Created], [CreatedBy], [LastModified], [LastModifiedBy]) VALUES (N&#39;52c98719-e1be-4613-dae1-08db88b278dd&#39;, N&#39;Lt&#39;, N&#39;Lieutenant&#39;, 7, 50, CAST(N&#39;2023-07-19T20:23:30.0778643&#39; AS DateTime2), N&#39;Test user&#39;, CAST(N&#39;2023-07-19T20:23:30.0778663&#39; AS DateTime2), N&#39;Test user&#39;)&#xa;INSERT [dbo].[Ranks] ([Id], [RankName], [RankFullName], [RankOrder], [RetirementAge], [Created], [CreatedBy], [LastModified], [LastModifiedBy]) VALUES (N&#39;c9ffa98c-2946-4b8e-dae2-08db88b278dd&#39;, N&#39;S/Lt&#39;, N&#39;Sub-Lieutenant&#39;, 7, 50, CAST(N&#39;2023-07-19T20:23:56.1479996&#39; AS DateTime2), N&#39;Test user&#39;, CAST(N&#39;2023-07-19T20:23:56.1480015&#39; AS DateTime2), N&#39;Test user&#39;)&#xa;INSERT [dbo].[Ranks] ([Id], [RankName], [RankFullName], [RankOrder], [RetirementAge], [Created], [CreatedBy], [LastModified], [LastModifiedBy]) VALUES (N&#39;70933b97-9e78-4e08-dae3-08db88b278dd&#39;, N&#39;Capt&#39;, N&#39;Captain&#39;, 6, 50, CAST(N&#39;2023-07-19T20:24:36.5516589&#39; AS DateTime2), N&#39;Test user&#39;, CAST(N&#39;2023-07-19T20:24:36.5516608&#39; AS DateTime2), N&#39;Test user&#39;)&#xa;INSERT [dbo].[Ranks] ([Id], [RankName], [RankFullName], [RankOrder], [RetirementAge], [Created], [CreatedBy], [LastModified], [LastModifiedBy]) VALUES (N&#39;1e253c9d-80a6-4b14-dae4-08db88b278dd&#39;, N&#39;Lt(CG)&#39;, N&#39;Lieutenant CoastGuard&#39;, 6, 50, CAST(N&#39;2023-07-19T20:25:28.1939208&#39; AS DateTime2), N&#39;Test user&#39;, CAST(N&#39;2023-07-19T20:25:28.1939227&#39; AS DateTime2), N&#39;Test user&#39;)&#xa;INSERT [dbo].[Ranks] ([Id], [RankName], [RankFullName], [RankOrder], [RetirementAge], [Created], [CreatedBy], [LastModified], [LastModifiedBy]) VALUES (N&#39;8dd9405d-98c4-4636-dae5-08db88b278dd&#39;, N&#39;Maj&#39;, N&#39;Major&#39;, 5, 50, CAST(N&#39;2023-07-19T20:26:29.4634429&#39; AS DateTime2), N&#39;Test user&#39;, CAST(N&#39;2023-07-19T20:26:29.4634465&#39; AS DateTime2), N&#39;Test user&#39;)&#xa;INSERT [dbo].[Ranks] ([Id], [RankName], [RankFullName], [RankOrder], [RetirementAge], [Created], [CreatedBy], [LastModified], [LastModifiedBy]) VALUES (N&#39;db07f332-dd28-47d2-dae6-08db88b278dd&#39;, N&#39;Lt Cdr&#39;, N&#39;Lieutenant Commander&#39;, 5, 50, CAST(N&#39;2023-07-19T20:26:52.2613417&#39; AS DateTime2), N&#39;Test user&#39;, CAST(N&#39;2023-07-19T20:26:52.2613437&#39; AS DateTime2), N&#39;Test user&#39;)&#xa;INSERT [dbo].[Ranks] ([Id], [RankName], [RankFullName], [RankOrder], [RetirementAge], [Created], [CreatedBy], [LastModified], [LastModifiedBy]) VALUES (N&#39;ddb868e1-4503-4d84-dae7-08db88b278dd&#39;, N&#39;Lt Col&#39;, N&#39;Lieutenant Colonel&#39;, 4, 55, CAST(N&#39;2023-07-19T20:28:15.1299330&#39; AS DateTime2), N&#39;Test user&#39;, CAST(N&#39;2023-07-19T20:28:15.1299361&#39; AS DateTime2), N&#39;Test user&#39;)&#xa;INSERT [dbo].[Ranks] ([Id], [RankName], [RankFullName], [RankOrder], [RetirementAge], [Created], [CreatedBy], [LastModified], [LastModifiedBy]) VALUES (N&#39;bede4f44-3d30-4b8e-dae8-08db88b278dd&#39;, N&#39;Cdr&#39;, N&#39;Commander&#39;, 4, 55, CAST(N&#39;2023-07-19T20:28:52.5268754&#39; AS DateTime2), N&#39;Test user&#39;, CAST(N&#39;2023-07-19T20:28:52.5268773&#39; AS DateTime2), N&#39;Test user&#39;)&#xa;INSERT [dbo].[Ranks] ([Id], [RankName], [RankFullName], [RankOrder], [RetirementAge], [Created], [CreatedBy], [LastModified], [LastModifiedBy]) VALUES (N&#39;1c649fd6-02d1-4bee-dae9-08db88b278dd&#39;, N&#39;Col&#39;, N&#39;Colonel&#39;, 3, 55, CAST(N&#39;2023-07-19T20:29:21.7580413&#39; AS DateTime2), N&#39;Test user&#39;, CAST(N&#39;2023-07-19T20:29:21.7580434&#39; AS DateTime2), N&#39;Test user&#39;)&#xa;INSERT [dbo].[Ranks] ([Id], [RankName], [RankFullName], [RankOrder], [RetirementAge], [Created], [CreatedBy], [LastModified], [LastModifiedBy]) VALUES (N&#39;89981c65-a1f4-4544-daea-08db88b278dd&#39;, N&#39;Capt(CG)&#39;, N&#39;Captain Coast Guard&#39;, 3, 55, CAST(N&#39;2023-07-19T20:29:52.6507284&#39; AS DateTime2), N&#39;Test user&#39;, CAST(N&#39;2023-07-19T20:29:52.6507301&#39; AS DateTime2), N&#39;Test user&#39;)&#xa;INSERT [dbo].[Ranks] ([Id], [RankName], [RankFullName], [RankOrder], [RetirementAge], [Created], [CreatedBy], [LastModified], [LastModifiedBy]) VALUES (N&#39;e3a3c7bc-db9d-4375-daeb-08db88b278dd&#39;, N&#39;Brig&#39;, N&#39;Brigadier&#39;, 2, 55, CAST(N&#39;2023-07-19T20:31:49.8835286&#39; AS DateTime2), N&#39;Test user&#39;, CAST(N&#39;2023-07-19T20:31:49.8835304&#39; AS DateTime2), N&#39;Test user&#39;)&#xa;INSERT [dbo].[Ranks] ([Id], [RankName], [RankFullName], [RankOrder], [RetirementAge], [Created], [CreatedBy], [LastModified], [LastModifiedBy]) VALUES (N&#39;8b21b08f-125c-403c-daec-08db88b278dd&#39;, N&#39;Cdre&#39;, N&#39;Commodore&#39;, 2, 55, CAST(N&#39;2023-07-19T20:32:11.4209872&#39; AS DateTime2), N&#39;Test user&#39;, CAST(N&#39;2023-07-19T20:32:11.4210046&#39; AS DateTime2), N&#39;Test user&#39;)&#xa;INSERT [dbo].[Ranks] ([Id], [RankName], [RankFullName], [RankOrder], [RetirementAge], [Created], [CreatedBy], [LastModified], [LastModifiedBy]) VALUES (N&#39;68d0d533-5ebc-4363-daed-08db88b278dd&#39;, N&#39;Maj Gen&#39;, N&#39;Major General&#39;, 1, 55, CAST(N&#39;2023-07-19T20:32:42.4655787&#39; AS DateTime2), N&#39;Test user&#39;, CAST(N&#39;2023-07-19T20:32:42.4655808&#39; AS DateTime2), N&#39;Test user&#39;)&#xa;INSERT [dbo].[Ranks] ([Id], [RankName], [RankFullName], [RankOrder], [RetirementAge], [Created], [CreatedBy], [LastModified], [LastModifiedBy]) VALUES (N&#39;819951f4-20d9-436a-daee-08db88b278dd&#39;, N&#39;Rear Adm&#39;, N&#39;Rear Admiral&#39;, 1, 55, CAST(N&#39;2023-07-19T20:33:36.0389518&#39; AS DateTime2), N&#39;Test user&#39;, CAST(N&#39;2023-07-19T20:33:36.0389547&#39; AS DateTime2), N&#39;Test user&#39;)&#xa;GO&#xa;INSERT [dbo].[RankStatuses] ([Id], [Status], [StatusName], [RankStatusOrder], [Created], [CreatedBy], [LastModified], [LastModifiedBy]) VALUES (N&#39;db0236bc-445e-4bb5-a42b-08db88b9b764&#39;, N&#39;Sub&#39;, N&#39;Substantive&#39;, 1, CAST(N&#39;2023-07-19T20:39:03.1376201&#39; AS DateTime2), N&#39;Test user&#39;, CAST(N&#39;2023-07-19T20:39:03.1376218&#39; AS DateTime2), N&#39;Test user&#39;)&#xa;INSERT [dbo].[RankStatuses] ([Id], [Status], [StatusName], [RankStatusOrder], [Created], [CreatedBy], [LastModified], [LastModifiedBy]) VALUES (N&#39;18be7cac-73ad-4e77-a42c-08db88b9b764&#39;, N&#39;Ag&#39;, N&#39;Acting&#39;, 2, CAST(N&#39;2023-07-19T20:39:37.0145895&#39; AS DateTime2), N&#39;Test user&#39;, CAST(N&#39;2023-07-19T20:39:37.0145926&#39; AS DateTime2), N&#39;Test user&#39;)&#xa;INSERT [dbo].[RankStatuses] ([Id], [Status], [StatusName], [RankStatusOrder], [Created], [CreatedBy], [LastModified], [LastModifiedBy]) VALUES (N&#39;6c939e01-c59b-403a-a42d-08db88b9b764&#39;, N&#39;Loc&#39;, N&#39;Local&#39;, 3, CAST(N&#39;2023-07-19T20:39:55.6521242&#39; AS DateTime2), N&#39;Test user&#39;, CAST(N&#39;2023-07-19T20:39:55.6521261&#39; AS DateTime2), N&#39;Test user&#39;)&#xa;INSERT [dbo].[RankStatuses] ([Id], [Status], [StatusName], [RankStatusOrder], [Created], [CreatedBy], [LastModified], [LastModifiedBy]) VALUES (N&#39;90dbda52-a582-463d-a42e-08db88b9b764&#39;, N&#39;Atw&#39;, N&#39;Authorised To Wear&#39;, 4, CAST(N&#39;2023-07-19T20:40:43.6408556&#39; AS DateTime2), N&#39;Test user&#39;, CAST(N&#39;2023-07-19T20:40:43.6408576&#39; AS DateTime2), N&#39;Test user&#39;)&#xa;INSERT [dbo].[RankStatuses] ([Id], [Status], [StatusName], [RankStatusOrder], [Created], [CreatedBy], [LastModified], [LastModifiedBy]) VALUES (N&#39;76784c9e-fe2d-4df6-a42f-08db88b9b764&#39;, N&#39;Hon&#39;, N&#39;Honorary&#39;, 5, CAST(N&#39;2023-07-19T20:41:12.5453642&#39; AS DateTime2), N&#39;Test user&#39;, CAST(N&#39;2023-07-19T20:41:12.5453660&#39; AS DateTime2), N&#39;Test user&#39;)&#xa;GO&#xa;INSERT [dbo].[RegimentalNumbers] ([Id], [EmpRegimentalNumber], [DateIssued], [IsActive], [EmployeeId], [Created], [CreatedBy], [LastModified], [LastModifiedBy]) VALUES (N&#39;97b8f4c0-4886-4b5e-fc64-08db84867b68&#39;, N&#39;303030&#39;, CAST(N&#39;2023-07-14T16:21:53.6750000&#39; AS DateTime2), 1, N&#39;e3bc802f-5f88-4bd3-0f03-08db7dadc954&#39;, CAST(N&#39;2023-07-14T12:33:40.3738992&#39; AS DateTime2), N&#39;Test user&#39;, CAST(N&#39;2023-07-14T12:33:40.3739023&#39; AS DateTime2), N&#39;Test user&#39;)&#xa;INSERT [dbo].[RegimentalNumbers] ([Id], [EmpRegimentalNumber], [DateIssued], [IsActive], [EmployeeId], [Created], [CreatedBy], [LastModified], [LastModifiedBy]) VALUES (N&#39;91b08681-399e-4b21-f45d-08db8674c75a&#39;, N&#39;303031&#39;, CAST(N&#39;2023-07-17T03:20:06.0300000&#39; AS DateTime2), 1, N&#39;69bfec09-e4de-46f1-0f02-08db7dadc954&#39;, CAST(N&#39;2023-07-16T23:20:33.2105764&#39; AS DateTime2), N&#39;Test user&#39;, CAST(N&#39;2023-07-16T23:20:33.2108752&#39; AS DateTime2), N&#39;Test user&#39;)&#xa;INSERT [dbo].[RegimentalNumbers] ([Id], [EmpRegimentalNumber], [DateIssued], [IsActive], [EmployeeId], [Created], [CreatedBy], [LastModified], [LastModifiedBy]) VALUES (N&#39;d8f6a48b-6645-47dd-f45e-08db8674c75a&#39;, N&#39;303032&#39;, CAST(N&#39;2023-07-17T03:20:06.0300000&#39; AS DateTime2), 1, N&#39;e22f87de-1aab-4ca6-0f04-08db7dadc954&#39;, CAST(N&#39;2023-07-16T23:21:12.0488222&#39; AS DateTime2), N&#39;Test user&#39;, CAST(N&#39;2023-07-16T23:21:12.0488245&#39; AS DateTime2), N&#39;Test user&#39;)&#xa;INSERT [dbo].[RegimentalNumbers] ([Id], [EmpRegimentalNumber], [DateIssued], [IsActive], [EmployeeId], [Created], [CreatedBy], [LastModified], [LastModifiedBy]) VALUES (N&#39;24bded69-90a8-405d-f45f-08db8674c75a&#39;, N&#39;303033&#39;, CAST(N&#39;2023-07-17T03:20:06.0300000&#39; AS DateTime2), 1, N&#39;280aa0c0-2151-49ae-0f05-08db7dadc954&#39;, CAST(N&#39;2023-07-16T23:21:35.2985296&#39; AS DateTime2), N&#39;Test user&#39;, CAST(N&#39;2023-07-16T23:21:35.2985315&#39; AS DateTime2), N&#39;Test user&#39;)&#xa;INSERT [dbo].[RegimentalNumbers] ([Id], [EmpRegimentalNumber], [DateIssued], [IsActive], [EmployeeId], [Created], [CreatedBy], [LastModified], [LastModifiedBy]) VALUES (N&#39;837964fb-1da9-4699-7a0f-08db97b15ca3&#39;, N&#39;303034&#39;, CAST(N&#39;2023-08-08T01:46:31.4380000&#39; AS DateTime2), 1, N&#39;5278cb09-17e8-400b-9554-08db97a1403b&#39;, CAST(N&#39;2023-08-07T21:47:02.3997383&#39; AS DateTime2), N&#39;Test user&#39;, CAST(N&#39;2023-08-07T21:47:02.3997411&#39; AS DateTime2), N&#39;Test user&#39;)&#xa;INSERT [dbo].[RegimentalNumbers] ([Id], [EmpRegimentalNumber], [DateIssued], [IsActive], [EmployeeId], [Created], [CreatedBy], [LastModified], [LastModifiedBy]) VALUES (N&#39;5c256b74-2472-4164-7a10-08db97b15ca3&#39;, N&#39;303035&#39;, CAST(N&#39;2023-08-07T00:00:00.0000000&#39; AS DateTime2), 1, N&#39;123086f5-e5cd-4710-9555-08db97a1403b&#39;, CAST(N&#39;2023-08-07T22:00:43.7240420&#39; AS DateTime2), N&#39;Test user&#39;, CAST(N&#39;2023-08-07T22:00:43.7240439&#39; AS DateTime2), N&#39;Test user&#39;)&#xa;INSERT [dbo].[RegimentalNumbers] ([Id], [EmpRegimentalNumber], [DateIssued], [IsActive], [EmployeeId], [Created], [CreatedBy], [LastModified], [LastModifiedBy]) VALUES (N&#39;89d9643f-17ae-484a-74fd-08db98632629&#39;, N&#39;303036&#39;, CAST(N&#39;2023-08-08T22:59:10.5500000&#39; AS DateTime2), 1, N&#39;67dd26b7-5d92-4078-d4b1-08db8dec5f96&#39;, CAST(N&#39;2023-08-08T18:59:41.3657841&#39; AS DateTime2), N&#39;Test user&#39;, CAST(N&#39;2023-08-08T18:59:41.3657865&#39; AS DateTime2), N&#39;Test user&#39;)&#xa;INSERT [dbo].[RegimentalNumbers] ([Id], [EmpRegimentalNumber], [DateIssued], [IsActive], [EmployeeId], [Created], [CreatedBy], [LastModified], [LastModifiedBy]) VALUES (N&#39;f23212f4-c8e5-4dee-74fe-08db98632629&#39;, N&#39;303037&#39;, CAST(N&#39;2023-08-08T22:59:10.5500000&#39; AS DateTime2), 1, N&#39;a367f122-b654-46ac-d4b2-08db8dec5f96&#39;, CAST(N&#39;2023-08-08T19:00:04.6631788&#39; AS DateTime2), N&#39;Test user&#39;, CAST(N&#39;2023-08-08T19:00:04.6631817&#39; AS DateTime2), N&#39;Test user&#39;)&#xa;INSERT [dbo].[RegimentalNumbers] ([Id], [EmpRegimentalNumber], [DateIssued], [IsActive], [EmployeeId], [Created], [CreatedBy], [LastModified], [LastModifiedBy]) VALUES (N&#39;2005024b-d85d-415b-74ff-08db98632629&#39;, N&#39;303038&#39;, CAST(N&#39;2023-08-08T22:59:10.5500000&#39; AS DateTime2), 1, N&#39;30fd2b2a-30e2-4332-efc4-08db8ea82de0&#39;, CAST(N&#39;2023-08-08T19:00:34.2545191&#39; AS DateTime2), N&#39;Test user&#39;, CAST(N&#39;2023-08-08T19:00:34.2545213&#39; AS DateTime2), N&#39;Test user&#39;)&#xa;INSERT [dbo].[RegimentalNumbers] ([Id], [EmpRegimentalNumber], [DateIssued], [IsActive], [EmployeeId], [Created], [CreatedBy], [LastModified], [LastModifiedBy]) VALUES (N&#39;98389f10-42ab-4063-7500-08db98632629&#39;, N&#39;303039&#39;, CAST(N&#39;2023-08-08T22:59:10.5500000&#39; AS DateTime2), 1, N&#39;4ecf759e-9539-4365-efc7-08db8ea82de0&#39;, CAST(N&#39;2023-08-08T19:01:02.0475302&#39; AS DateTime2), N&#39;Test user&#39;, CAST(N&#39;2023-08-08T19:01:02.0475324&#39; AS DateTime2), N&#39;Test user&#39;)&#xa;INSERT [dbo].[RegimentalNumbers] ([Id], [EmpRegimentalNumber], [DateIssued], [IsActive], [EmployeeId], [Created], [CreatedBy], [LastModified], [LastModifiedBy]) VALUES (N&#39;4e0571fe-be8e-4e76-7501-08db98632629&#39;, N&#39;303040&#39;, CAST(N&#39;2023-08-08T22:59:10.5500000&#39; AS DateTime2), 1, N&#39;178875c4-5e39-46c8-efc8-08db8ea82de0&#39;, CAST(N&#39;2023-08-08T19:01:21.0292094&#39; AS DateTime2), N&#39;Test user&#39;, CAST(N&#39;2023-08-08T19:01:21.0292118&#39; AS DateTime2), N&#39;Test user&#39;)&#xa;INSERT [dbo].[RegimentalNumbers] ([Id], [EmpRegimentalNumber], [DateIssued], [IsActive], [EmployeeId], [Created], [CreatedBy], [LastModified], [LastModifiedBy]) VALUES (N&#39;b888e734-5dda-4e25-7502-08db98632629&#39;, N&#39;303041&#39;, CAST(N&#39;2023-08-08T22:59:10.5500000&#39; AS DateTime2), 1, N&#39;cc8732f8-1290-4c8a-0bfb-08db8f6868fe&#39;, CAST(N&#39;2023-08-08T19:02:10.0413121&#39; AS DateTime2), N&#39;Test user&#39;, CAST(N&#39;2023-08-08T19:02:10.0413146&#39; AS DateTime2), N&#39;Test user&#39;)&#xa;INSERT [dbo].[RegimentalNumbers] ([Id], [EmpRegimentalNumber], [DateIssued], [IsActive], [EmployeeId], [Created], [CreatedBy], [LastModified], [LastModifiedBy]) VALUES (N&#39;055b7f1f-7f40-4fa3-7503-08db98632629&#39;, N&#39;303042&#39;, CAST(N&#39;2023-08-08T22:59:10.5500000&#39; AS DateTime2), 1, N&#39;3d6654b2-f120-4dd1-eb62-08db8f8154c6&#39;, CAST(N&#39;2023-08-08T19:02:28.8228529&#39; AS DateTime2), N&#39;Test user&#39;, CAST(N&#39;2023-08-08T19:02:28.8228553&#39; AS DateTime2), N&#39;Test user&#39;)&#xa;INSERT [dbo].[RegimentalNumbers] ([Id], [EmpRegimentalNumber], [DateIssued], [IsActive], [EmployeeId], [Created], [CreatedBy], [LastModified], [LastModifiedBy]) VALUES (N&#39;897e7676-88f4-454d-7504-08db98632629&#39;, N&#39;303043&#39;, CAST(N&#39;2023-08-08T22:59:10.5500000&#39; AS DateTime2), 1, N&#39;607e3d90-56f9-4260-eb64-08db8f8154c6&#39;, CAST(N&#39;2023-08-08T19:02:49.0272551&#39; AS DateTime2), N&#39;Test user&#39;, CAST(N&#39;2023-08-08T19:02:49.0272569&#39; AS DateTime2), N&#39;Test user&#39;)&#xa;INSERT [dbo].[RegimentalNumbers] ([Id], [EmpRegimentalNumber], [DateIssued], [IsActive], [EmployeeId], [Created], [CreatedBy], [LastModified], [LastModifiedBy]) VALUES (N&#39;26f72f38-5200-4399-7505-08db98632629&#39;, N&#39;303044&#39;, CAST(N&#39;2023-08-08T22:59:10.5500000&#39; AS DateTime2), 1, N&#39;30940a21-bdfc-4a57-275b-08db8f8dfa20&#39;, CAST(N&#39;2023-08-08T19:03:14.7747570&#39; AS DateTime2), N&#39;Test user&#39;, CAST(N&#39;2023-08-08T19:03:14.7747595&#39; AS DateTime2), N&#39;Test user&#39;)&#xa;INSERT [dbo].[RegimentalNumbers] ([Id], [EmpRegimentalNumber], [DateIssued], [IsActive], [EmployeeId], [Created], [CreatedBy], [LastModified], [LastModifiedBy]) VALUES (N&#39;b059ddc4-929e-4343-7506-08db98632629&#39;, N&#39;303045&#39;, CAST(N&#39;2023-08-08T22:59:10.5500000&#39; AS DateTime2), 1, N&#39;a0525edd-0c5d-4fee-5aa3-08db95656cbe&#39;, CAST(N&#39;2023-08-08T19:03:41.7399695&#39; AS DateTime2), N&#39;Test user&#39;, CAST(N&#39;2023-08-08T19:03:41.7399715&#39; AS DateTime2), N&#39;Test user&#39;)&#xa;INSERT [dbo].[RegimentalNumbers] ([Id], [EmpRegimentalNumber], [DateIssued], [IsActive], [EmployeeId], [Created], [CreatedBy], [LastModified], [LastModifiedBy]) VALUES (N&#39;444bb66a-3dd5-4957-7507-08db98632629&#39;, N&#39;303046&#39;, CAST(N&#39;2023-08-08T22:59:10.5500000&#39; AS DateTime2), 1, N&#39;86838b57-e716-41d1-9552-08db97a1403b&#39;, CAST(N&#39;2023-08-08T19:04:02.7797088&#39; AS DateTime2), N&#39;Test user&#39;, CAST(N&#39;2023-08-08T19:04:02.7797111&#39; AS DateTime2), N&#39;Test user&#39;)&#xa;INSERT [dbo].[RegimentalNumbers] ([Id], [EmpRegimentalNumber], [DateIssued], [IsActive], [EmployeeId], [Created], [CreatedBy], [LastModified], [LastModifiedBy]) VALUES (N&#39;96b9eb32-1aeb-48f9-7508-08db98632629&#39;, N&#39;303047&#39;, CAST(N&#39;2023-08-08T22:59:10.5500000&#39; AS DateTime2), 1, N&#39;8c0a6177-9248-468c-9553-08db97a1403b&#39;, CAST(N&#39;2023-08-08T19:04:25.3745475&#39; AS DateTime2), N&#39;Test user&#39;, CAST(N&#39;2023-08-08T19:04:25.3745494&#39; AS DateTime2), N&#39;Test user&#39;)&#xa;INSERT [dbo].[RegimentalNumbers] ([Id], [EmpRegimentalNumber], [DateIssued], [IsActive], [EmployeeId], [Created], [CreatedBy], [LastModified], [LastModifiedBy]) VALUES (N&#39;138b7680-8d3c-4a5b-eb20-08db9a883c64&#39;, N&#39;303048&#39;, CAST(N&#39;2023-08-11T00:00:00.0000000&#39; AS DateTime2), 1, N&#39;7db65d03-eb49-41e9-a8cd-08db9a8839d3&#39;, CAST(N&#39;2023-08-11T12:30:12.3657947&#39; AS DateTime2), N&#39;Test user&#39;, CAST(N&#39;2023-08-11T12:30:12.3657965&#39; AS DateTime2), N&#39;Test user&#39;)&#xa;INSERT [dbo].[RegimentalNumbers] ([Id], [EmpRegimentalNumber], [DateIssued], [IsActive], [EmployeeId], [Created], [CreatedBy], [LastModified], [LastModifiedBy]) VALUES (N&#39;12565cea-19fe-4342-eb21-08db9a883c64&#39;, N&#39;303049&#39;, CAST(N&#39;2023-08-11T00:00:00.0000000&#39; AS DateTime2), 1, N&#39;331fee7c-5a82-44fe-a8ce-08db9a8839d3&#39;, CAST(N&#39;2023-08-11T12:43:46.1412376&#39; AS DateTime2), N&#39;Test user&#39;, CAST(N&#39;2023-08-11T12:43:46.1412395&#39; AS DateTime2), N&#39;Test user&#39;)&#xa;GO&#xa;INSERT [dbo].[Regions] ([Id], [RegionType], [RegionNumber], [Created], [CreatedBy], [LastModified], [LastModifiedBy]) VALUES (N&#39;f42940f5-dd2b-40bf-d334-08db7dbb02f3&#39;, N&#39;Barima-Waini&#39;, 1, CAST(N&#39;2023-07-05T20:50:37.2547117&#39; AS DateTime2), N&#39;Test user&#39;, CAST(N&#39;2023-07-05T20:50:37.2608928&#39; AS DateTime2), N&#39;Test user&#39;)&#xa;INSERT [dbo].[Regions] ([Id], [RegionType], [RegionNumber], [Created], [CreatedBy], [LastModified], [LastModifiedBy]) VALUES (N&#39;a3719c25-9f1b-48c8-d335-08db7dbb02f3&#39;, N&#39;Pomeroon-Supenaam&#39;, 2, CAST(N&#39;2023-07-05T20:51:26.9612643&#39; AS DateTime2), N&#39;Test user&#39;, CAST(N&#39;2023-07-05T20:51:26.9612673&#39; AS DateTime2), N&#39;Test user&#39;)&#xa;INSERT [dbo].[Regions] ([Id], [RegionType], [RegionNumber], [Created], [CreatedBy], [LastModified], [LastModifiedBy]) VALUES (N&#39;75f7920b-de11-4fcb-d336-08db7dbb02f3&#39;, N&#39;Essequibo Islands-West Demerara&#39;, 3, CAST(N&#39;2023-07-05T20:51:52.0515691&#39; AS DateTime2), N&#39;Test user&#39;, CAST(N&#39;2023-07-05T20:51:52.0515710&#39; AS DateTime2), N&#39;Test user&#39;)&#xa;INSERT [dbo].[Regions] ([Id], [RegionType], [RegionNumber], [Created], [CreatedBy], [LastModified], [LastModifiedBy]) VALUES (N&#39;3d5fdde0-3c29-47b3-d337-08db7dbb02f3&#39;, N&#39;Demerara-Mahaica&#39;, 4, CAST(N&#39;2023-07-05T20:52:20.9783979&#39; AS DateTime2), N&#39;Test user&#39;, CAST(N&#39;2023-07-05T20:52:20.9783997&#39; AS DateTime2), N&#39;Test user&#39;)&#xa;INSERT [dbo].[Regions] ([Id], [RegionType], [RegionNumber], [Created], [CreatedBy], [LastModified], [LastModifiedBy]) VALUES (N&#39;c565da81-3cd3-470c-d338-08db7dbb02f3&#39;, N&#39;Mahaica-Berbice&#39;, 5, CAST(N&#39;2023-07-05T20:52:38.5584588&#39; AS DateTime2), N&#39;Test user&#39;, CAST(N&#39;2023-07-05T20:52:38.5584614&#39; AS DateTime2), N&#39;Test user&#39;)&#xa;INSERT [dbo].[Regions] ([Id], [RegionType], [RegionNumber], [Created], [CreatedBy], [LastModified], [LastModifiedBy]) VALUES (N&#39;4f6690c8-4822-4ce9-d339-08db7dbb02f3&#39;, N&#39;East Berbice-Corentyne&#39;, 6, CAST(N&#39;2023-07-05T20:52:56.2061130&#39; AS DateTime2), N&#39;Test user&#39;, CAST(N&#39;2023-07-05T20:52:56.2061149&#39; AS DateTime2), N&#39;Test user&#39;)&#xa;INSERT [dbo].[Regions] ([Id], [RegionType], [RegionNumber], [Created], [CreatedBy], [LastModified], [LastModifiedBy]) VALUES (N&#39;27f06edb-aa02-4742-d33a-08db7dbb02f3&#39;, N&#39;Cuyuni-Mazaruni&#39;, 7, CAST(N&#39;2023-07-05T20:53:16.7654636&#39; AS DateTime2), N&#39;Test user&#39;, CAST(N&#39;2023-07-05T20:53:16.7654656&#39; AS DateTime2), N&#39;Test user&#39;)&#xa;INSERT [dbo].[Regions] ([Id], [RegionType], [RegionNumber], [Created], [CreatedBy], [LastModified], [LastModifiedBy]) VALUES (N&#39;6476a03b-1aef-4987-d33b-08db7dbb02f3&#39;, N&#39;Potaro-Siparuni&#39;, 8, CAST(N&#39;2023-07-05T20:53:32.9479195&#39; AS DateTime2), N&#39;Test user&#39;, CAST(N&#39;2023-07-05T20:53:32.9479212&#39; AS DateTime2), N&#39;Test user&#39;)&#xa;INSERT [dbo].[Regions] ([Id], [RegionType], [RegionNumber], [Created], [CreatedBy], [LastModified], [LastModifiedBy]) VALUES (N&#39;1c535b9d-5b78-4ce3-d33c-08db7dbb02f3&#39;, N&#39;Upper Takutu-Upper Essequibo&#39;, 9, CAST(N&#39;2023-07-05T20:53:49.3569817&#39; AS DateTime2), N&#39;Test user&#39;, CAST(N&#39;2023-07-05T20:53:49.3569834&#39; AS DateTime2), N&#39;Test user&#39;)&#xa;INSERT [dbo].[Regions] ([Id], [RegionType], [RegionNumber], [Created], [CreatedBy], [LastModified], [LastModifiedBy]) VALUES (N&#39;de3723af-753c-4e01-d33d-08db7dbb02f3&#39;, N&#39;Upper Demerara-Upper Berbice&#39;, 10, CAST(N&#39;2023-07-05T20:54:13.7668036&#39; AS DateTime2), N&#39;Test user&#39;, CAST(N&#39;2023-07-05T20:54:13.7668059&#39; AS DateTime2), N&#39;Test user&#39;)&#xa;GO&#xa;INSERT [dbo].[Relationships] ([Id], [RelationshipType], [Created], [CreatedBy], [LastModified], [LastModifiedBy]) VALUES (N&#39;ad947b30-880a-41a4-2089-08db9815d8da&#39;, N&#39;Mother&#39;, CAST(N&#39;2023-08-08T09:46:21.0770105&#39; AS DateTime2), N&#39;Test user&#39;, CAST(N&#39;2023-08-08T09:46:21.0777638&#39; AS DateTime2), N&#39;Test user&#39;)&#xa;INSERT [dbo].[Relationships] ([Id], [RelationshipType], [Created], [CreatedBy], [LastModified], [LastModifiedBy]) VALUES (N&#39;264809cc-f80f-47f6-208a-08db9815d8da&#39;, N&#39;Father&#39;, CAST(N&#39;2023-08-08T09:46:32.6420670&#39; AS DateTime2), N&#39;Test user&#39;, CAST(N&#39;2023-08-08T09:46:32.6420693&#39; AS DateTime2), N&#39;Test user&#39;)&#xa;INSERT [dbo].[Relationships] ([Id], [RelationshipType], [Created], [CreatedBy], [LastModified], [LastModifiedBy]) VALUES (N&#39;f58c0895-dadd-416c-208b-08db9815d8da&#39;, N&#39;Son&#39;, CAST(N&#39;2023-08-08T09:46:45.4379510&#39; AS DateTime2), N&#39;Test user&#39;, CAST(N&#39;2023-08-08T09:46:45.4379534&#39; AS DateTime2), N&#39;Test user&#39;)&#xa;INSERT [dbo].[Relationships] ([Id], [RelationshipType], [Created], [CreatedBy], [LastModified], [LastModifiedBy]) VALUES (N&#39;62178737-ee3c-40eb-208c-08db9815d8da&#39;, N&#39;Daughter&#39;, CAST(N&#39;2023-08-08T09:46:52.4604091&#39; AS DateTime2), N&#39;Test user&#39;, CAST(N&#39;2023-08-08T09:46:52.4604116&#39; AS DateTime2), N&#39;Test user&#39;)&#xa;INSERT [dbo].[Relationships] ([Id], [RelationshipType], [Created], [CreatedBy], [LastModified], [LastModifiedBy]) VALUES (N&#39;30914427-08c2-4213-208d-08db9815d8da&#39;, N&#39;Brother&#39;, CAST(N&#39;2023-08-08T09:47:02.6675777&#39; AS DateTime2), N&#39;Test user&#39;, CAST(N&#39;2023-08-08T09:47:02.6675802&#39; AS DateTime2), N&#39;Test user&#39;)&#xa;INSERT [dbo].[Relationships] ([Id], [RelationshipType], [Created], [CreatedBy], [LastModified], [LastModifiedBy]) VALUES (N&#39;8ea58118-7aa8-4d03-208e-08db9815d8da&#39;, N&#39;Sister&#39;, CAST(N&#39;2023-08-08T09:47:10.1082978&#39; AS DateTime2), N&#39;Test user&#39;, CAST(N&#39;2023-08-08T09:47:10.1082996&#39; AS DateTime2), N&#39;Test user&#39;)&#xa;INSERT [dbo].[Relationships] ([Id], [RelationshipType], [Created], [CreatedBy], [LastModified], [LastModifiedBy]) VALUES (N&#39;62d5c4bd-d010-42b4-208f-08db9815d8da&#39;, N&#39;Grandmother&#39;, CAST(N&#39;2023-08-08T09:47:17.8890566&#39; AS DateTime2), N&#39;Test user&#39;, CAST(N&#39;2023-08-08T09:47:17.8890588&#39; AS DateTime2), N&#39;Test user&#39;)&#xa;INSERT [dbo].[Relationships] ([Id], [RelationshipType], [Created], [CreatedBy], [LastModified], [LastModifiedBy]) VALUES (N&#39;ff9dda8b-d29a-49f4-2090-08db9815d8da&#39;, N&#39;Grandfather&#39;, CAST(N&#39;2023-08-08T09:47:36.3180049&#39; AS DateTime2), N&#39;Test user&#39;, CAST(N&#39;2023-08-08T09:47:36.3180074&#39; AS DateTime2), N&#39;Test user&#39;)&#xa;INSERT [dbo].[Relationships] ([Id], [RelationshipType], [Created], [CreatedBy], [LastModified], [LastModifiedBy]) VALUES (N&#39;0c2b8762-804e-43d3-2091-08db9815d8da&#39;, N&#39;Cousin&#39;, CAST(N&#39;2023-08-08T09:50:39.9391996&#39; AS DateTime2), N&#39;Test user&#39;, CAST(N&#39;2023-08-08T09:50:39.9392026&#39; AS DateTime2), N&#39;Test user&#39;)&#xa;INSERT [dbo].[Relationships] ([Id], [RelationshipType], [Created], [CreatedBy], [LastModified], [LastModifiedBy]) VALUES (N&#39;5529b140-fabb-47fa-2092-08db9815d8da&#39;, N&#39;Niece&#39;, CAST(N&#39;2023-08-08T09:50:48.3296077&#39; AS DateTime2), N&#39;Test user&#39;, CAST(N&#39;2023-08-08T09:50:48.3296096&#39; AS DateTime2), N&#39;Test user&#39;)&#xa;INSERT [dbo].[Relationships] ([Id], [RelationshipType], [Created], [CreatedBy], [LastModified], [LastModifiedBy]) VALUES (N&#39;432d0d8e-7a5b-45b5-2093-08db9815d8da&#39;, N&#39;Nephew&#39;, CAST(N&#39;2023-08-08T09:50:56.1327504&#39; AS DateTime2), N&#39;Test user&#39;, CAST(N&#39;2023-08-08T09:50:56.1327525&#39; AS DateTime2), N&#39;Test user&#39;)&#xa;INSERT [dbo].[Relationships] ([Id], [RelationshipType], [Created], [CreatedBy], [LastModified], [LastModifiedBy]) VALUES (N&#39;7e9b159d-78c7-4b5a-2094-08db9815d8da&#39;, N&#39;Aunt&#39;, CAST(N&#39;2023-08-08T09:51:04.1564847&#39; AS DateTime2), N&#39;Test user&#39;, CAST(N&#39;2023-08-08T09:51:04.1564866&#39; AS DateTime2), N&#39;Test user&#39;)&#xa;INSERT [dbo].[Relationships] ([Id], [RelationshipType], [Created], [CreatedBy], [LastModified], [LastModifiedBy]) VALUES (N&#39;82f52f38-c487-4c9c-2095-08db9815d8da&#39;, N&#39;Uncle&#39;, CAST(N&#39;2023-08-08T09:51:09.7776271&#39; AS DateTime2), N&#39;Test user&#39;, CAST(N&#39;2023-08-08T09:51:09.7776293&#39; AS DateTime2), N&#39;Test user&#39;)&#xa;INSERT [dbo].[Relationships] ([Id], [RelationshipType], [Created], [CreatedBy], [LastModified], [LastModifiedBy]) VALUES (N&#39;3a60574e-52a0-405b-2096-08db9815d8da&#39;, N&#39;Husband&#39;, CAST(N&#39;2023-08-08T09:51:29.3400533&#39; AS DateTime2), N&#39;Test user&#39;, CAST(N&#39;2023-08-08T09:51:29.3400552&#39; AS DateTime2), N&#39;Test user&#39;)&#xa;INSERT [dbo].[Relationships] ([Id], [RelationshipType], [Created], [CreatedBy], [LastModified], [LastModifiedBy]) VALUES (N&#39;01d3f625-788c-4d42-2097-08db9815d8da&#39;, N&#39;Wife&#39;, CAST(N&#39;2023-08-08T09:51:35.0876172&#39; AS DateTime2), N&#39;Test user&#39;, CAST(N&#39;2023-08-08T09:51:35.0876191&#39; AS DateTime2), N&#39;Test user&#39;)&#xa;GO&#xa;INSERT [dbo].[Religions] ([Id], [ReligionType], [Created], [CreatedBy], [LastModified], [LastModifiedBy]) VALUES (N&#39;7ea54cfc-91d2-4b21-1069-08db7dab9e33&#39;, N&#39;Christian&#39;, CAST(N&#39;2023-07-05T19:00:25.1605865&#39; AS DateTime2), N&#39;Test user&#39;, CAST(N&#39;2023-07-05T19:00:25.1605889&#39; AS DateTime2), N&#39;Test user&#39;)&#xa;INSERT [dbo].[Religions] ([Id], [ReligionType], [Created], [CreatedBy], [LastModified], [LastModifiedBy]) VALUES (N&#39;4fab1010-c160-411c-106a-08db7dab9e33&#39;, N&#39;Muslim&#39;, CAST(N&#39;2023-07-05T19:00:36.9979293&#39; AS DateTime2), N&#39;Test user&#39;, CAST(N&#39;2023-07-05T19:00:36.9979311&#39; AS DateTime2), N&#39;Test user&#39;)&#xa;INSERT [dbo].[Religions] ([Id], [ReligionType], [Created], [CreatedBy], [LastModified], [LastModifiedBy]) VALUES (N&#39;fafba033-ac28-4e0a-106b-08db7dab9e33&#39;, N&#39;Hindu&#39;, CAST(N&#39;2023-07-05T19:00:44.7899118&#39; AS DateTime2), N&#39;Test user&#39;, CAST(N&#39;2023-07-05T19:00:44.7899135&#39; AS DateTime2), N&#39;Test user&#39;)&#xa;GO&#xa;INSERT [dbo].[Sexes] ([Id], [SexType], [Created], [CreatedBy], [LastModified], [LastModifiedBy]) VALUES (N&#39;7d58f398-3ac3-4948-6b90-08db7dab7ac4&#39;, N&#39;Male&#39;, CAST(N&#39;2023-07-05T18:59:25.7041030&#39; AS DateTime2), N&#39;Test user&#39;, CAST(N&#39;2023-07-05T18:59:25.7041047&#39; AS DateTime2), N&#39;Test user&#39;)&#xa;INSERT [dbo].[Sexes] ([Id], [SexType], [Created], [CreatedBy], [LastModified], [LastModifiedBy]) VALUES (N&#39;30e974a4-4db4-4153-6b91-08db7dab7ac4&#39;, N&#39;Female&#39;, CAST(N&#39;2023-07-05T18:59:37.0437655&#39; AS DateTime2), N&#39;Test user&#39;, CAST(N&#39;2023-07-05T18:59:37.0437669&#39; AS DateTime2), N&#39;Test user&#39;)&#xa;GO&#xa;INSERT [dbo].[Titles] ([Id], [TitleType], [Created], [CreatedBy], [LastModified], [LastModifiedBy]) VALUES (N&#39;f11f013f-3284-4105-d4fb-08db7dab5a0a&#39;, N&#39;Mr&#39;, CAST(N&#39;2023-07-05T18:58:30.7428897&#39; AS DateTime2), N&#39;Test user&#39;, CAST(N&#39;2023-07-05T18:58:30.7428915&#39; AS DateTime2), N&#39;Test user&#39;)&#xa;INSERT [dbo].[Titles] ([Id], [TitleType], [Created], [CreatedBy], [LastModified], [LastModifiedBy]) VALUES (N&#39;6138332c-52fd-4ef5-d4fc-08db7dab5a0a&#39;, N&#39;Ms&#39;, CAST(N&#39;2023-07-05T18:58:41.6609454&#39; AS DateTime2), N&#39;Test user&#39;, CAST(N&#39;2023-07-05T18:58:41.6609474&#39; AS DateTime2), N&#39;Test user&#39;)&#xa;INSERT [dbo].[Titles] ([Id], [TitleType], [Created], [CreatedBy], [LastModified], [LastModifiedBy]) VALUES (N&#39;44af5737-ec08-459a-d4fd-08db7dab5a0a&#39;, N&#39;Mrs&#39;, CAST(N&#39;2023-07-05T18:58:48.2569383&#39; AS DateTime2), N&#39;Test user&#39;, CAST(N&#39;2023-07-05T18:58:48.2569401&#39; AS DateTime2), N&#39;Test user&#39;)&#xa;GO&#xa;INSERT [dbo].[Units] ([Id], [UnitName], [UnitAbbreviation], [Created], [CreatedBy], [LastModified], [LastModifiedBy]) VALUES (N&#39;abbfeb34-b9cb-48bf-a80d-08db8d7db8c7&#39;, N&#39;Coast Guard&#39;, N&#39;CG&#39;, CAST(N&#39;2023-07-25T22:12:11.4946787&#39; AS DateTime2), N&#39;Test user&#39;, CAST(N&#39;2023-07-25T22:12:11.4946818&#39; AS DateTime2), N&#39;Test user&#39;)&#xa;INSERT [dbo].[Units] ([Id], [UnitName], [UnitAbbreviation], [Created], [CreatedBy], [LastModified], [LastModifiedBy]) VALUES (N&#39;ee1b5a44-611d-4024-a80e-08db8d7db8c7&#39;, N&#39;First Infantry Battalion&#39;, N&#39;1 Inf Bn&#39;, CAST(N&#39;2023-07-25T22:12:47.0372107&#39; AS DateTime2), N&#39;Test user&#39;, CAST(N&#39;2023-07-25T22:12:47.0372128&#39; AS DateTime2), N&#39;Test user&#39;)&#xa;INSERT [dbo].[Units] ([Id], [UnitName], [UnitAbbreviation], [Created], [CreatedBy], [LastModified], [LastModifiedBy]) VALUES (N&#39;d95c94fd-e012-433b-a80f-08db8d7db8c7&#39;, N&#39;Second Infantry Battalion&#39;, N&#39;2 Inf Bn&#39;, CAST(N&#39;2023-07-25T22:13:04.1641477&#39; AS DateTime2), N&#39;Test user&#39;, CAST(N&#39;2023-07-25T22:13:04.1641502&#39; AS DateTime2), N&#39;Test user&#39;)&#xa;INSERT [dbo].[Units] ([Id], [UnitName], [UnitAbbreviation], [Created], [CreatedBy], [LastModified], [LastModifiedBy]) VALUES (N&#39;ccb8b69d-16d9-46f9-a810-08db8d7db8c7&#39;, N&#39;Training Corps&#39;, N&#39;Trg Corps&#39;, CAST(N&#39;2023-07-25T22:13:33.0902583&#39; AS DateTime2), N&#39;Test user&#39;, CAST(N&#39;2023-07-25T22:13:33.0902604&#39; AS DateTime2), N&#39;Test user&#39;)&#xa;INSERT [dbo].[Units] ([Id], [UnitName], [UnitAbbreviation], [Created], [CreatedBy], [LastModified], [LastModifiedBy]) VALUES (N&#39;81adcc97-4a36-407f-a811-08db8d7db8c7&#39;, N&#39;Air Corps&#39;, N&#39;Air Corps&#39;, CAST(N&#39;2023-07-25T22:13:49.2705199&#39; AS DateTime2), N&#39;Test user&#39;, CAST(N&#39;2023-07-25T22:13:49.2705221&#39; AS DateTime2), N&#39;Test user&#39;)&#xa;INSERT [dbo].[Units] ([Id], [UnitName], [UnitAbbreviation], [Created], [CreatedBy], [LastModified], [LastModifiedBy]) VALUES (N&#39;24c8ee3d-4fef-4f00-a812-08db8d7db8c7&#39;, N&#39;General One Branch&#39;, N&#39;G1&#39;, CAST(N&#39;2023-07-25T22:14:15.5772590&#39; AS DateTime2), N&#39;Test user&#39;, CAST(N&#39;2023-07-25T22:14:15.5773216&#39; AS DateTime2), N&#39;Test user&#39;)&#xa;INSERT [dbo].[Units] ([Id], [UnitName], [UnitAbbreviation], [Created], [CreatedBy], [LastModified], [LastModifiedBy]) VALUES (N&#39;d516282f-32b0-4d8b-a813-08db8d7db8c7&#39;, N&#39;General Two Branch&#39;, N&#39;G2&#39;, CAST(N&#39;2023-07-25T22:14:28.2306076&#39; AS DateTime2), N&#39;Test user&#39;, CAST(N&#39;2023-07-25T22:14:28.2306101&#39; AS DateTime2), N&#39;Test user&#39;)&#xa;INSERT [dbo].[Units] ([Id], [UnitName], [UnitAbbreviation], [Created], [CreatedBy], [LastModified], [LastModifiedBy]) VALUES (N&#39;60b9fab3-cd1b-4d50-a814-08db8d7db8c7&#39;, N&#39;General Three Branch&#39;, N&#39;G3&#39;, CAST(N&#39;2023-07-25T22:14:38.4458674&#39; AS DateTime2), N&#39;Test user&#39;, CAST(N&#39;2023-07-25T22:14:38.4458694&#39; AS DateTime2), N&#39;Test user&#39;)&#xa;INSERT [dbo].[Units] ([Id], [UnitName], [UnitAbbreviation], [Created], [CreatedBy], [LastModified], [LastModifiedBy]) VALUES (N&#39;fe0b0301-eb1f-495e-a815-08db8d7db8c7&#39;, N&#39;General Four Branch (Procurement)&#39;, N&#39;G4&#39;, CAST(N&#39;2023-07-25T22:15:23.7805688&#39; AS DateTime2), N&#39;Test user&#39;, CAST(N&#39;2023-07-25T22:15:23.7805706&#39; AS DateTime2), N&#39;Test user&#39;)&#xa;INSERT [dbo].[Units] ([Id], [UnitName], [UnitAbbreviation], [Created], [CreatedBy], [LastModified], [LastModifiedBy]) VALUES (N&#39;cfed1505-bf16-4c18-a816-08db8d7db8c7&#39;, N&#39;General Five Branch (Future Plans and Strategy)&#39;, N&#39;G5&#39;, CAST(N&#39;2023-07-25T22:16:00.2047053&#39; AS DateTime2), N&#39;Test user&#39;, CAST(N&#39;2023-07-25T22:16:00.2047073&#39; AS DateTime2), N&#39;Test user&#39;)&#xa;INSERT [dbo].[Units] ([Id], [UnitName], [UnitAbbreviation], [Created], [CreatedBy], [LastModified], [LastModifiedBy]) VALUES (N&#39;57db49d3-ab52-4b7f-a817-08db8d7db8c7&#39;, N&#39;General Six Branch&#39;, N&#39;G6&#39;, CAST(N&#39;2023-07-25T22:16:20.3681079&#39; AS DateTime2), N&#39;Test user&#39;, CAST(N&#39;2023-07-25T22:16:20.3681113&#39; AS DateTime2), N&#39;Test user&#39;)&#xa;GO&#xa;SET ANSI_PADDING ON&#xa;GO&#xa;/****** Object:  Index [IX_AppointmentStatuses_Status_StatusName]    Script Date: 31/08/2023 8:59:08 AM ******/&#xa;CREATE UNIQUE NONCLUSTERED INDEX [IX_AppointmentStatuses_Status_StatusName] ON [dbo].[AppointmentStatuses]&#xa;(&#xa;&#x9;[Status] ASC,&#xa;&#x9;[StatusName] ASC&#xa;)WITH (PAD_INDEX = OFF, STATISTICS_NORECOMPUTE = OFF, SORT_IN_TEMPDB = OFF, IGNORE_DUP_KEY = OFF, DROP_EXISTING = OFF, ONLINE = OFF, ALLOW_ROW_LOCKS = ON, ALLOW_PAGE_LOCKS = ON, OPTIMIZE_FOR_SEQUENTIAL_KEY = OFF) ON [PRIMARY]&#xa;GO&#xa;SET ANSI_PADDING ON&#xa;GO&#xa;/****** Object:  Index [IX_AspNetRoleClaims_RoleId]    Script Date: 31/08/2023 8:59:08 AM ******/&#xa;CREATE NONCLUSTERED INDEX [IX_AspNetRoleClaims_RoleId] ON [dbo].[AspNetRoleClaims]&#xa;(&#xa;&#x9;[RoleId] ASC&#xa;)WITH (PAD_INDEX = OFF, STATISTICS_NORECOMPUTE = OFF, SORT_IN_TEMPDB = OFF, DROP_EXISTING = OFF, ONLINE = OFF, ALLOW_ROW_LOCKS = ON, ALLOW_PAGE_LOCKS = ON, OPTIMIZE_FOR_SEQUENTIAL_KEY = OFF) ON [PRIMARY]&#xa;GO&#xa;SET ANSI_PADDING ON&#xa;GO&#xa;/****** Object:  Index [RoleNameIndex]    Script Date: 31/08/2023 8:59:08 AM ******/&#xa;CREATE UNIQUE NONCLUSTERED INDEX [RoleNameIndex] ON [dbo].[AspNetRoles]&#xa;(&#xa;&#x9;[NormalizedName] ASC&#xa;)&#xa;WHERE ([NormalizedName] IS NOT NULL)&#xa;WITH (PAD_INDEX = OFF, STATISTICS_NORECOMPUTE = OFF, SORT_IN_TEMPDB = OFF, IGNORE_DUP_KEY = OFF, DROP_EXISTING = OFF, ONLINE = OFF, ALLOW_ROW_LOCKS = ON, ALLOW_PAGE_LOCKS = ON, OPTIMIZE_FOR_SEQUENTIAL_KEY = OFF) ON [PRIMARY]&#xa;GO&#xa;SET ANSI_PADDING ON&#xa;GO&#xa;/****** Object:  Index [IX_AspNetUserClaims_UserId]    Script Date: 31/08/2023 8:59:08 AM ******/&#xa;CREATE NONCLUSTERED INDEX [IX_AspNetUserClaims_UserId] ON [dbo].[AspNetUserClaims]&#xa;(&#xa;&#x9;[UserId] ASC&#xa;)WITH (PAD_INDEX = OFF, STATISTICS_NORECOMPUTE = OFF, SORT_IN_TEMPDB = OFF, DROP_EXISTING = OFF, ONLINE = OFF, ALLOW_ROW_LOCKS = ON, ALLOW_PAGE_LOCKS = ON, OPTIMIZE_FOR_SEQUENTIAL_KEY = OFF) ON [PRIMARY]&#xa;GO&#xa;SET ANSI_PADDING ON&#xa;GO&#xa;/****** Object:  Index [IX_AspNetUserLogins_UserId]    Script Date: 31/08/2023 8:59:08 AM ******/&#xa;CREATE NONCLUSTERED INDEX [IX_AspNetUserLogins_UserId] ON [dbo].[AspNetUserLogins]&#xa;(&#xa;&#x9;[UserId] ASC&#xa;)WITH (PAD_INDEX = OFF, STATISTICS_NORECOMPUTE = OFF, SORT_IN_TEMPDB = OFF, DROP_EXISTING = OFF, ONLINE = OFF, ALLOW_ROW_LOCKS = ON, ALLOW_PAGE_LOCKS = ON, OPTIMIZE_FOR_SEQUENTIAL_KEY = OFF) ON [PRIMARY]&#xa;GO&#xa;SET ANSI_PADDING ON&#xa;GO&#xa;/****** Object:  Index [IX_AspNetUserRoles_RoleId]    Script Date: 31/08/2023 8:59:08 AM ******/&#xa;CREATE NONCLUSTERED INDEX [IX_AspNetUserRoles_RoleId] ON [dbo].[AspNetUserRoles]&#xa;(&#xa;&#x9;[RoleId] ASC&#xa;)WITH (PAD_INDEX = OFF, STATISTICS_NORECOMPUTE = OFF, SORT_IN_TEMPDB = OFF, DROP_EXISTING = OFF, ONLINE = OFF, ALLOW_ROW_LOCKS = ON, ALLOW_PAGE_LOCKS = ON, OPTIMIZE_FOR_SEQUENTIAL_KEY = OFF) ON [PRIMARY]&#xa;GO&#xa;SET ANSI_PADDING ON&#xa;GO&#xa;/****** Object:  Index [EmailIndex]    Script Date: 31/08/2023 8:59:08 AM ******/&#xa;CREATE NONCLUSTERED INDEX [EmailIndex] ON [dbo].[AspNetUsers]&#xa;(&#xa;&#x9;[NormalizedEmail] ASC&#xa;)WITH (PAD_INDEX = OFF, STATISTICS_NORECOMPUTE = OFF, SORT_IN_TEMPDB = OFF, DROP_EXISTING = OFF, ONLINE = OFF, ALLOW_ROW_LOCKS = ON, ALLOW_PAGE_LOCKS = ON, OPTIMIZE_FOR_SEQUENTIAL_KEY = OFF) ON [PRIMARY]&#xa;GO&#xa;SET ANSI_PADDING ON&#xa;GO&#xa;/****** Object:  Index [UserNameIndex]    Script Date: 31/08/2023 8:59:08 AM ******/&#xa;CREATE UNIQUE NONCLUSTERED INDEX [UserNameIndex] ON [dbo].[AspNetUsers]&#xa;(&#xa;&#x9;[NormalizedUserName] ASC&#xa;)&#xa;WHERE ([NormalizedUserName] IS NOT NULL)&#xa;WITH (PAD_INDEX = OFF, STATISTICS_NORECOMPUTE = OFF, SORT_IN_TEMPDB = OFF, IGNORE_DUP_KEY = OFF, DROP_EXISTING = OFF, ONLINE = OFF, ALLOW_ROW_LOCKS = ON, ALLOW_PAGE_LOCKS = ON, OPTIMIZE_FOR_SEQUENTIAL_KEY = OFF) ON [PRIMARY]&#xa;GO&#xa;SET ANSI_PADDING ON&#xa;GO&#xa;/****** Object:  Index [IX_Counties_CountyType]    Script Date: 31/08/2023 8:59:08 AM ******/&#xa;CREATE UNIQUE NONCLUSTERED INDEX [IX_Counties_CountyType] ON [dbo].[Counties]&#xa;(&#xa;&#x9;[CountyType] ASC&#xa;)WITH (PAD_INDEX = OFF, STATISTICS_NORECOMPUTE = OFF, SORT_IN_TEMPDB = OFF, IGNORE_DUP_KEY = OFF, DROP_EXISTING = OFF, ONLINE = OFF, ALLOW_ROW_LOCKS = ON, ALLOW_PAGE_LOCKS = ON, OPTIMIZE_FOR_SEQUENTIAL_KEY = OFF) ON [PRIMARY]&#xa;GO&#xa;SET ANSI_PADDING ON&#xa;GO&#xa;/****** Object:  Index [IX_Countries_CountryType]    Script Date: 31/08/2023 8:59:08 AM ******/&#xa;CREATE UNIQUE NONCLUSTERED INDEX [IX_Countries_CountryType] ON [dbo].[Countries]&#xa;(&#xa;&#x9;[CountryType] ASC&#xa;)WITH (PAD_INDEX = OFF, STATISTICS_NORECOMPUTE = OFF, SORT_IN_TEMPDB = OFF, IGNORE_DUP_KEY = OFF, DROP_EXISTING = OFF, ONLINE = OFF, ALLOW_ROW_LOCKS = ON, ALLOW_PAGE_LOCKS = ON, OPTIMIZE_FOR_SEQUENTIAL_KEY = OFF) ON [PRIMARY]&#xa;GO&#xa;SET ANSI_PADDING ON&#xa;GO&#xa;/****** Object:  Index [IX_DeviceCodes_DeviceCode]    Script Date: 31/08/2023 8:59:08 AM ******/&#xa;CREATE UNIQUE NONCLUSTERED INDEX [IX_DeviceCodes_DeviceCode] ON [dbo].[DeviceCodes]&#xa;(&#xa;&#x9;[DeviceCode] ASC&#xa;)WITH (PAD_INDEX = OFF, STATISTICS_NORECOMPUTE = OFF, SORT_IN_TEMPDB = OFF, IGNORE_DUP_KEY = OFF, DROP_EXISTING = OFF, ONLINE = OFF, ALLOW_ROW_LOCKS = ON, ALLOW_PAGE_LOCKS = ON, OPTIMIZE_FOR_SEQUENTIAL_KEY = OFF) ON [PRIMARY]&#xa;GO&#xa;/****** Object:  Index [IX_DeviceCodes_Expiration]    Script Date: 31/08/2023 8:59:08 AM ******/&#xa;CREATE NONCLUSTERED INDEX [IX_DeviceCodes_Expiration] ON [dbo].[DeviceCodes]&#xa;(&#xa;&#x9;[Expiration] ASC&#xa;)WITH (PAD_INDEX = OFF, STATISTICS_NORECOMPUTE = OFF, SORT_IN_TEMPDB = OFF, DROP_EXISTING = OFF, ONLINE = OFF, ALLOW_ROW_LOCKS = ON, ALLOW_PAGE_LOCKS = ON, OPTIMIZE_FOR_SEQUENTIAL_KEY = OFF) ON [PRIMARY]&#xa;GO&#xa;/****** Object:  Index [IX_EmployeeAddresses_CountryId]    Script Date: 31/08/2023 8:59:08 AM ******/&#xa;CREATE NONCLUSTERED INDEX [IX_EmployeeAddresses_CountryId] ON [dbo].[EmployeeAddresses]&#xa;(&#xa;&#x9;[CountryId] ASC&#xa;)WITH (PAD_INDEX = OFF, STATISTICS_NORECOMPUTE = OFF, SORT_IN_TEMPDB = OFF, DROP_EXISTING = OFF, ONLINE = OFF, ALLOW_ROW_LOCKS = ON, ALLOW_PAGE_LOCKS = ON, OPTIMIZE_FOR_SEQUENTIAL_KEY = OFF) ON [PRIMARY]&#xa;GO&#xa;/****** Object:  Index [IX_EmployeeAddresses_CountyId]    Script Date: 31/08/2023 8:59:08 AM ******/&#xa;CREATE NONCLUSTERED INDEX [IX_EmployeeAddresses_CountyId] ON [dbo].[EmployeeAddresses]&#xa;(&#xa;&#x9;[CountyId] ASC&#xa;)WITH (PAD_INDEX = OFF, STATISTICS_NORECOMPUTE = OFF, SORT_IN_TEMPDB = OFF, DROP_EXISTING = OFF, ONLINE = OFF, ALLOW_ROW_LOCKS = ON, ALLOW_PAGE_LOCKS = ON, OPTIMIZE_FOR_SEQUENTIAL_KEY = OFF) ON [PRIMARY]&#xa;GO&#xa;/****** Object:  Index [IX_EmployeeAddresses_EmployeeId]    Script Date: 31/08/2023 8:59:08 AM ******/&#xa;CREATE NONCLUSTERED INDEX [IX_EmployeeAddresses_EmployeeId] ON [dbo].[EmployeeAddresses]&#xa;(&#xa;&#x9;[EmployeeId] ASC&#xa;)WITH (PAD_INDEX = OFF, STATISTICS_NORECOMPUTE = OFF, SORT_IN_TEMPDB = OFF, DROP_EXISTING = OFF, ONLINE = OFF, ALLOW_ROW_LOCKS = ON, ALLOW_PAGE_LOCKS = ON, OPTIMIZE_FOR_SEQUENTIAL_KEY = OFF) ON [PRIMARY]&#xa;GO&#xa;SET ANSI_PADDING ON&#xa;GO&#xa;/****** Object:  Index [IX_EmployeeAddresses_Lot_Street_Area_Town_RegionId_CountyId_EmployeeId]    Script Date: 31/08/2023 8:59:08 AM ******/&#xa;CREATE UNIQUE NONCLUSTERED INDEX [IX_EmployeeAddresses_Lot_Street_Area_Town_RegionId_CountyId_EmployeeId] ON [dbo].[EmployeeAddresses]&#xa;(&#xa;&#x9;[Lot] ASC,&#xa;&#x9;[Street] ASC,&#xa;&#x9;[Area] ASC,&#xa;&#x9;[Town] ASC,&#xa;&#x9;[RegionId] ASC,&#xa;&#x9;[CountyId] ASC,&#xa;&#x9;[EmployeeId] ASC&#xa;)&#xa;WHERE ([Lot] IS NOT NULL AND [Street] IS NOT NULL AND [Area] IS NOT NULL AND [Town] IS NOT NULL)&#xa;WITH (PAD_INDEX = OFF, STATISTICS_NORECOMPUTE = OFF, SORT_IN_TEMPDB = OFF, IGNORE_DUP_KEY = OFF, DROP_EXISTING = OFF, ONLINE = OFF, ALLOW_ROW_LOCKS = ON, ALLOW_PAGE_LOCKS = ON, OPTIMIZE_FOR_SEQUENTIAL_KEY = OFF) ON [PRIMARY]&#xa;GO&#xa;/****** Object:  Index [IX_EmployeeAddresses_RegionId]    Script Date: 31/08/2023 8:59:08 AM ******/&#xa;CREATE NONCLUSTERED INDEX [IX_EmployeeAddresses_RegionId] ON [dbo].[EmployeeAddresses]&#xa;(&#xa;&#x9;[RegionId] ASC&#xa;)WITH (PAD_INDEX = OFF, STATISTICS_NORECOMPUTE = OFF, SORT_IN_TEMPDB = OFF, DROP_EXISTING = OFF, ONLINE = OFF, ALLOW_ROW_LOCKS = ON, ALLOW_PAGE_LOCKS = ON, OPTIMIZE_FOR_SEQUENTIAL_KEY = OFF) ON [PRIMARY]&#xa;GO&#xa;SET ANSI_PADDING ON&#xa;GO&#xa;/****** Object:  Index [IX_Employees_IdentificationCardNumber_TaxPayerIdentificationNumber_NationalInsuranceSchemeNumber]    Script Date: 31/08/2023 8:59:08 AM ******/&#xa;CREATE UNIQUE NONCLUSTERED INDEX [IX_Employees_IdentificationCardNumber_TaxPayerIdentificationNumber_NationalInsuranceSchemeNumber] ON [dbo].[Employees]&#xa;(&#xa;&#x9;[IdentificationCardNumber] ASC,&#xa;&#x9;[TaxPayerIdentificationNumber] ASC,&#xa;&#x9;[NationalInsuranceSchemeNumber] ASC&#xa;)WITH (PAD_INDEX = OFF, STATISTICS_NORECOMPUTE = OFF, SORT_IN_TEMPDB = OFF, IGNORE_DUP_KEY = OFF, DROP_EXISTING = OFF, ONLINE = OFF, ALLOW_ROW_LOCKS = ON, ALLOW_PAGE_LOCKS = ON, OPTIMIZE_FOR_SEQUENTIAL_KEY = OFF) ON [PRIMARY]&#xa;GO&#xa;/****** Object:  Index [IX_Employees_MaritalStatusTypeId]    Script Date: 31/08/2023 8:59:08 AM ******/&#xa;CREATE NONCLUSTERED INDEX [IX_Employees_MaritalStatusTypeId] ON [dbo].[Employees]&#xa;(&#xa;&#x9;[MaritalStatusTypeId] ASC&#xa;)WITH (PAD_INDEX = OFF, STATISTICS_NORECOMPUTE = OFF, SORT_IN_TEMPDB = OFF, DROP_EXISTING = OFF, ONLINE = OFF, ALLOW_ROW_LOCKS = ON, ALLOW_PAGE_LOCKS = ON, OPTIMIZE_FOR_SEQUENTIAL_KEY = OFF) ON [PRIMARY]&#xa;GO&#xa;/****** Object:  Index [IX_Employees_NationalityId]    Script Date: 31/08/2023 8:59:08 AM ******/&#xa;CREATE NONCLUSTERED INDEX [IX_Employees_NationalityId] ON [dbo].[Employees]&#xa;(&#xa;&#x9;[NationalityId] ASC&#xa;)WITH (PAD_INDEX = OFF, STATISTICS_NORECOMPUTE = OFF, SORT_IN_TEMPDB = OFF, DROP_EXISTING = OFF, ONLINE = OFF, ALLOW_ROW_LOCKS = ON, ALLOW_PAGE_LOCKS = ON, OPTIMIZE_FOR_SEQUENTIAL_KEY = OFF) ON [PRIMARY]&#xa;GO&#xa;/****** Object:  Index [IX_Employees_RaceId]    Script Date: 31/08/2023 8:59:08 AM ******/&#xa;CREATE NONCLUSTERED INDEX [IX_Employees_RaceId] ON [dbo].[Employees]&#xa;(&#xa;&#x9;[RaceId] ASC&#xa;)WITH (PAD_INDEX = OFF, STATISTICS_NORECOMPUTE = OFF, SORT_IN_TEMPDB = OFF, DROP_EXISTING = OFF, ONLINE = OFF, ALLOW_ROW_LOCKS = ON, ALLOW_PAGE_LOCKS = ON, OPTIMIZE_FOR_SEQUENTIAL_KEY = OFF) ON [PRIMARY]&#xa;GO&#xa;/****** Object:  Index [IX_Employees_ReligionId]    Script Date: 31/08/2023 8:59:08 AM ******/&#xa;CREATE NONCLUSTERED INDEX [IX_Employees_ReligionId] ON [dbo].[Employees]&#xa;(&#xa;&#x9;[ReligionId] ASC&#xa;)WITH (PAD_INDEX = OFF, STATISTICS_NORECOMPUTE = OFF, SORT_IN_TEMPDB = OFF, DROP_EXISTING = OFF, ONLINE = OFF, ALLOW_ROW_LOCKS = ON, ALLOW_PAGE_LOCKS = ON, OPTIMIZE_FOR_SEQUENTIAL_KEY = OFF) ON [PRIMARY]&#xa;GO&#xa;/****** Object:  Index [IX_Employees_SexId]    Script Date: 31/08/2023 8:59:08 AM ******/&#xa;CREATE NONCLUSTERED INDEX [IX_Employees_SexId] ON [dbo].[Employees]&#xa;(&#xa;&#x9;[SexId] ASC&#xa;)WITH (PAD_INDEX = OFF, STATISTICS_NORECOMPUTE = OFF, SORT_IN_TEMPDB = OFF, DROP_EXISTING = OFF, ONLINE = OFF, ALLOW_ROW_LOCKS = ON, ALLOW_PAGE_LOCKS = ON, OPTIMIZE_FOR_SEQUENTIAL_KEY = OFF) ON [PRIMARY]&#xa;GO&#xa;/****** Object:  Index [IX_Employees_TitleId]    Script Date: 31/08/2023 8:59:08 AM ******/&#xa;CREATE NONCLUSTERED INDEX [IX_Employees_TitleId] ON [dbo].[Employees]&#xa;(&#xa;&#x9;[TitleId] ASC&#xa;)WITH (PAD_INDEX = OFF, STATISTICS_NORECOMPUTE = OFF, SORT_IN_TEMPDB = OFF, DROP_EXISTING = OFF, ONLINE = OFF, ALLOW_ROW_LOCKS = ON, ALLOW_PAGE_LOCKS = ON, OPTIMIZE_FOR_SEQUENTIAL_KEY = OFF) ON [PRIMARY]&#xa;GO&#xa;/****** Object:  Index [IX_Families_EmployeeId]    Script Date: 31/08/2023 8:59:08 AM ******/&#xa;CREATE NONCLUSTERED INDEX [IX_Families_EmployeeId] ON [dbo].[Families]&#xa;(&#xa;&#x9;[EmployeeId] ASC&#xa;)WITH (PAD_INDEX = OFF, STATISTICS_NORECOMPUTE = OFF, SORT_IN_TEMPDB = OFF, DROP_EXISTING = OFF, ONLINE = OFF, ALLOW_ROW_LOCKS = ON, ALLOW_PAGE_LOCKS = ON, OPTIMIZE_FOR_SEQUENTIAL_KEY = OFF) ON [PRIMARY]&#xa;GO&#xa;SET ANSI_PADDING ON&#xa;GO&#xa;/****** Object:  Index [IX_Families_FirstName_LastName_RelationshipId_NextOfKin_EmployeeId]    Script Date: 31/08/2023 8:59:08 AM ******/&#xa;CREATE UNIQUE NONCLUSTERED INDEX [IX_Families_FirstName_LastName_RelationshipId_NextOfKin_EmployeeId] ON [dbo].[Families]&#xa;(&#xa;&#x9;[FirstName] ASC,&#xa;&#x9;[LastName] ASC,&#xa;&#x9;[RelationshipId] ASC,&#xa;&#x9;[NextOfKin] ASC,&#xa;&#x9;[EmployeeId] ASC&#xa;)WITH (PAD_INDEX = OFF, STATISTICS_NORECOMPUTE = OFF, SORT_IN_TEMPDB = OFF, IGNORE_DUP_KEY = OFF, DROP_EXISTING = OFF, ONLINE = OFF, ALLOW_ROW_LOCKS = ON, ALLOW_PAGE_LOCKS = ON, OPTIMIZE_FOR_SEQUENTIAL_KEY = OFF) ON [PRIMARY]&#xa;GO&#xa;/****** Object:  Index [IX_Families_MilitaryParamilitaryOrganizationId]    Script Date: 31/08/2023 8:59:08 AM ******/&#xa;CREATE NONCLUSTERED INDEX [IX_Families_MilitaryParamilitaryOrganizationId] ON [dbo].[Families]&#xa;(&#xa;&#x9;[MilitaryParamilitaryOrganizationId] ASC&#xa;)WITH (PAD_INDEX = OFF, STATISTICS_NORECOMPUTE = OFF, SORT_IN_TEMPDB = OFF, DROP_EXISTING = OFF, ONLINE = OFF, ALLOW_ROW_LOCKS = ON, ALLOW_PAGE_LOCKS = ON, OPTIMIZE_FOR_SEQUENTIAL_KEY = OFF) ON [PRIMARY]&#xa;GO&#xa;/****** Object:  Index [IX_Families_RelationshipId]    Script Date: 31/08/2023 8:59:08 AM ******/&#xa;CREATE NONCLUSTERED INDEX [IX_Families_RelationshipId] ON [dbo].[Families]&#xa;(&#xa;&#x9;[RelationshipId] ASC&#xa;)WITH (PAD_INDEX = OFF, STATISTICS_NORECOMPUTE = OFF, SORT_IN_TEMPDB = OFF, DROP_EXISTING = OFF, ONLINE = OFF, ALLOW_ROW_LOCKS = ON, ALLOW_PAGE_LOCKS = ON, OPTIMIZE_FOR_SEQUENTIAL_KEY = OFF) ON [PRIMARY]&#xa;GO&#xa;/****** Object:  Index [IX_Families_SexId]    Script Date: 31/08/2023 8:59:08 AM ******/&#xa;CREATE NONCLUSTERED INDEX [IX_Families_SexId] ON [dbo].[Families]&#xa;(&#xa;&#x9;[SexId] ASC&#xa;)WITH (PAD_INDEX = OFF, STATISTICS_NORECOMPUTE = OFF, SORT_IN_TEMPDB = OFF, DROP_EXISTING = OFF, ONLINE = OFF, ALLOW_ROW_LOCKS = ON, ALLOW_PAGE_LOCKS = ON, OPTIMIZE_FOR_SEQUENTIAL_KEY = OFF) ON [PRIMARY]&#xa;GO&#xa;/****** Object:  Index [IX_FamilyAddresses_CountyId]    Script Date: 31/08/2023 8:59:08 AM ******/&#xa;CREATE NONCLUSTERED INDEX [IX_FamilyAddresses_CountyId] ON [dbo].[FamilyAddresses]&#xa;(&#xa;&#x9;[CountyId] ASC&#xa;)WITH (PAD_INDEX = OFF, STATISTICS_NORECOMPUTE = OFF, SORT_IN_TEMPDB = OFF, DROP_EXISTING = OFF, ONLINE = OFF, ALLOW_ROW_LOCKS = ON, ALLOW_PAGE_LOCKS = ON, OPTIMIZE_FOR_SEQUENTIAL_KEY = OFF) ON [PRIMARY]&#xa;GO&#xa;/****** Object:  Index [IX_FamilyAddresses_FamilyId]    Script Date: 31/08/2023 8:59:08 AM ******/&#xa;CREATE NONCLUSTERED INDEX [IX_FamilyAddresses_FamilyId] ON [dbo].[FamilyAddresses]&#xa;(&#xa;&#x9;[FamilyId] ASC&#xa;)WITH (PAD_INDEX = OFF, STATISTICS_NORECOMPUTE = OFF, SORT_IN_TEMPDB = OFF, DROP_EXISTING = OFF, ONLINE = OFF, ALLOW_ROW_LOCKS = ON, ALLOW_PAGE_LOCKS = ON, OPTIMIZE_FOR_SEQUENTIAL_KEY = OFF) ON [PRIMARY]&#xa;GO&#xa;SET ANSI_PADDING ON&#xa;GO&#xa;/****** Object:  Index [IX_FamilyAddresses_Lot_Street_Area_Town_RegionId_CountyId_FamilyId]    Script Date: 31/08/2023 8:59:08 AM ******/&#xa;CREATE UNIQUE NONCLUSTERED INDEX [IX_FamilyAddresses_Lot_Street_Area_Town_RegionId_CountyId_FamilyId] ON [dbo].[FamilyAddresses]&#xa;(&#xa;&#x9;[Lot] ASC,&#xa;&#x9;[Street] ASC,&#xa;&#x9;[Area] ASC,&#xa;&#x9;[Town] ASC,&#xa;&#x9;[RegionId] ASC,&#xa;&#x9;[CountyId] ASC,&#xa;&#x9;[FamilyId] ASC&#xa;)&#xa;WHERE ([Lot] IS NOT NULL AND [Town] IS NOT NULL)&#xa;WITH (PAD_INDEX = OFF, STATISTICS_NORECOMPUTE = OFF, SORT_IN_TEMPDB = OFF, IGNORE_DUP_KEY = OFF, DROP_EXISTING = OFF, ONLINE = OFF, ALLOW_ROW_LOCKS = ON, ALLOW_PAGE_LOCKS = ON, OPTIMIZE_FOR_SEQUENTIAL_KEY = OFF) ON [PRIMARY]&#xa;GO&#xa;/****** Object:  Index [IX_FamilyAddresses_RegionId]    Script Date: 31/08/2023 8:59:08 AM ******/&#xa;CREATE NONCLUSTERED INDEX [IX_FamilyAddresses_RegionId] ON [dbo].[FamilyAddresses]&#xa;(&#xa;&#x9;[RegionId] ASC&#xa;)WITH (PAD_INDEX = OFF, STATISTICS_NORECOMPUTE = OFF, SORT_IN_TEMPDB = OFF, DROP_EXISTING = OFF, ONLINE = OFF, ALLOW_ROW_LOCKS = ON, ALLOW_PAGE_LOCKS = ON, OPTIMIZE_FOR_SEQUENTIAL_KEY = OFF) ON [PRIMARY]&#xa;GO&#xa;/****** Object:  Index [IX_ForceOrders_ForceOrderTypeId]    Script Date: 31/08/2023 8:59:08 AM ******/&#xa;CREATE NONCLUSTERED INDEX [IX_ForceOrders_ForceOrderTypeId] ON [dbo].[ForceOrders]&#xa;(&#xa;&#x9;[ForceOrderTypeId] ASC&#xa;)WITH (PAD_INDEX = OFF, STATISTICS_NORECOMPUTE = OFF, SORT_IN_TEMPDB = OFF, DROP_EXISTING = OFF, ONLINE = OFF, ALLOW_ROW_LOCKS = ON, ALLOW_PAGE_LOCKS = ON, OPTIMIZE_FOR_SEQUENTIAL_KEY = OFF) ON [PRIMARY]&#xa;GO&#xa;SET ANSI_PADDING ON&#xa;GO&#xa;/****** Object:  Index [IX_ForceOrderTypes_OrderType]    Script Date: 31/08/2023 8:59:08 AM ******/&#xa;CREATE UNIQUE NONCLUSTERED INDEX [IX_ForceOrderTypes_OrderType] ON [dbo].[ForceOrderTypes]&#xa;(&#xa;&#x9;[OrderType] ASC&#xa;)WITH (PAD_INDEX = OFF, STATISTICS_NORECOMPUTE = OFF, SORT_IN_TEMPDB = OFF, IGNORE_DUP_KEY = OFF, DROP_EXISTING = OFF, ONLINE = OFF, ALLOW_ROW_LOCKS = ON, ALLOW_PAGE_LOCKS = ON, OPTIMIZE_FOR_SEQUENTIAL_KEY = OFF) ON [PRIMARY]&#xa;GO&#xa;SET ANSI_PADDING ON&#xa;GO&#xa;/****** Object:  Index [IX_Keys_Use]    Script Date: 31/08/2023 8:59:08 AM ******/&#xa;CREATE NONCLUSTERED INDEX [IX_Keys_Use] ON [dbo].[Keys]&#xa;(&#xa;&#x9;[Use] ASC&#xa;)WITH (PAD_INDEX = OFF, STATISTICS_NORECOMPUTE = OFF, SORT_IN_TEMPDB = OFF, DROP_EXISTING = OFF, ONLINE = OFF, ALLOW_ROW_LOCKS = ON, ALLOW_PAGE_LOCKS = ON, OPTIMIZE_FOR_SEQUENTIAL_KEY = OFF) ON [PRIMARY]&#xa;GO&#xa;SET ANSI_PADDING ON&#xa;GO&#xa;/****** Object:  Index [IX_MaritalStatusTypes_MaritalStatus]    Script Date: 31/08/2023 8:59:08 AM ******/&#xa;CREATE UNIQUE NONCLUSTERED INDEX [IX_MaritalStatusTypes_MaritalStatus] ON [dbo].[MaritalStatusTypes]&#xa;(&#xa;&#x9;[MaritalStatus] ASC&#xa;)WITH (PAD_INDEX = OFF, STATISTICS_NORECOMPUTE = OFF, SORT_IN_TEMPDB = OFF, IGNORE_DUP_KEY = OFF, DROP_EXISTING = OFF, ONLINE = OFF, ALLOW_ROW_LOCKS = ON, ALLOW_PAGE_LOCKS = ON, OPTIMIZE_FOR_SEQUENTIAL_KEY = OFF) ON [PRIMARY]&#xa;GO&#xa;SET ANSI_PADDING ON&#xa;GO&#xa;/****** Object:  Index [IX_MilitaryParamilitaryOrganizations_OrganizationName]    Script Date: 31/08/2023 8:59:08 AM ******/&#xa;CREATE UNIQUE NONCLUSTERED INDEX [IX_MilitaryParamilitaryOrganizations_OrganizationName] ON [dbo].[MilitaryParamilitaryOrganizations]&#xa;(&#xa;&#x9;[OrganizationName] ASC&#xa;)WITH (PAD_INDEX = OFF, STATISTICS_NORECOMPUTE = OFF, SORT_IN_TEMPDB = OFF, IGNORE_DUP_KEY = OFF, DROP_EXISTING = OFF, ONLINE = OFF, ALLOW_ROW_LOCKS = ON, ALLOW_PAGE_LOCKS = ON, OPTIMIZE_FOR_SEQUENTIAL_KEY = OFF) ON [PRIMARY]&#xa;GO&#xa;SET ANSI_PADDING ON&#xa;GO&#xa;/****** Object:  Index [IX_Nationalities_NationalityType]    Script Date: 31/08/2023 8:59:08 AM ******/&#xa;CREATE UNIQUE NONCLUSTERED INDEX [IX_Nationalities_NationalityType] ON [dbo].[Nationalities]&#xa;(&#xa;&#x9;[NationalityType] ASC&#xa;)WITH (PAD_INDEX = OFF, STATISTICS_NORECOMPUTE = OFF, SORT_IN_TEMPDB = OFF, IGNORE_DUP_KEY = OFF, DROP_EXISTING = OFF, ONLINE = OFF, ALLOW_ROW_LOCKS = ON, ALLOW_PAGE_LOCKS = ON, OPTIMIZE_FOR_SEQUENTIAL_KEY = OFF) ON [PRIMARY]&#xa;GO&#xa;/****** Object:  Index [IX_OtherNames_EmployeeId]    Script Date: 31/08/2023 8:59:08 AM ******/&#xa;CREATE NONCLUSTERED INDEX [IX_OtherNames_EmployeeId] ON [dbo].[OtherNames]&#xa;(&#xa;&#x9;[EmployeeId] ASC&#xa;)WITH (PAD_INDEX = OFF, STATISTICS_NORECOMPUTE = OFF, SORT_IN_TEMPDB = OFF, DROP_EXISTING = OFF, ONLINE = OFF, ALLOW_ROW_LOCKS = ON, ALLOW_PAGE_LOCKS = ON, OPTIMIZE_FOR_SEQUENTIAL_KEY = OFF) ON [PRIMARY]&#xa;GO&#xa;/****** Object:  Index [IX_PersistedGrants_ConsumedTime]    Script Date: 31/08/2023 8:59:08 AM ******/&#xa;CREATE NONCLUSTERED INDEX [IX_PersistedGrants_ConsumedTime] ON [dbo].[PersistedGrants]&#xa;(&#xa;&#x9;[ConsumedTime] ASC&#xa;)WITH (PAD_INDEX = OFF, STATISTICS_NORECOMPUTE = OFF, SORT_IN_TEMPDB = OFF, DROP_EXISTING = OFF, ONLINE = OFF, ALLOW_ROW_LOCKS = ON, ALLOW_PAGE_LOCKS = ON, OPTIMIZE_FOR_SEQUENTIAL_KEY = OFF) ON [PRIMARY]&#xa;GO&#xa;/****** Object:  Index [IX_PersistedGrants_Expiration]    Script Date: 31/08/2023 8:59:08 AM ******/&#xa;CREATE NONCLUSTERED INDEX [IX_PersistedGrants_Expiration] ON [dbo].[PersistedGrants]&#xa;(&#xa;&#x9;[Expiration] ASC&#xa;)WITH (PAD_INDEX = OFF, STATISTICS_NORECOMPUTE = OFF, SORT_IN_TEMPDB = OFF, DROP_EXISTING = OFF, ONLINE = OFF, ALLOW_ROW_LOCKS = ON, ALLOW_PAGE_LOCKS = ON, OPTIMIZE_FOR_SEQUENTIAL_KEY = OFF) ON [PRIMARY]&#xa;GO&#xa;SET ANSI_PADDING ON&#xa;GO&#xa;/****** Object:  Index [IX_PersistedGrants_SubjectId_ClientId_Type]    Script Date: 31/08/2023 8:59:08 AM ******/&#xa;CREATE NONCLUSTERED INDEX [IX_PersistedGrants_SubjectId_ClientId_Type] ON [dbo].[PersistedGrants]&#xa;(&#xa;&#x9;[SubjectId] ASC,&#xa;&#x9;[ClientId] ASC,&#xa;&#x9;[Type] ASC&#xa;)WITH (PAD_INDEX = OFF, STATISTICS_NORECOMPUTE = OFF, SORT_IN_TEMPDB = OFF, DROP_EXISTING = OFF, ONLINE = OFF, ALLOW_ROW_LOCKS = ON, ALLOW_PAGE_LOCKS = ON, OPTIMIZE_FOR_SEQUENTIAL_KEY = OFF) ON [PRIMARY]&#xa;GO&#xa;SET ANSI_PADDING ON&#xa;GO&#xa;/****** Object:  Index [IX_PersistedGrants_SubjectId_SessionId_Type]    Script Date: 31/08/2023 8:59:08 AM ******/&#xa;CREATE NONCLUSTERED INDEX [IX_PersistedGrants_SubjectId_SessionId_Type] ON [dbo].[PersistedGrants]&#xa;(&#xa;&#x9;[SubjectId] ASC,&#xa;&#x9;[SessionId] ASC,&#xa;&#x9;[Type] ASC&#xa;)WITH (PAD_INDEX = OFF, STATISTICS_NORECOMPUTE = OFF, SORT_IN_TEMPDB = OFF, DROP_EXISTING = OFF, ONLINE = OFF, ALLOW_ROW_LOCKS = ON, ALLOW_PAGE_LOCKS = ON, OPTIMIZE_FOR_SEQUENTIAL_KEY = OFF) ON [PRIMARY]&#xa;GO&#xa;/****** Object:  Index [IX_PromotionHistories_EmployeeId]    Script Date: 31/08/2023 8:59:08 AM ******/&#xa;CREATE NONCLUSTERED INDEX [IX_PromotionHistories_EmployeeId] ON [dbo].[PromotionHistories]&#xa;(&#xa;&#x9;[EmployeeId] ASC&#xa;)WITH (PAD_INDEX = OFF, STATISTICS_NORECOMPUTE = OFF, SORT_IN_TEMPDB = OFF, DROP_EXISTING = OFF, ONLINE = OFF, ALLOW_ROW_LOCKS = ON, ALLOW_PAGE_LOCKS = ON, OPTIMIZE_FOR_SEQUENTIAL_KEY = OFF) ON [PRIMARY]&#xa;GO&#xa;/****** Object:  Index [IX_PromotionHistories_ForceOrderId]    Script Date: 31/08/2023 8:59:08 AM ******/&#xa;CREATE NONCLUSTERED INDEX [IX_PromotionHistories_ForceOrderId] ON [dbo].[PromotionHistories]&#xa;(&#xa;&#x9;[ForceOrderId] ASC&#xa;)WITH (PAD_INDEX = OFF, STATISTICS_NORECOMPUTE = OFF, SORT_IN_TEMPDB = OFF, DROP_EXISTING = OFF, ONLINE = OFF, ALLOW_ROW_LOCKS = ON, ALLOW_PAGE_LOCKS = ON, OPTIMIZE_FOR_SEQUENTIAL_KEY = OFF) ON [PRIMARY]&#xa;GO&#xa;/****** Object:  Index [IX_PromotionHistories_PromotedToRankId]    Script Date: 31/08/2023 8:59:08 AM ******/&#xa;CREATE NONCLUSTERED INDEX [IX_PromotionHistories_PromotedToRankId] ON [dbo].[PromotionHistories]&#xa;(&#xa;&#x9;[PromotedToRankId] ASC&#xa;)WITH (PAD_INDEX = OFF, STATISTICS_NORECOMPUTE = OFF, SORT_IN_TEMPDB = OFF, DROP_EXISTING = OFF, ONLINE = OFF, ALLOW_ROW_LOCKS = ON, ALLOW_PAGE_LOCKS = ON, OPTIMIZE_FOR_SEQUENTIAL_KEY = OFF) ON [PRIMARY]&#xa;GO&#xa;/****** Object:  Index [IX_PromotionHistories_PromotedToRankStatusId]    Script Date: 31/08/2023 8:59:08 AM ******/&#xa;CREATE NONCLUSTERED INDEX [IX_PromotionHistories_PromotedToRankStatusId] ON [dbo].[PromotionHistories]&#xa;(&#xa;&#x9;[PromotedToRankStatusId] ASC&#xa;)WITH (PAD_INDEX = OFF, STATISTICS_NORECOMPUTE = OFF, SORT_IN_TEMPDB = OFF, DROP_EXISTING = OFF, ONLINE = OFF, ALLOW_ROW_LOCKS = ON, ALLOW_PAGE_LOCKS = ON, OPTIMIZE_FOR_SEQUENTIAL_KEY = OFF) ON [PRIMARY]&#xa;GO&#xa;/****** Object:  Index [IX_PromotionHistories_PromotionHistoryDate_PromotedToRankId_PromotedToRankStatusId_EmployeeId]    Script Date: 31/08/2023 8:59:08 AM ******/&#xa;CREATE UNIQUE NONCLUSTERED INDEX [IX_PromotionHistories_PromotionHistoryDate_PromotedToRankId_PromotedToRankStatusId_EmployeeId] ON [dbo].[PromotionHistories]&#xa;(&#xa;&#x9;[PromotionHistoryDate] ASC,&#xa;&#x9;[PromotedToRankId] ASC,&#xa;&#x9;[PromotedToRankStatusId] ASC,&#xa;&#x9;[EmployeeId] ASC&#xa;)WITH (PAD_INDEX = OFF, STATISTICS_NORECOMPUTE = OFF, SORT_IN_TEMPDB = OFF, IGNORE_DUP_KEY = OFF, DROP_EXISTING = OFF, ONLINE = OFF, ALLOW_ROW_LOCKS = ON, ALLOW_PAGE_LOCKS = ON, OPTIMIZE_FOR_SEQUENTIAL_KEY = OFF) ON [PRIMARY]&#xa;GO&#xa;SET ANSI_PADDING ON&#xa;GO&#xa;/****** Object:  Index [IX_Races_RaceType]    Script Date: 31/08/2023 8:59:08 AM ******/&#xa;CREATE UNIQUE NONCLUSTERED INDEX [IX_Races_RaceType] ON [dbo].[Races]&#xa;(&#xa;&#x9;[RaceType] ASC&#xa;)WITH (PAD_INDEX = OFF, STATISTICS_NORECOMPUTE = OFF, SORT_IN_TEMPDB = OFF, IGNORE_DUP_KEY = OFF, DROP_EXISTING = OFF, ONLINE = OFF, ALLOW_ROW_LOCKS = ON, ALLOW_PAGE_LOCKS = ON, OPTIMIZE_FOR_SEQUENTIAL_KEY = OFF) ON [PRIMARY]&#xa;GO&#xa;SET ANSI_PADDING ON&#xa;GO&#xa;/****** Object:  Index [IX_Ranks_RankName_RankFullName]    Script Date: 31/08/2023 8:59:08 AM ******/&#xa;CREATE UNIQUE NONCLUSTERED INDEX [IX_Ranks_RankName_RankFullName] ON [dbo].[Ranks]&#xa;(&#xa;&#x9;[RankName] ASC,&#xa;&#x9;[RankFullName] ASC&#xa;)WITH (PAD_INDEX = OFF, STATISTICS_NORECOMPUTE = OFF, SORT_IN_TEMPDB = OFF, IGNORE_DUP_KEY = OFF, DROP_EXISTING = OFF, ONLINE = OFF, ALLOW_ROW_LOCKS = ON, ALLOW_PAGE_LOCKS = ON, OPTIMIZE_FOR_SEQUENTIAL_KEY = OFF) ON [PRIMARY]&#xa;GO&#xa;SET ANSI_PADDING ON&#xa;GO&#xa;/****** Object:  Index [IX_RankStatuses_Status_StatusName]    Script Date: 31/08/2023 8:59:08 AM ******/&#xa;CREATE UNIQUE NONCLUSTERED INDEX [IX_RankStatuses_Status_StatusName] ON [dbo].[RankStatuses]&#xa;(&#xa;&#x9;[Status] ASC,&#xa;&#x9;[StatusName] ASC&#xa;)WITH (PAD_INDEX = OFF, STATISTICS_NORECOMPUTE = OFF, SORT_IN_TEMPDB = OFF, IGNORE_DUP_KEY = OFF, DROP_EXISTING = OFF, ONLINE = OFF, ALLOW_ROW_LOCKS = ON, ALLOW_PAGE_LOCKS = ON, OPTIMIZE_FOR_SEQUENTIAL_KEY = OFF) ON [PRIMARY]&#xa;GO&#xa;/****** Object:  Index [IX_RegimentalNumbers_EmployeeId]    Script Date: 31/08/2023 8:59:08 AM ******/&#xa;CREATE NONCLUSTERED INDEX [IX_RegimentalNumbers_EmployeeId] ON [dbo].[RegimentalNumbers]&#xa;(&#xa;&#x9;[EmployeeId] ASC&#xa;)WITH (PAD_INDEX = OFF, STATISTICS_NORECOMPUTE = OFF, SORT_IN_TEMPDB = OFF, DROP_EXISTING = OFF, ONLINE = OFF, ALLOW_ROW_LOCKS = ON, ALLOW_PAGE_LOCKS = ON, OPTIMIZE_FOR_SEQUENTIAL_KEY = OFF) ON [PRIMARY]&#xa;GO&#xa;SET ANSI_PADDING ON&#xa;GO&#xa;/****** Object:  Index [IX_RegimentalNumbers_EmpRegimentalNumber]    Script Date: 31/08/2023 8:59:08 AM ******/&#xa;CREATE UNIQUE NONCLUSTERED INDEX [IX_RegimentalNumbers_EmpRegimentalNumber] ON [dbo].[RegimentalNumbers]&#xa;(&#xa;&#x9;[EmpRegimentalNumber] ASC&#xa;)WITH (PAD_INDEX = OFF, STATISTICS_NORECOMPUTE = OFF, SORT_IN_TEMPDB = OFF, IGNORE_DUP_KEY = OFF, DROP_EXISTING = OFF, ONLINE = OFF, ALLOW_ROW_LOCKS = ON, ALLOW_PAGE_LOCKS = ON, OPTIMIZE_FOR_SEQUENTIAL_KEY = OFF) ON [PRIMARY]&#xa;GO&#xa;SET ANSI_PADDING ON&#xa;GO&#xa;/****** Object:  Index [IX_Regions_RegionType_RegionNumber]    Script Date: 31/08/2023 8:59:08 AM ******/&#xa;CREATE UNIQUE NONCLUSTERED INDEX [IX_Regions_RegionType_RegionNumber] ON [dbo].[Regions]&#xa;(&#xa;&#x9;[RegionType] ASC,&#xa;&#x9;[RegionNumber] ASC&#xa;)WITH (PAD_INDEX = OFF, STATISTICS_NORECOMPUTE = OFF, SORT_IN_TEMPDB = OFF, IGNORE_DUP_KEY = OFF, DROP_EXISTING = OFF, ONLINE = OFF, ALLOW_ROW_LOCKS = ON, ALLOW_PAGE_LOCKS = ON, OPTIMIZE_FOR_SEQUENTIAL_KEY = OFF) ON [PRIMARY]&#xa;GO&#xa;SET ANSI_PADDING ON&#xa;GO&#xa;/****** Object:  Index [IX_Relationships_RelationshipType]    Script Date: 31/08/2023 8:59:08 AM ******/&#xa;CREATE UNIQUE NONCLUSTERED INDEX [IX_Relationships_RelationshipType] ON [dbo].[Relationships]&#xa;(&#xa;&#x9;[RelationshipType] ASC&#xa;)WITH (PAD_INDEX = OFF, STATISTICS_NORECOMPUTE = OFF, SORT_IN_TEMPDB = OFF, IGNORE_DUP_KEY = OFF, DROP_EXISTING = OFF, ONLINE = OFF, ALLOW_ROW_LOCKS = ON, ALLOW_PAGE_LOCKS = ON, OPTIMIZE_FOR_SEQUENTIAL_KEY = OFF) ON [PRIMARY]&#xa;GO&#xa;SET ANSI_PADDING ON&#xa;GO&#xa;/****** Object:  Index [IX_Religions_ReligionType]    Script Date: 31/08/2023 8:59:08 AM ******/&#xa;CREATE UNIQUE NONCLUSTERED INDEX [IX_Religions_ReligionType] ON [dbo].[Religions]&#xa;(&#xa;&#x9;[ReligionType] ASC&#xa;)WITH (PAD_INDEX = OFF, STATISTICS_NORECOMPUTE = OFF, SORT_IN_TEMPDB = OFF, IGNORE_DUP_KEY = OFF, DROP_EXISTING = OFF, ONLINE = OFF, ALLOW_ROW_LOCKS = ON, ALLOW_PAGE_LOCKS = ON, OPTIMIZE_FOR_SEQUENTIAL_KEY = OFF) ON [PRIMARY]&#xa;GO&#xa;SET ANSI_PADDING ON&#xa;GO&#xa;/****** Object:  Index [IX_Sexes_SexType]    Script Date: 31/08/2023 8:59:08 AM ******/&#xa;CREATE UNIQUE NONCLUSTERED INDEX [IX_Sexes_SexType] ON [dbo].[Sexes]&#xa;(&#xa;&#x9;[SexType] ASC&#xa;)WITH (PAD_INDEX = OFF, STATISTICS_NORECOMPUTE = OFF, SORT_IN_TEMPDB = OFF, IGNORE_DUP_KEY = OFF, DROP_EXISTING = OFF, ONLINE = OFF, ALLOW_ROW_LOCKS = ON, ALLOW_PAGE_LOCKS = ON, OPTIMIZE_FOR_SEQUENTIAL_KEY = OFF) ON [PRIMARY]&#xa;GO&#xa;SET ANSI_PADDING ON&#xa;GO&#xa;/****** Object:  Index [IX_Titles_TitleType]    Script Date: 31/08/2023 8:59:08 AM ******/&#xa;CREATE UNIQUE NONCLUSTERED INDEX [IX_Titles_TitleType] ON [dbo].[Titles]&#xa;(&#xa;&#x9;[TitleType] ASC&#xa;)WITH (PAD_INDEX = OFF, STATISTICS_NORECOMPUTE = OFF, SORT_IN_TEMPDB = OFF, IGNORE_DUP_KEY = OFF, DROP_EXISTING = OFF, ONLINE = OFF, ALLOW_ROW_LOCKS = ON, ALLOW_PAGE_LOCKS = ON, OPTIMIZE_FOR_SEQUENTIAL_KEY = OFF) ON [PRIMARY]&#xa;GO&#xa;SET ANSI_PADDING ON&#xa;GO&#xa;/****** Object:  Index [IX_Units_UnitName_UnitAbbreviation]    Script Date: 31/08/2023 8:59:08 AM ******/&#xa;CREATE UNIQUE NONCLUSTERED INDEX [IX_Units_UnitName_UnitAbbreviation] ON [dbo].[Units]&#xa;(&#xa;&#x9;[UnitName] ASC,&#xa;&#x9;[UnitAbbreviation] ASC&#xa;)WITH (PAD_INDEX = OFF, STATISTICS_NORECOMPUTE = OFF, SORT_IN_TEMPDB = OFF, IGNORE_DUP_KEY = OFF, DROP_EXISTING = OFF, ONLINE = OFF, ALLOW_ROW_LOCKS = ON, ALLOW_PAGE_LOCKS = ON, OPTIMIZE_FOR_SEQUENTIAL_KEY = OFF) ON [PRIMARY]&#xa;GO&#xa;ALTER TABLE [dbo].[Counties] ADD  DEFAULT (N&#39;&#39;) FOR [CountyType]&#xa;GO&#xa;ALTER TABLE [dbo].[Counties] ADD  DEFAULT (N&#39;&#39;) FOR [CreatedBy]&#xa;GO&#xa;ALTER TABLE [dbo].[Counties] ADD  DEFAULT (&#39;0001-01-01T00:00:00.0000000&#39;) FOR [LastModified]&#xa;GO&#xa;ALTER TABLE [dbo].[Counties] ADD  DEFAULT (N&#39;&#39;) FOR [LastModifiedBy]&#xa;GO&#xa;ALTER TABLE [dbo].[Countries] ADD  DEFAULT (N&#39;&#39;) FOR [CountryType]&#xa;GO&#xa;ALTER TABLE [dbo].[Countries] ADD  DEFAULT (N&#39;&#39;) FOR [CreatedBy]&#xa;GO&#xa;ALTER TABLE [dbo].[Countries] ADD  DEFAULT (&#39;0001-01-01T00:00:00.0000000&#39;) FOR [LastModified]&#xa;GO&#xa;ALTER TABLE [dbo].[Countries] ADD  DEFAULT (N&#39;&#39;) FOR [LastModifiedBy]&#xa;GO&#xa;ALTER TABLE [dbo].[EmployeeAddresses] ADD  DEFAULT (&#39;00000000-0000-0000-0000-000000000000&#39;) FOR [RegionId]&#xa;GO&#xa;ALTER TABLE [dbo].[EmployeeAddresses] ADD  DEFAULT (&#39;00000000-0000-0000-0000-000000000000&#39;) FOR [EmployeeId]&#xa;GO&#xa;ALTER TABLE [dbo].[EmployeeAddresses] ADD  DEFAULT (N&#39;&#39;) FOR [CreatedBy]&#xa;GO&#xa;ALTER TABLE [dbo].[EmployeeAddresses] ADD  DEFAULT (&#39;0001-01-01T00:00:00.0000000&#39;) FOR [LastModified]&#xa;GO&#xa;ALTER TABLE [dbo].[EmployeeAddresses] ADD  DEFAULT (N&#39;&#39;) FOR [LastModifiedBy]&#xa;GO&#xa;ALTER TABLE [dbo].[EmployeeAddresses] ADD  DEFAULT (&#39;00000000-0000-0000-0000-000000000000&#39;) FOR [CountyId]&#xa;GO&#xa;ALTER TABLE [dbo].[Regions] ADD  DEFAULT (N&#39;&#39;) FOR [RegionType]&#xa;GO&#xa;ALTER TABLE [dbo].[Regions] ADD  DEFAULT ((0)) FOR [RegionNumber]&#xa;GO&#xa;ALTER TABLE [dbo].[Regions] ADD  DEFAULT (N&#39;&#39;) FOR [CreatedBy]&#xa;GO&#xa;ALTER TABLE [dbo].[Regions] ADD  DEFAULT (&#39;0001-01-01T00:00:00.0000000&#39;) FOR [LastModified]&#xa;GO&#xa;ALTER TABLE [dbo].[Regions] ADD  DEFAULT (N&#39;&#39;) FOR [LastModifiedBy]&#xa;GO&#xa;ALTER TABLE [dbo].[AspNetRoleClaims]  WITH CHECK ADD  CONSTRAINT [FK_AspNetRoleClaims_AspNetRoles_RoleId] FOREIGN KEY([RoleId])&#xa;REFERENCES [dbo].[AspNetRoles] ([Id])&#xa;ON DELETE CASCADE&#xa;GO&#xa;ALTER TABLE [dbo].[AspNetRoleClaims] CHECK CONSTRAINT [FK_AspNetRoleClaims_AspNetRoles_RoleId]&#xa;GO&#xa;ALTER TABLE [dbo].[AspNetUserClaims]  WITH CHECK ADD  CONSTRAINT [FK_AspNetUserClaims_AspNetUsers_UserId] FOREIGN KEY([UserId])&#xa;REFERENCES [dbo].[AspNetUsers] ([Id])&#xa;ON DELETE CASCADE&#xa;GO&#xa;ALTER TABLE [dbo].[AspNetUserClaims] CHECK CONSTRAINT [FK_AspNetUserClaims_AspNetUsers_UserId]&#xa;GO&#xa;ALTER TABLE [dbo].[AspNetUserLogins]  WITH CHECK ADD  CONSTRAINT [FK_AspNetUserLogins_AspNetUsers_UserId] FOREIGN KEY([UserId])&#xa;REFERENCES [dbo].[AspNetUsers] ([Id])&#xa;ON DELETE CASCADE&#xa;GO&#xa;ALTER TABLE [dbo].[AspNetUserLogins] CHECK CONSTRAINT [FK_AspNetUserLogins_AspNetUsers_UserId]&#xa;GO&#xa;ALTER TABLE [dbo].[AspNetUserRoles]  WITH CHECK ADD  CONSTRAINT [FK_AspNetUserRoles_AspNetRoles_RoleId] FOREIGN KEY([RoleId])&#xa;REFERENCES [dbo].[AspNetRoles] ([Id])&#xa;ON DELETE CASCADE&#xa;GO&#xa;ALTER TABLE [dbo].[AspNetUserRoles] CHECK CONSTRAINT [FK_AspNetUserRoles_AspNetRoles_RoleId]&#xa;GO&#xa;ALTER TABLE [dbo].[AspNetUserRoles]  WITH CHECK ADD  CONSTRAINT [FK_AspNetUserRoles_AspNetUsers_UserId] FOREIGN KEY([UserId])&#xa;REFERENCES [dbo].[AspNetUsers] ([Id])&#xa;ON DELETE CASCADE&#xa;GO&#xa;ALTER TABLE [dbo].[AspNetUserRoles] CHECK CONSTRAINT [FK_AspNetUserRoles_AspNetUsers_UserId]&#xa;GO&#xa;ALTER TABLE [dbo].[AspNetUserTokens]  WITH CHECK ADD  CONSTRAINT [FK_AspNetUserTokens_AspNetUsers_UserId] FOREIGN KEY([UserId])&#xa;REFERENCES [dbo].[AspNetUsers] ([Id])&#xa;ON DELETE CASCADE&#xa;GO&#xa;ALTER TABLE [dbo].[AspNetUserTokens] CHECK CONSTRAINT [FK_AspNetUserTokens_AspNetUsers_UserId]&#xa;GO&#xa;ALTER TABLE [dbo].[EmployeeAddresses]  WITH CHECK ADD  CONSTRAINT [FK_EmployeeAddresses_Counties_CountyId] FOREIGN KEY([CountyId])&#xa;REFERENCES [dbo].[Counties] ([Id])&#xa;ON DELETE CASCADE&#xa;GO&#xa;ALTER TABLE [dbo].[EmployeeAddresses] CHECK CONSTRAINT [FK_EmployeeAddresses_Counties_CountyId]&#xa;GO&#xa;ALTER TABLE [dbo].[EmployeeAddresses]  WITH CHECK ADD  CONSTRAINT [FK_EmployeeAddresses_Countries_CountryId] FOREIGN KEY([CountryId])&#xa;REFERENCES [dbo].[Countries] ([Id])&#xa;GO&#xa;ALTER TABLE [dbo].[EmployeeAddresses] CHECK CONSTRAINT [FK_EmployeeAddresses_Countries_CountryId]&#xa;GO&#xa;ALTER TABLE [dbo].[EmployeeAddresses]  WITH CHECK ADD  CONSTRAINT [FK_EmployeeAddresses_Employees_EmployeeId] FOREIGN KEY([EmployeeId])&#xa;REFERENCES [dbo].[Employees] ([Id])&#xa;ON DELETE CASCADE&#xa;GO&#xa;ALTER TABLE [dbo].[EmployeeAddresses] CHECK CONSTRAINT [FK_EmployeeAddresses_Employees_EmployeeId]&#xa;GO&#xa;ALTER TABLE [dbo].[EmployeeAddresses]  WITH CHECK ADD  CONSTRAINT [FK_EmployeeAddresses_Regions_RegionId] FOREIGN KEY([RegionId])&#xa;REFERENCES [dbo].[Regions] ([Id])&#xa;ON DELETE CASCADE&#xa;GO&#xa;ALTER TABLE [dbo].[EmployeeAddresses] CHECK CONSTRAINT [FK_EmployeeAddresses_Regions_RegionId]&#xa;GO&#xa;ALTER TABLE [dbo].[Employees]  WITH CHECK ADD  CONSTRAINT [FK_Employees_MaritalStatusTypes_MaritalStatusTypeId] FOREIGN KEY([MaritalStatusTypeId])&#xa;REFERENCES [dbo].[MaritalStatusTypes] ([Id])&#xa;GO&#xa;ALTER TABLE [dbo].[Employees] CHECK CONSTRAINT [FK_Employees_MaritalStatusTypes_MaritalStatusTypeId]&#xa;GO&#xa;ALTER TABLE [dbo].[Employees]  WITH CHECK ADD  CONSTRAINT [FK_Employees_Nationalities_NationalityId] FOREIGN KEY([NationalityId])&#xa;REFERENCES [dbo].[Nationalities] ([Id])&#xa;GO&#xa;ALTER TABLE [dbo].[Employees] CHECK CONSTRAINT [FK_Employees_Nationalities_NationalityId]&#xa;GO&#xa;ALTER TABLE [dbo].[Employees]  WITH CHECK ADD  CONSTRAINT [FK_Employees_Races_RaceId] FOREIGN KEY([RaceId])&#xa;REFERENCES [dbo].[Races] ([Id])&#xa;GO&#xa;ALTER TABLE [dbo].[Employees] CHECK CONSTRAINT [FK_Employees_Races_RaceId]&#xa;GO&#xa;ALTER TABLE [dbo].[Employees]  WITH CHECK ADD  CONSTRAINT [FK_Employees_Religions_ReligionId] FOREIGN KEY([ReligionId])&#xa;REFERENCES [dbo].[Religions] ([Id])&#xa;GO&#xa;ALTER TABLE [dbo].[Employees] CHECK CONSTRAINT [FK_Employees_Religions_ReligionId]&#xa;GO&#xa;ALTER TABLE [dbo].[Employees]  WITH CHECK ADD  CONSTRAINT [FK_Employees_Sexes_SexId] FOREIGN KEY([SexId])&#xa;REFERENCES [dbo].[Sexes] ([Id])&#xa;GO&#xa;ALTER TABLE [dbo].[Employees] CHECK CONSTRAINT [FK_Employees_Sexes_SexId]&#xa;GO&#xa;ALTER TABLE [dbo].[Employees]  WITH CHECK ADD  CONSTRAINT [FK_Employees_Titles_TitleId] FOREIGN KEY([TitleId])&#xa;REFERENCES [dbo].[Titles] ([Id])&#xa;GO&#xa;ALTER TABLE [dbo].[Employees] CHECK CONSTRAINT [FK_Employees_Titles_TitleId]&#xa;GO&#xa;ALTER TABLE [dbo].[Families]  WITH CHECK ADD  CONSTRAINT [FK_Families_Employees_EmployeeId] FOREIGN KEY([EmployeeId])&#xa;REFERENCES [dbo].[Employees] ([Id])&#xa;ON DELETE CASCADE&#xa;GO&#xa;ALTER TABLE [dbo].[Families] CHECK CONSTRAINT [FK_Families_Employees_EmployeeId]&#xa;GO&#xa;ALTER TABLE [dbo].[Families]  WITH CHECK ADD  CONSTRAINT [FK_Families_MilitaryParamilitaryOrganizations_MilitaryParamilitaryOrganizationId] FOREIGN KEY([MilitaryParamilitaryOrganizationId])&#xa;REFERENCES [dbo].[MilitaryParamilitaryOrganizations] ([Id])&#xa;GO&#xa;ALTER TABLE [dbo].[Families] CHECK CONSTRAINT [FK_Families_MilitaryParamilitaryOrganizations_MilitaryParamilitaryOrganizationId]&#xa;GO&#xa;ALTER TABLE [dbo].[Families]  WITH CHECK ADD  CONSTRAINT [FK_Families_Relationships_RelationshipId] FOREIGN KEY([RelationshipId])&#xa;REFERENCES [dbo].[Relationships] ([Id])&#xa;ON DELETE CASCADE&#xa;GO&#xa;ALTER TABLE [dbo].[Families] CHECK CONSTRAINT [FK_Families_Relationships_RelationshipId]&#xa;GO&#xa;ALTER TABLE [dbo].[Families]  WITH CHECK ADD  CONSTRAINT [FK_Families_Sexes_SexId] FOREIGN KEY([SexId])&#xa;REFERENCES [dbo].[Sexes] ([Id])&#xa;ON DELETE CASCADE&#xa;GO&#xa;ALTER TABLE [dbo].[Families] CHECK CONSTRAINT [FK_Families_Sexes_SexId]&#xa;GO&#xa;ALTER TABLE [dbo].[FamilyAddresses]  WITH CHECK ADD  CONSTRAINT [FK_FamilyAddresses_Counties_CountyId] FOREIGN KEY([CountyId])&#xa;REFERENCES [dbo].[Counties] ([Id])&#xa;ON DELETE CASCADE&#xa;GO&#xa;ALTER TABLE [dbo].[FamilyAddresses] CHECK CONSTRAINT [FK_FamilyAddresses_Counties_CountyId]&#xa;GO&#xa;ALTER TABLE [dbo].[FamilyAddresses]  WITH CHECK ADD  CONSTRAINT [FK_FamilyAddresses_Families_FamilyId] FOREIGN KEY([FamilyId])&#xa;REFERENCES [dbo].[Families] ([Id])&#xa;ON DELETE CASCADE&#xa;GO&#xa;ALTER TABLE [dbo].[FamilyAddresses] CHECK CONSTRAINT [FK_FamilyAddresses_Families_FamilyId]&#xa;GO&#xa;ALTER TABLE [dbo].[FamilyAddresses]  WITH CHECK ADD  CONSTRAINT [FK_FamilyAddresses_Regions_RegionId] FOREIGN KEY([RegionId])&#xa;REFERENCES [dbo].[Regions] ([Id])&#xa;ON DELETE CASCADE&#xa;GO&#xa;ALTER TABLE [dbo].[FamilyAddresses] CHECK CONSTRAINT [FK_FamilyAddresses_Regions_RegionId]&#xa;GO&#xa;ALTER TABLE [dbo].[ForceOrders]  WITH CHECK ADD  CONSTRAINT [FK_ForceOrders_ForceOrderTypes_ForceOrderTypeId] FOREIGN KEY([ForceOrderTypeId])&#xa;REFERENCES [dbo].[ForceOrderTypes] ([Id])&#xa;ON DELETE CASCADE&#xa;GO&#xa;ALTER TABLE [dbo].[ForceOrders] CHECK CONSTRAINT [FK_ForceOrders_ForceOrderTypes_ForceOrderTypeId]&#xa;GO&#xa;ALTER TABLE [dbo].[OtherNames]  WITH CHECK ADD  CONSTRAINT [FK_OtherNames_Employees_EmployeeId] FOREIGN KEY([EmployeeId])&#xa;REFERENCES [dbo].[Employees] ([Id])&#xa;GO&#xa;ALTER TABLE [dbo].[OtherNames] CHECK CONSTRAINT [FK_OtherNames_Employees_EmployeeId]&#xa;GO&#xa;ALTER TABLE [dbo].[PromotionHistories]  WITH CHECK ADD  CONSTRAINT [FK_PromotionHistories_Employees_EmployeeId] FOREIGN KEY([EmployeeId])&#xa;REFERENCES [dbo].[Employees] ([Id])&#xa;ON DELETE CASCADE&#xa;GO&#xa;ALTER TABLE [dbo].[PromotionHistories] CHECK CONSTRAINT [FK_PromotionHistories_Employees_EmployeeId]&#xa;GO&#xa;ALTER TABLE [dbo].[PromotionHistories]  WITH CHECK ADD  CONSTRAINT [FK_PromotionHistories_ForceOrders_ForceOrderId] FOREIGN KEY([ForceOrderId])&#xa;REFERENCES [dbo].[ForceOrders] ([Id])&#xa;GO&#xa;ALTER TABLE [dbo].[PromotionHistories] CHECK CONSTRAINT [FK_PromotionHistories_ForceOrders_ForceOrderId]&#xa;GO&#xa;ALTER TABLE [dbo].[PromotionHistories]  WITH CHECK ADD  CONSTRAINT [FK_PromotionHistories_Ranks_PromotedToRankId] FOREIGN KEY([PromotedToRankId])&#xa;REFERENCES [dbo].[Ranks] ([Id])&#xa;ON DELETE CASCADE&#xa;GO&#xa;ALTER TABLE [dbo].[PromotionHistories] CHECK CONSTRAINT [FK_PromotionHistories_Ranks_PromotedToRankId]&#xa;GO&#xa;ALTER TABLE [dbo].[PromotionHistories]  WITH CHECK ADD  CONSTRAINT [FK_PromotionHistories_RankStatuses_PromotedToRankStatusId] FOREIGN KEY([PromotedToRankStatusId])&#xa;REFERENCES [dbo].[RankStatuses] ([Id])&#xa;ON DELETE CASCADE&#xa;GO&#xa;ALTER TABLE [dbo].[PromotionHistories] CHECK CONSTRAINT [FK_PromotionHistories_RankStatuses_PromotedToRankStatusId]&#xa;GO&#xa;ALTER TABLE [dbo].[RegimentalNumbers]  WITH CHECK ADD  CONSTRAINT [FK_RegimentalNumbers_Employees_EmployeeId] FOREIGN KEY([EmployeeId])&#xa;REFERENCES [dbo].[Employees] ([Id])&#xa;ON DELETE CASCADE&#xa;GO&#xa;ALTER TABLE [dbo].[RegimentalNumbers] CHECK CONSTRAINT [FK_RegimentalNumbers_Employees_EmployeeId]&#xa;GO&#xa;USE [master]&#xa;GO&#xa;ALTER DATABASE [GDFHRMSV3] SET  READ_WRITE &#xa;GO" style="text;whiteSpace=wrap;html=1;" vertex="1" parent="1">
          <mxGeometry width="560" height="43970" as="geometry" />
        </mxCell>
      </root>
    </mxGraphModel>
  </diagram>
</mxfile>
